G04 #@! TF.GenerationSoftware,KiCad,Pcbnew,(5.1.9)-1*
G04 #@! TF.CreationDate,2021-12-30T22:55:07+09:00*
G04 #@! TF.ProjectId,FDSPlus_BX3,46445350-6c75-4735-9f42-58332e6b6963,rev?*
G04 #@! TF.SameCoordinates,Original*
G04 #@! TF.FileFunction,Copper,L2,Bot*
G04 #@! TF.FilePolarity,Positive*
%FSLAX46Y46*%
G04 Gerber Fmt 4.6, Leading zero omitted, Abs format (unit mm)*
G04 Created by KiCad (PCBNEW (5.1.9)-1) date 2021-12-30 22:55:07*
%MOMM*%
%LPD*%
G01*
G04 APERTURE LIST*
G04 #@! TA.AperFunction,ComponentPad*
%ADD10C,1.600000*%
G04 #@! TD*
G04 #@! TA.AperFunction,ComponentPad*
%ADD11R,1.600000X1.600000*%
G04 #@! TD*
G04 #@! TA.AperFunction,ComponentPad*
%ADD12O,1.700000X1.700000*%
G04 #@! TD*
G04 #@! TA.AperFunction,ComponentPad*
%ADD13R,1.700000X1.700000*%
G04 #@! TD*
G04 #@! TA.AperFunction,ComponentPad*
%ADD14C,1.700000*%
G04 #@! TD*
G04 #@! TA.AperFunction,ComponentPad*
%ADD15O,1.600000X1.600000*%
G04 #@! TD*
G04 #@! TA.AperFunction,ViaPad*
%ADD16C,0.800000*%
G04 #@! TD*
G04 #@! TA.AperFunction,Conductor*
%ADD17C,1.000000*%
G04 #@! TD*
G04 #@! TA.AperFunction,Conductor*
%ADD18C,2.000000*%
G04 #@! TD*
G04 #@! TA.AperFunction,Conductor*
%ADD19C,0.250000*%
G04 #@! TD*
G04 #@! TA.AperFunction,Conductor*
%ADD20C,0.254000*%
G04 #@! TD*
G04 #@! TA.AperFunction,Conductor*
%ADD21C,0.100000*%
G04 #@! TD*
G04 APERTURE END LIST*
D10*
G04 #@! TO.P,C1,2*
G04 #@! TO.N,GND*
X114895000Y-90805000D03*
D11*
G04 #@! TO.P,C1,1*
G04 #@! TO.N,+5V*
X112395000Y-90805000D03*
G04 #@! TD*
D10*
G04 #@! TO.P,C2,2*
G04 #@! TO.N,GND*
X142875000Y-128350000D03*
G04 #@! TO.P,C2,1*
G04 #@! TO.N,+5V*
X142875000Y-133350000D03*
G04 #@! TD*
G04 #@! TO.P,C3,1*
G04 #@! TO.N,+5V*
X143510000Y-110490000D03*
G04 #@! TO.P,C3,2*
G04 #@! TO.N,GND*
X143510000Y-105490000D03*
G04 #@! TD*
G04 #@! TO.P,C4,2*
G04 #@! TO.N,GND*
X125730000Y-98345000D03*
G04 #@! TO.P,C4,1*
G04 #@! TO.N,+5V*
X125730000Y-93345000D03*
G04 #@! TD*
D12*
G04 #@! TO.P,J1,30*
G04 #@! TO.N,/SIDE*
X100965000Y-133985000D03*
G04 #@! TO.P,J1,29*
G04 #@! TO.N,GND*
X98425000Y-133985000D03*
G04 #@! TO.P,J1,28*
G04 #@! TO.N,/RD*
X100965000Y-131445000D03*
G04 #@! TO.P,J1,27*
G04 #@! TO.N,GND*
X98425000Y-131445000D03*
G04 #@! TO.P,J1,26*
G04 #@! TO.N,/WP*
X100965000Y-128905000D03*
G04 #@! TO.P,J1,25*
G04 #@! TO.N,GND*
X98425000Y-128905000D03*
G04 #@! TO.P,J1,24*
G04 #@! TO.N,/T00*
X100965000Y-126365000D03*
G04 #@! TO.P,J1,23*
G04 #@! TO.N,GND*
X98425000Y-126365000D03*
G04 #@! TO.P,J1,22*
G04 #@! TO.N,/WG*
X100965000Y-123825000D03*
G04 #@! TO.P,J1,21*
G04 #@! TO.N,GND*
X98425000Y-123825000D03*
G04 #@! TO.P,J1,20*
G04 #@! TO.N,/WD*
X100965000Y-121285000D03*
G04 #@! TO.P,J1,19*
G04 #@! TO.N,GND*
X98425000Y-121285000D03*
G04 #@! TO.P,J1,18*
G04 #@! TO.N,N/C*
X100965000Y-118745000D03*
G04 #@! TO.P,J1,17*
G04 #@! TO.N,/F_MS1*
X98425000Y-118745000D03*
G04 #@! TO.P,J1,16*
G04 #@! TO.N,N/C*
X100965000Y-116205000D03*
G04 #@! TO.P,J1,15*
X98425000Y-116205000D03*
G04 #@! TO.P,J1,14*
G04 #@! TO.N,/STEP*
X100965000Y-113665000D03*
G04 #@! TO.P,J1,13*
G04 #@! TO.N,/F_MS0*
X98425000Y-113665000D03*
G04 #@! TO.P,J1,12*
G04 #@! TO.N,/DIR*
X100965000Y-111125000D03*
G04 #@! TO.P,J1,11*
G04 #@! TO.N,/DEN*
X98425000Y-111125000D03*
G04 #@! TO.P,J1,10*
G04 #@! TO.N,/M_MON*
X100965000Y-108585000D03*
G04 #@! TO.P,J1,9*
G04 #@! TO.N,/F_HL*
X98425000Y-108585000D03*
G04 #@! TO.P,J1,8*
G04 #@! TO.N,/M_RDY*
X100965000Y-106045000D03*
G04 #@! TO.P,J1,7*
G04 #@! TO.N,/M_DS1*
X98425000Y-106045000D03*
G04 #@! TO.P,J1,6*
G04 #@! TO.N,/DCHG*
X100965000Y-103505000D03*
G04 #@! TO.P,J1,5*
G04 #@! TO.N,+5V*
X98425000Y-103505000D03*
G04 #@! TO.P,J1,4*
G04 #@! TO.N,/M_DS0*
X100965000Y-100965000D03*
G04 #@! TO.P,J1,3*
G04 #@! TO.N,+5V*
X98425000Y-100965000D03*
G04 #@! TO.P,J1,2*
G04 #@! TO.N,/IDX*
X100965000Y-98425000D03*
D13*
G04 #@! TO.P,J1,1*
G04 #@! TO.N,+5V*
X98425000Y-98425000D03*
G04 #@! TD*
D14*
G04 #@! TO.P,J3,34*
G04 #@! TO.N,/D_RDY*
X156210000Y-134620000D03*
G04 #@! TO.P,J3,33*
G04 #@! TO.N,GND*
X153670000Y-134620000D03*
G04 #@! TO.P,J3,32*
G04 #@! TO.N,/SIDE*
X156210000Y-132080000D03*
G04 #@! TO.P,J3,31*
G04 #@! TO.N,GND*
X153670000Y-132080000D03*
G04 #@! TO.P,J3,30*
G04 #@! TO.N,/RD*
X156210000Y-129540000D03*
G04 #@! TO.P,J3,29*
G04 #@! TO.N,GND*
X153670000Y-129540000D03*
G04 #@! TO.P,J3,28*
G04 #@! TO.N,/WP*
X156210000Y-127000000D03*
G04 #@! TO.P,J3,27*
G04 #@! TO.N,GND*
X153670000Y-127000000D03*
G04 #@! TO.P,J3,26*
G04 #@! TO.N,/T00*
X156210000Y-124460000D03*
G04 #@! TO.P,J3,25*
G04 #@! TO.N,GND*
X153670000Y-124460000D03*
G04 #@! TO.P,J3,24*
G04 #@! TO.N,/WG*
X156210000Y-121920000D03*
G04 #@! TO.P,J3,23*
G04 #@! TO.N,GND*
X153670000Y-121920000D03*
G04 #@! TO.P,J3,22*
G04 #@! TO.N,/WD*
X156210000Y-119380000D03*
G04 #@! TO.P,J3,21*
G04 #@! TO.N,GND*
X153670000Y-119380000D03*
G04 #@! TO.P,J3,20*
G04 #@! TO.N,/STEP*
X156210000Y-116840000D03*
G04 #@! TO.P,J3,19*
G04 #@! TO.N,N/C*
X153670000Y-116840000D03*
G04 #@! TO.P,J3,18*
G04 #@! TO.N,/DIR*
X156210000Y-114300000D03*
G04 #@! TO.P,J3,17*
G04 #@! TO.N,N/C*
X153670000Y-114300000D03*
G04 #@! TO.P,J3,16*
G04 #@! TO.N,/D_MON*
X156210000Y-111760000D03*
G04 #@! TO.P,J3,15*
G04 #@! TO.N,N/C*
X153670000Y-111760000D03*
G04 #@! TO.P,J3,14*
X156210000Y-109220000D03*
G04 #@! TO.P,J3,13*
X153670000Y-109220000D03*
G04 #@! TO.P,J3,12*
G04 #@! TO.N,/X_DS1*
X156210000Y-106680000D03*
G04 #@! TO.P,J3,11*
G04 #@! TO.N,N/C*
X153670000Y-106680000D03*
G04 #@! TO.P,J3,10*
G04 #@! TO.N,/X_DS0*
X156210000Y-104140000D03*
G04 #@! TO.P,J3,9*
G04 #@! TO.N,N/C*
X153670000Y-104140000D03*
G04 #@! TO.P,J3,8*
G04 #@! TO.N,/IDX*
X156210000Y-101600000D03*
G04 #@! TO.P,J3,7*
G04 #@! TO.N,N/C*
X153670000Y-101600000D03*
G04 #@! TO.P,J3,6*
X156210000Y-99060000D03*
G04 #@! TO.P,J3,5*
G04 #@! TO.N,/OPT2*
X153670000Y-99060000D03*
G04 #@! TO.P,J3,4*
G04 #@! TO.N,/X_PIN4*
X156210000Y-96520000D03*
G04 #@! TO.P,J3,3*
G04 #@! TO.N,/F_MS1*
X153670000Y-96520000D03*
G04 #@! TO.P,J3,2*
G04 #@! TO.N,/DEN*
X156210000Y-93980000D03*
D13*
G04 #@! TO.P,J3,1*
G04 #@! TO.N,/F_MS0*
X153670000Y-93980000D03*
G04 #@! TD*
G04 #@! TO.P,J4,1*
G04 #@! TO.N,GND*
X170180000Y-93980000D03*
D14*
G04 #@! TO.P,J4,2*
G04 #@! TO.N,/DEN*
X172720000Y-93980000D03*
G04 #@! TO.P,J4,3*
G04 #@! TO.N,N/C*
X170180000Y-96520000D03*
G04 #@! TO.P,J4,4*
G04 #@! TO.N,/D_HL*
X172720000Y-96520000D03*
G04 #@! TO.P,J4,5*
G04 #@! TO.N,GND*
X170180000Y-99060000D03*
G04 #@! TO.P,J4,6*
G04 #@! TO.N,N/C*
X172720000Y-99060000D03*
G04 #@! TO.P,J4,7*
X170180000Y-101600000D03*
G04 #@! TO.P,J4,8*
G04 #@! TO.N,/IDX*
X172720000Y-101600000D03*
G04 #@! TO.P,J4,9*
G04 #@! TO.N,GND*
X170180000Y-104140000D03*
G04 #@! TO.P,J4,10*
G04 #@! TO.N,/D_DS0*
X172720000Y-104140000D03*
G04 #@! TO.P,J4,11*
G04 #@! TO.N,N/C*
X170180000Y-106680000D03*
G04 #@! TO.P,J4,12*
G04 #@! TO.N,/D_DS1*
X172720000Y-106680000D03*
G04 #@! TO.P,J4,13*
G04 #@! TO.N,GND*
X170180000Y-109220000D03*
G04 #@! TO.P,J4,14*
G04 #@! TO.N,N/C*
X172720000Y-109220000D03*
G04 #@! TO.P,J4,15*
G04 #@! TO.N,GND*
X170180000Y-111760000D03*
G04 #@! TO.P,J4,16*
G04 #@! TO.N,/D_MON*
X172720000Y-111760000D03*
G04 #@! TO.P,J4,17*
G04 #@! TO.N,N/C*
X170180000Y-114300000D03*
G04 #@! TO.P,J4,18*
G04 #@! TO.N,/DIR*
X172720000Y-114300000D03*
G04 #@! TO.P,J4,19*
G04 #@! TO.N,GND*
X170180000Y-116840000D03*
G04 #@! TO.P,J4,20*
G04 #@! TO.N,/STEP*
X172720000Y-116840000D03*
G04 #@! TO.P,J4,21*
G04 #@! TO.N,GND*
X170180000Y-119380000D03*
G04 #@! TO.P,J4,22*
G04 #@! TO.N,/WD*
X172720000Y-119380000D03*
G04 #@! TO.P,J4,23*
G04 #@! TO.N,GND*
X170180000Y-121920000D03*
G04 #@! TO.P,J4,24*
G04 #@! TO.N,/WG*
X172720000Y-121920000D03*
G04 #@! TO.P,J4,25*
G04 #@! TO.N,GND*
X170180000Y-124460000D03*
G04 #@! TO.P,J4,26*
G04 #@! TO.N,/T00*
X172720000Y-124460000D03*
G04 #@! TO.P,J4,27*
G04 #@! TO.N,GND*
X170180000Y-127000000D03*
G04 #@! TO.P,J4,28*
G04 #@! TO.N,/WP*
X172720000Y-127000000D03*
G04 #@! TO.P,J4,29*
G04 #@! TO.N,GND*
X170180000Y-129540000D03*
G04 #@! TO.P,J4,30*
G04 #@! TO.N,/RD*
X172720000Y-129540000D03*
G04 #@! TO.P,J4,31*
G04 #@! TO.N,GND*
X170180000Y-132080000D03*
G04 #@! TO.P,J4,32*
G04 #@! TO.N,/SIDE*
X172720000Y-132080000D03*
G04 #@! TO.P,J4,33*
G04 #@! TO.N,N/C*
X170180000Y-134620000D03*
G04 #@! TO.P,J4,34*
G04 #@! TO.N,/D_RDY*
X172720000Y-134620000D03*
G04 #@! TD*
D12*
G04 #@! TO.P,JP2,3*
G04 #@! TO.N,/X_DS0*
X135890000Y-116840000D03*
G04 #@! TO.P,JP2,2*
G04 #@! TO.N,Net-(JP2-Pad2)*
X138430000Y-116840000D03*
D13*
G04 #@! TO.P,JP2,1*
G04 #@! TO.N,/F_DS0*
X140970000Y-116840000D03*
G04 #@! TD*
G04 #@! TO.P,JP3,1*
G04 #@! TO.N,/F_DS1*
X129540000Y-116840000D03*
D12*
G04 #@! TO.P,JP3,2*
G04 #@! TO.N,Net-(JP3-Pad2)*
X127000000Y-116840000D03*
G04 #@! TO.P,JP3,3*
G04 #@! TO.N,/X_DS1*
X124460000Y-116840000D03*
G04 #@! TD*
D11*
G04 #@! TO.P,U2,1*
G04 #@! TO.N,/D_DS1*
X139065000Y-127000000D03*
D15*
G04 #@! TO.P,U2,8*
G04 #@! TO.N,/F_DS1*
X123825000Y-134620000D03*
G04 #@! TO.P,U2,2*
G04 #@! TO.N,/X_DS1*
X136525000Y-127000000D03*
G04 #@! TO.P,U2,9*
X126365000Y-134620000D03*
G04 #@! TO.P,U2,3*
G04 #@! TO.N,/D_DS0*
X133985000Y-127000000D03*
G04 #@! TO.P,U2,10*
G04 #@! TO.N,/X_DS0*
X128905000Y-134620000D03*
G04 #@! TO.P,U2,4*
X131445000Y-127000000D03*
G04 #@! TO.P,U2,11*
G04 #@! TO.N,/F_DS0*
X131445000Y-134620000D03*
G04 #@! TO.P,U2,5*
G04 #@! TO.N,/CTL_MODE*
X128905000Y-127000000D03*
G04 #@! TO.P,U2,12*
X133985000Y-134620000D03*
G04 #@! TO.P,U2,6*
X126365000Y-127000000D03*
G04 #@! TO.P,U2,13*
X136525000Y-134620000D03*
G04 #@! TO.P,U2,7*
G04 #@! TO.N,GND*
X123825000Y-127000000D03*
G04 #@! TO.P,U2,14*
G04 #@! TO.N,+5V*
X139065000Y-134620000D03*
G04 #@! TD*
G04 #@! TO.P,U3,8*
G04 #@! TO.N,+5V*
X131445000Y-91440000D03*
G04 #@! TO.P,U3,4*
G04 #@! TO.N,GND*
X139065000Y-99060000D03*
G04 #@! TO.P,U3,7*
G04 #@! TO.N,/DS1INH*
X133985000Y-91440000D03*
G04 #@! TO.P,U3,3*
G04 #@! TO.N,/CTL_MODE*
X136525000Y-99060000D03*
G04 #@! TO.P,U3,6*
G04 #@! TO.N,/M_SW*
X136525000Y-91440000D03*
G04 #@! TO.P,U3,2*
G04 #@! TO.N,/EM_MODE*
X133985000Y-99060000D03*
G04 #@! TO.P,U3,5*
G04 #@! TO.N,Net-(R2-Pad1)*
X139065000Y-91440000D03*
D11*
G04 #@! TO.P,U3,1*
G04 #@! TO.N,Net-(R1-Pad1)*
X131445000Y-99060000D03*
G04 #@! TD*
D15*
G04 #@! TO.P,U1,14*
G04 #@! TO.N,+5V*
X139700000Y-111760000D03*
G04 #@! TO.P,U1,7*
G04 #@! TO.N,GND*
X124460000Y-104140000D03*
G04 #@! TO.P,U1,13*
G04 #@! TO.N,/EM_MODE*
X137160000Y-111760000D03*
G04 #@! TO.P,U1,6*
X127000000Y-104140000D03*
G04 #@! TO.P,U1,12*
X134620000Y-111760000D03*
G04 #@! TO.P,U1,5*
X129540000Y-104140000D03*
G04 #@! TO.P,U1,11*
G04 #@! TO.N,/M_RDY*
X132080000Y-111760000D03*
G04 #@! TO.P,U1,4*
G04 #@! TO.N,Net-(JP2-Pad2)*
X132080000Y-104140000D03*
G04 #@! TO.P,U1,10*
G04 #@! TO.N,/D_RDY*
X129540000Y-111760000D03*
G04 #@! TO.P,U1,3*
G04 #@! TO.N,/M_DS0*
X134620000Y-104140000D03*
G04 #@! TO.P,U1,9*
G04 #@! TO.N,/D_MON*
X127000000Y-111760000D03*
G04 #@! TO.P,U1,2*
G04 #@! TO.N,Net-(JP3-Pad2)*
X137160000Y-104140000D03*
G04 #@! TO.P,U1,8*
G04 #@! TO.N,/M_MON*
X124460000Y-111760000D03*
D11*
G04 #@! TO.P,U1,1*
G04 #@! TO.N,/M_DS1*
X139700000Y-104140000D03*
G04 #@! TD*
D15*
G04 #@! TO.P,R1,2*
G04 #@! TO.N,+5V*
X127635000Y-76200000D03*
D10*
G04 #@! TO.P,R1,1*
G04 #@! TO.N,Net-(R1-Pad1)*
X127635000Y-83820000D03*
G04 #@! TD*
G04 #@! TO.P,R2,1*
G04 #@! TO.N,Net-(R2-Pad1)*
X117475000Y-76200000D03*
D15*
G04 #@! TO.P,R2,2*
G04 #@! TO.N,/LED*
X117475000Y-83820000D03*
G04 #@! TD*
D11*
G04 #@! TO.P,D5,1*
G04 #@! TO.N,Net-(D5-Pad1)*
X122555000Y-76200000D03*
D15*
G04 #@! TO.P,D5,2*
G04 #@! TO.N,/F_MS0*
X122555000Y-83820000D03*
G04 #@! TD*
G04 #@! TO.P,D6,2*
G04 #@! TO.N,/D_HL*
X159385000Y-83185000D03*
D11*
G04 #@! TO.P,D6,1*
G04 #@! TO.N,Net-(D6-Pad1)*
X151765000Y-83185000D03*
G04 #@! TD*
D12*
G04 #@! TO.P,J2,30*
G04 #@! TO.N,/SIDE*
X114935000Y-133985000D03*
G04 #@! TO.P,J2,29*
G04 #@! TO.N,GND*
X112395000Y-133985000D03*
G04 #@! TO.P,J2,28*
G04 #@! TO.N,/RD*
X114935000Y-131445000D03*
G04 #@! TO.P,J2,27*
G04 #@! TO.N,GND*
X112395000Y-131445000D03*
G04 #@! TO.P,J2,26*
G04 #@! TO.N,/WP*
X114935000Y-128905000D03*
G04 #@! TO.P,J2,25*
G04 #@! TO.N,GND*
X112395000Y-128905000D03*
G04 #@! TO.P,J2,24*
G04 #@! TO.N,/T00*
X114935000Y-126365000D03*
G04 #@! TO.P,J2,23*
G04 #@! TO.N,GND*
X112395000Y-126365000D03*
G04 #@! TO.P,J2,22*
G04 #@! TO.N,/WG*
X114935000Y-123825000D03*
G04 #@! TO.P,J2,21*
G04 #@! TO.N,GND*
X112395000Y-123825000D03*
G04 #@! TO.P,J2,20*
G04 #@! TO.N,/WD*
X114935000Y-121285000D03*
G04 #@! TO.P,J2,19*
G04 #@! TO.N,GND*
X112395000Y-121285000D03*
G04 #@! TO.P,J2,18*
G04 #@! TO.N,/STEP*
X114935000Y-118745000D03*
G04 #@! TO.P,J2,17*
G04 #@! TO.N,/F_MS1*
X112395000Y-118745000D03*
G04 #@! TO.P,J2,16*
G04 #@! TO.N,N/C*
X114935000Y-116205000D03*
G04 #@! TO.P,J2,15*
X112395000Y-116205000D03*
G04 #@! TO.P,J2,14*
G04 #@! TO.N,/STEP*
X114935000Y-113665000D03*
G04 #@! TO.P,J2,13*
G04 #@! TO.N,/F_MS0*
X112395000Y-113665000D03*
G04 #@! TO.P,J2,12*
G04 #@! TO.N,/DIR*
X114935000Y-111125000D03*
G04 #@! TO.P,J2,11*
G04 #@! TO.N,/DEN*
X112395000Y-111125000D03*
G04 #@! TO.P,J2,10*
G04 #@! TO.N,/D_MON*
X114935000Y-108585000D03*
G04 #@! TO.P,J2,9*
G04 #@! TO.N,/F_HL*
X112395000Y-108585000D03*
G04 #@! TO.P,J2,8*
G04 #@! TO.N,/D_RDY*
X114935000Y-106045000D03*
G04 #@! TO.P,J2,7*
G04 #@! TO.N,/F_DS1*
X112395000Y-106045000D03*
G04 #@! TO.P,J2,6*
G04 #@! TO.N,/DCHG*
X114935000Y-103505000D03*
G04 #@! TO.P,J2,5*
G04 #@! TO.N,+5V*
X112395000Y-103505000D03*
G04 #@! TO.P,J2,4*
G04 #@! TO.N,/F_DS0*
X114935000Y-100965000D03*
G04 #@! TO.P,J2,3*
G04 #@! TO.N,+5V*
X112395000Y-100965000D03*
G04 #@! TO.P,J2,2*
G04 #@! TO.N,/IDX*
X114935000Y-98425000D03*
D13*
G04 #@! TO.P,J2,1*
G04 #@! TO.N,+5V*
X112395000Y-98425000D03*
G04 #@! TD*
D12*
G04 #@! TO.P,JP7,2*
G04 #@! TO.N,/D_HL*
X162740000Y-92710000D03*
D13*
G04 #@! TO.P,JP7,1*
G04 #@! TO.N,GND*
X162740000Y-90170000D03*
G04 #@! TD*
D12*
G04 #@! TO.P,J5,5*
G04 #@! TO.N,GND*
X107315000Y-90805000D03*
G04 #@! TO.P,J5,4*
G04 #@! TO.N,/DS1INH*
X104775000Y-90805000D03*
G04 #@! TO.P,J5,3*
G04 #@! TO.N,/M_SW*
X102235000Y-90805000D03*
G04 #@! TO.P,J5,2*
G04 #@! TO.N,/LED*
X99695000Y-90805000D03*
D13*
G04 #@! TO.P,J5,1*
G04 #@! TO.N,+5V*
X97155000Y-90805000D03*
G04 #@! TD*
D15*
G04 #@! TO.P,R3,2*
G04 #@! TO.N,/DS1INH*
X132715000Y-76200000D03*
D10*
G04 #@! TO.P,R3,1*
G04 #@! TO.N,GND*
X132715000Y-83820000D03*
G04 #@! TD*
D16*
G04 #@! TO.N,/M_DS1*
X129654600Y-88726000D03*
G04 #@! TO.N,/D_RDY*
X148050900Y-113918900D03*
G04 #@! TO.N,/F_DS0*
X133314700Y-102407500D03*
G04 #@! TO.N,/X_DS0*
X136123100Y-110747300D03*
G04 #@! TO.N,/D_DS1*
X139700000Y-114367400D03*
G04 #@! TO.N,Net-(JP3-Pad2)*
X131920100Y-107362200D03*
G04 #@! TO.N,/F_MS1*
X146735300Y-119384200D03*
G04 #@! TD*
D17*
G04 #@! TO.N,GND*
X142875000Y-128350000D02*
X142875000Y-112824500D01*
X142875000Y-112824500D02*
X141809600Y-111759100D01*
X141809600Y-111759100D02*
X141809600Y-107190400D01*
X141809600Y-107190400D02*
X143510000Y-105490000D01*
X112395000Y-133985000D02*
X110844700Y-133985000D01*
X110844700Y-133985000D02*
X109283400Y-135546300D01*
X109283400Y-135546300D02*
X99986300Y-135546300D01*
X99986300Y-135546300D02*
X98425000Y-133985000D01*
X123825000Y-128500300D02*
X116788400Y-135536900D01*
X116788400Y-135536900D02*
X113946900Y-135536900D01*
X113946900Y-135536900D02*
X112395000Y-133985000D01*
X124460000Y-98345000D02*
X116920000Y-90805000D01*
X116920000Y-90805000D02*
X114895000Y-90805000D01*
X132715000Y-83820000D02*
X128481900Y-88053100D01*
X128481900Y-88053100D02*
X128481900Y-95593100D01*
X128481900Y-95593100D02*
X125730000Y-98345000D01*
X124460000Y-98345000D02*
X125730000Y-98345000D01*
X124460000Y-98345000D02*
X124460000Y-102639700D01*
X124460000Y-104140000D02*
X124460000Y-102639700D01*
X170180000Y-109220000D02*
X168619000Y-107659000D01*
X168619000Y-107659000D02*
X168619000Y-105701000D01*
X168619000Y-105701000D02*
X170180000Y-104140000D01*
X170180000Y-104140000D02*
X168629600Y-102589600D01*
X168629600Y-102589600D02*
X168629600Y-100610400D01*
X168629600Y-100610400D02*
X170180000Y-99060000D01*
X170180000Y-111760000D02*
X170180000Y-109220000D01*
X170180000Y-116840000D02*
X168629500Y-115289500D01*
X168629500Y-115289500D02*
X168629500Y-113310500D01*
X168629500Y-113310500D02*
X170180000Y-111760000D01*
X170180000Y-119380000D02*
X170180000Y-116840000D01*
X153670000Y-134620000D02*
X155224200Y-136174200D01*
X155224200Y-136174200D02*
X166085800Y-136174200D01*
X166085800Y-136174200D02*
X170180000Y-132080000D01*
X168629700Y-93980000D02*
X168629700Y-97509700D01*
X168629700Y-97509700D02*
X170180000Y-99060000D01*
X168929800Y-93980000D02*
X168629700Y-93980000D01*
X170180000Y-93980000D02*
X168929800Y-93980000D01*
X139065000Y-100560300D02*
X143510000Y-105005300D01*
X143510000Y-105005300D02*
X143510000Y-105490000D01*
X112395000Y-121285000D02*
X112395000Y-123825000D01*
X98425000Y-131445000D02*
X98425000Y-133985000D01*
X98425000Y-128905000D02*
X98425000Y-131445000D01*
X98425000Y-126365000D02*
X98425000Y-128905000D01*
X98425000Y-123825000D02*
X98425000Y-126365000D01*
X98425000Y-121285000D02*
X98425000Y-123825000D01*
X112395000Y-128905000D02*
X112395000Y-131445000D01*
X112395000Y-126365000D02*
X112395000Y-128905000D01*
X112395000Y-123825000D02*
X112395000Y-126365000D01*
X153670000Y-129540000D02*
X153670000Y-132080000D01*
X153670000Y-127000000D02*
X153670000Y-129540000D01*
X153670000Y-124460000D02*
X153670000Y-127000000D01*
X153670000Y-121920000D02*
X153670000Y-124460000D01*
X153670000Y-119380000D02*
X153670000Y-121920000D01*
X170180000Y-132080000D02*
X170180000Y-129540000D01*
X170180000Y-121920000D02*
X170180000Y-119380000D01*
X170180000Y-124460000D02*
X170180000Y-121920000D01*
X170180000Y-127000000D02*
X170180000Y-124460000D01*
X170180000Y-129540000D02*
X170180000Y-127000000D01*
X123825000Y-127000000D02*
X123825000Y-128500300D01*
X139065000Y-99060000D02*
X139065000Y-100560300D01*
X162740000Y-90170000D02*
X164819700Y-90170000D01*
X164819700Y-90170000D02*
X168629700Y-93980000D01*
D18*
G04 #@! TO.N,+5V*
X127635000Y-76200000D02*
X127635000Y-78200300D01*
X125730000Y-93345000D02*
X125634700Y-93249700D01*
X125634700Y-93249700D02*
X125634700Y-80200600D01*
X125634700Y-80200600D02*
X127635000Y-78200300D01*
X143510000Y-110490000D02*
X144875400Y-111855400D01*
X144875400Y-111855400D02*
X144875400Y-131349600D01*
X144875400Y-131349600D02*
X142875000Y-133350000D01*
X131445000Y-93440300D02*
X136333300Y-93440300D01*
X136333300Y-93440300D02*
X145510800Y-102617800D01*
X145510800Y-102617800D02*
X145510800Y-108489200D01*
X145510800Y-108489200D02*
X143510000Y-110490000D01*
X131445000Y-91440000D02*
X131445000Y-93440300D01*
X98425000Y-100965000D02*
X98425000Y-103505000D01*
X98425000Y-98425000D02*
X98425000Y-100965000D01*
X112395000Y-98425000D02*
X112395000Y-90805000D01*
X112395000Y-100965000D02*
X112395000Y-98425000D01*
X112395000Y-100965000D02*
X112395000Y-103505000D01*
D19*
G04 #@! TO.N,/RD*
X100965000Y-131445000D02*
X102140300Y-131445000D01*
X114935000Y-131445000D02*
X113759700Y-131445000D01*
X113759700Y-131445000D02*
X113759700Y-131812300D01*
X113759700Y-131812300D02*
X112951700Y-132620300D01*
X112951700Y-132620300D02*
X103315600Y-132620300D01*
X103315600Y-132620300D02*
X102140300Y-131445000D01*
G04 #@! TO.N,/WD*
X100965000Y-121285000D02*
X102140300Y-121285000D01*
X114935000Y-121285000D02*
X113759700Y-121285000D01*
X113759700Y-121285000D02*
X113759700Y-120917700D01*
X113759700Y-120917700D02*
X112951700Y-120109700D01*
X112951700Y-120109700D02*
X103315600Y-120109700D01*
X103315600Y-120109700D02*
X102140300Y-121285000D01*
G04 #@! TO.N,/EM_MODE*
X129540000Y-104140000D02*
X129540000Y-103014700D01*
X129540000Y-103014700D02*
X130189000Y-103014700D01*
X130189000Y-103014700D02*
X133985000Y-99218700D01*
X133985000Y-99218700D02*
X133985000Y-99060000D01*
G04 #@! TO.N,/DEN*
X156210000Y-93980000D02*
X137048700Y-74818700D01*
X137048700Y-74818700D02*
X127065600Y-74818700D01*
X127065600Y-74818700D02*
X123911400Y-77972900D01*
X123911400Y-77972900D02*
X123911400Y-84137800D01*
X123911400Y-84137800D02*
X118674300Y-89374900D01*
X118674300Y-89374900D02*
X111747100Y-89374900D01*
X111747100Y-89374900D02*
X111030400Y-90091600D01*
X111030400Y-90091600D02*
X111030400Y-108937000D01*
X111030400Y-108937000D02*
X112043100Y-109949700D01*
X112043100Y-109949700D02*
X112395000Y-109949700D01*
X112395000Y-111125000D02*
X112395000Y-109949700D01*
G04 #@! TO.N,/M_MON*
X100965000Y-108585000D02*
X102140300Y-108585000D01*
X124460000Y-111760000D02*
X123334700Y-111760000D01*
X123334700Y-111760000D02*
X120247100Y-114847600D01*
X120247100Y-114847600D02*
X108402900Y-114847600D01*
X108402900Y-114847600D02*
X102140300Y-108585000D01*
G04 #@! TO.N,/M_DS1*
X139700000Y-104140000D02*
X139700000Y-103014700D01*
X139700000Y-103014700D02*
X137795000Y-101109700D01*
X137795000Y-101109700D02*
X137795000Y-98684200D01*
X137795000Y-98684200D02*
X137045400Y-97934600D01*
X137045400Y-97934600D02*
X133515500Y-97934600D01*
X133515500Y-97934600D02*
X132570400Y-98879700D01*
X132570400Y-98879700D02*
X132570400Y-99995800D01*
X132570400Y-99995800D02*
X132380800Y-100185400D01*
X132380800Y-100185400D02*
X130510300Y-100185400D01*
X130510300Y-100185400D02*
X129616000Y-99291100D01*
X129616000Y-99291100D02*
X129616000Y-88764600D01*
X129616000Y-88764600D02*
X129654600Y-88726000D01*
G04 #@! TO.N,/D_RDY*
X148050900Y-113918900D02*
X148050900Y-128175800D01*
X148050900Y-128175800D02*
X153225100Y-133350000D01*
X153225100Y-133350000D02*
X154940000Y-133350000D01*
X154940000Y-133350000D02*
X156210000Y-134620000D01*
X128414700Y-111760000D02*
X128414700Y-111568000D01*
X128414700Y-111568000D02*
X122891700Y-106045000D01*
X122891700Y-106045000D02*
X116110300Y-106045000D01*
X114935000Y-106045000D02*
X116110300Y-106045000D01*
X129540000Y-111760000D02*
X128414700Y-111760000D01*
G04 #@! TO.N,/F_DS1*
X128012300Y-119543000D02*
X129540000Y-118015300D01*
X124950300Y-134620000D02*
X124950300Y-134901300D01*
X124950300Y-134901300D02*
X125867300Y-135818300D01*
X125867300Y-135818300D02*
X126858600Y-135818300D01*
X126858600Y-135818300D02*
X127635000Y-135041900D01*
X127635000Y-135041900D02*
X127635000Y-119920300D01*
X127635000Y-119920300D02*
X128012300Y-119543000D01*
X128012300Y-119543000D02*
X125730000Y-117260800D01*
X125730000Y-117260800D02*
X125730000Y-111435600D01*
X125730000Y-111435600D02*
X121514700Y-107220300D01*
X121514700Y-107220300D02*
X114378200Y-107220300D01*
X114378200Y-107220300D02*
X113570300Y-106412400D01*
X113570300Y-106412400D02*
X113570300Y-106045000D01*
X112395000Y-106045000D02*
X113570300Y-106045000D01*
X129540000Y-116840000D02*
X129540000Y-118015300D01*
X123825000Y-134620000D02*
X124950300Y-134620000D01*
G04 #@! TO.N,/F_DS0*
X140970000Y-116840000D02*
X140970000Y-111405100D01*
X140970000Y-111405100D02*
X139324300Y-109759400D01*
X139324300Y-109759400D02*
X138571000Y-109759400D01*
X138571000Y-109759400D02*
X133314700Y-104503100D01*
X133314700Y-104503100D02*
X133314700Y-102407500D01*
X140970000Y-117427600D02*
X140970000Y-116840000D01*
X140970000Y-117427600D02*
X140970000Y-118015300D01*
X140970000Y-118015300D02*
X140970000Y-127266500D01*
X140970000Y-127266500D02*
X140111100Y-128125400D01*
X140111100Y-128125400D02*
X138102800Y-128125400D01*
X138102800Y-128125400D02*
X137939600Y-127962200D01*
X137939600Y-127962200D02*
X137939600Y-126819700D01*
X137939600Y-126819700D02*
X136994500Y-125874600D01*
X136994500Y-125874600D02*
X133450900Y-125874600D01*
X133450900Y-125874600D02*
X132570300Y-126755200D01*
X132570300Y-126755200D02*
X132570300Y-132369400D01*
X132570300Y-132369400D02*
X131445000Y-133494700D01*
X131445000Y-134620000D02*
X131445000Y-133494700D01*
G04 #@! TO.N,/X_DS1*
X156210000Y-106680000D02*
X154940000Y-107950000D01*
X154940000Y-107950000D02*
X152994100Y-107950000D01*
X152994100Y-107950000D02*
X147325600Y-113618500D01*
X147325600Y-113618500D02*
X147325600Y-114219300D01*
X147325600Y-114219300D02*
X147522900Y-114416600D01*
X147522900Y-114416600D02*
X147522900Y-130579300D01*
X147522900Y-130579300D02*
X143405500Y-134696700D01*
X143405500Y-134696700D02*
X142280500Y-134696700D01*
X142280500Y-134696700D02*
X136525000Y-128941200D01*
X136525000Y-128941200D02*
X136525000Y-127000000D01*
X124460000Y-116840000D02*
X124460000Y-118015300D01*
X126365000Y-134620000D02*
X126365000Y-133494700D01*
X126365000Y-133494700D02*
X125188100Y-132317800D01*
X125188100Y-132317800D02*
X125188100Y-118743400D01*
X125188100Y-118743400D02*
X124460000Y-118015300D01*
G04 #@! TO.N,/X_DS0*
X135890000Y-116840000D02*
X135890000Y-110980400D01*
X135890000Y-110980400D02*
X136123100Y-110747300D01*
X131445000Y-125874700D02*
X135890000Y-121429700D01*
X135890000Y-121429700D02*
X135890000Y-116840000D01*
X131445000Y-127000000D02*
X131445000Y-125874700D01*
G04 #@! TO.N,/D_DS0*
X133985000Y-127000000D02*
X133985000Y-128125300D01*
X133985000Y-128125300D02*
X134976300Y-128125300D01*
X134976300Y-128125300D02*
X143877300Y-137026300D01*
X143877300Y-137026300D02*
X169462200Y-137026300D01*
X169462200Y-137026300D02*
X171450000Y-135038500D01*
X171450000Y-135038500D02*
X171450000Y-105410000D01*
X171450000Y-105410000D02*
X172720000Y-104140000D01*
G04 #@! TO.N,/D_DS1*
X139065000Y-125874700D02*
X139700000Y-125239700D01*
X139700000Y-125239700D02*
X139700000Y-114367400D01*
X139065000Y-127000000D02*
X139065000Y-125874700D01*
G04 #@! TO.N,/CTL_MODE*
X128905000Y-127000000D02*
X128905000Y-125874700D01*
X136525000Y-99060000D02*
X135399700Y-99060000D01*
X135399700Y-99060000D02*
X135399700Y-99282300D01*
X135399700Y-99282300D02*
X131667300Y-103014700D01*
X131667300Y-103014700D02*
X131538300Y-103014700D01*
X131538300Y-103014700D02*
X130920100Y-103632900D01*
X130920100Y-103632900D02*
X130920100Y-104785900D01*
X130920100Y-104785900D02*
X133237500Y-107103300D01*
X133237500Y-107103300D02*
X133237500Y-121542200D01*
X133237500Y-121542200D02*
X128905000Y-125874700D01*
X133985000Y-134620000D02*
X132859700Y-134620000D01*
X128905000Y-127000000D02*
X128905000Y-128125300D01*
X128905000Y-128125300D02*
X130030300Y-129250600D01*
X130030300Y-129250600D02*
X130030300Y-134797100D01*
X130030300Y-134797100D02*
X130978500Y-135745300D01*
X130978500Y-135745300D02*
X132015800Y-135745300D01*
X132015800Y-135745300D02*
X132859700Y-134901400D01*
X132859700Y-134901400D02*
X132859700Y-134620000D01*
G04 #@! TO.N,Net-(JP2-Pad2)*
X132080000Y-104140000D02*
X132080000Y-105265300D01*
X132080000Y-105265300D02*
X132361300Y-105265300D01*
X132361300Y-105265300D02*
X138430000Y-111334000D01*
X138430000Y-111334000D02*
X138430000Y-116840000D01*
G04 #@! TO.N,Net-(JP3-Pad2)*
X127000000Y-116840000D02*
X127000000Y-115664700D01*
X131920100Y-107362200D02*
X130721300Y-108561000D01*
X130721300Y-108561000D02*
X130721300Y-112237200D01*
X130721300Y-112237200D02*
X127293800Y-115664700D01*
X127293800Y-115664700D02*
X127000000Y-115664700D01*
G04 #@! TO.N,Net-(R1-Pad1)*
X131445000Y-99060000D02*
X131445000Y-97934700D01*
X127635000Y-83820000D02*
X128800100Y-82654900D01*
X128800100Y-82654900D02*
X133157900Y-82654900D01*
X133157900Y-82654900D02*
X133919000Y-83416000D01*
X133919000Y-83416000D02*
X133919000Y-85652000D01*
X133919000Y-85652000D02*
X130066400Y-89504600D01*
X130066400Y-89504600D02*
X130066400Y-96556100D01*
X130066400Y-96556100D02*
X131445000Y-97934700D01*
G04 #@! TO.N,/F_MS0*
X121429700Y-83820000D02*
X116484100Y-88765600D01*
X116484100Y-88765600D02*
X111719500Y-88765600D01*
X111719500Y-88765600D02*
X110580100Y-89905000D01*
X110580100Y-89905000D02*
X110580100Y-111042100D01*
X110580100Y-111042100D02*
X112027700Y-112489700D01*
X112027700Y-112489700D02*
X112395000Y-112489700D01*
X122555000Y-83820000D02*
X121429700Y-83820000D01*
X112395000Y-113665000D02*
X112395000Y-112489700D01*
G04 #@! TO.N,/D_HL*
X162740000Y-92710000D02*
X162740000Y-91534700D01*
X162740000Y-91534700D02*
X161932000Y-91534700D01*
X161932000Y-91534700D02*
X159385000Y-88987700D01*
X159385000Y-88987700D02*
X159385000Y-83185000D01*
G04 #@! TO.N,/F_MS1*
X153670000Y-96520000D02*
X146875200Y-103314800D01*
X146875200Y-103314800D02*
X146875200Y-119244300D01*
X146875200Y-119244300D02*
X146735300Y-119384200D01*
G04 #@! TO.N,/DS1INH*
X133985000Y-91440000D02*
X133985000Y-90314700D01*
X133985000Y-90314700D02*
X134369400Y-89930300D01*
X134369400Y-89930300D02*
X134369400Y-78979700D01*
X134369400Y-78979700D02*
X132715000Y-77325300D01*
X132715000Y-76200000D02*
X132715000Y-77325300D01*
G04 #@! TD*
D20*
G04 #@! TO.N,GND*
X183490001Y-143485000D02*
X88925000Y-143485000D01*
X88925000Y-136525000D01*
X89408000Y-136525000D01*
X89408000Y-142875000D01*
X89410440Y-142899776D01*
X89417667Y-142923601D01*
X89429403Y-142945557D01*
X89445197Y-142964803D01*
X89464443Y-142980597D01*
X89486399Y-142992333D01*
X89510224Y-142999560D01*
X89535000Y-143002000D01*
X95885000Y-143002000D01*
X95909776Y-142999560D01*
X95933601Y-142992333D01*
X95955557Y-142980597D01*
X95974803Y-142964803D01*
X95990597Y-142945557D01*
X96002333Y-142923601D01*
X96009560Y-142899776D01*
X96012000Y-142875000D01*
X96012000Y-136525000D01*
X96009560Y-136500224D01*
X96002333Y-136476399D01*
X95990597Y-136454443D01*
X95974803Y-136435197D01*
X95955557Y-136419403D01*
X95933601Y-136407667D01*
X95909776Y-136400440D01*
X95885000Y-136398000D01*
X89535000Y-136398000D01*
X89510224Y-136400440D01*
X89486399Y-136407667D01*
X89464443Y-136419403D01*
X89445197Y-136435197D01*
X89429403Y-136454443D01*
X89417667Y-136476399D01*
X89410440Y-136500224D01*
X89408000Y-136525000D01*
X88925000Y-136525000D01*
X88925000Y-134341890D01*
X96983524Y-134341890D01*
X97028175Y-134489099D01*
X97153359Y-134751920D01*
X97327412Y-134985269D01*
X97543645Y-135180178D01*
X97793748Y-135329157D01*
X98068109Y-135426481D01*
X98298000Y-135305814D01*
X98298000Y-134112000D01*
X97104845Y-134112000D01*
X96983524Y-134341890D01*
X88925000Y-134341890D01*
X88925000Y-131801890D01*
X96983524Y-131801890D01*
X97028175Y-131949099D01*
X97153359Y-132211920D01*
X97327412Y-132445269D01*
X97543645Y-132640178D01*
X97669255Y-132715000D01*
X97543645Y-132789822D01*
X97327412Y-132984731D01*
X97153359Y-133218080D01*
X97028175Y-133480901D01*
X96983524Y-133628110D01*
X97104845Y-133858000D01*
X98298000Y-133858000D01*
X98298000Y-131572000D01*
X97104845Y-131572000D01*
X96983524Y-131801890D01*
X88925000Y-131801890D01*
X88925000Y-129261890D01*
X96983524Y-129261890D01*
X97028175Y-129409099D01*
X97153359Y-129671920D01*
X97327412Y-129905269D01*
X97543645Y-130100178D01*
X97669255Y-130175000D01*
X97543645Y-130249822D01*
X97327412Y-130444731D01*
X97153359Y-130678080D01*
X97028175Y-130940901D01*
X96983524Y-131088110D01*
X97104845Y-131318000D01*
X98298000Y-131318000D01*
X98298000Y-129032000D01*
X97104845Y-129032000D01*
X96983524Y-129261890D01*
X88925000Y-129261890D01*
X88925000Y-126721890D01*
X96983524Y-126721890D01*
X97028175Y-126869099D01*
X97153359Y-127131920D01*
X97327412Y-127365269D01*
X97543645Y-127560178D01*
X97669255Y-127635000D01*
X97543645Y-127709822D01*
X97327412Y-127904731D01*
X97153359Y-128138080D01*
X97028175Y-128400901D01*
X96983524Y-128548110D01*
X97104845Y-128778000D01*
X98298000Y-128778000D01*
X98298000Y-126492000D01*
X97104845Y-126492000D01*
X96983524Y-126721890D01*
X88925000Y-126721890D01*
X88925000Y-124181890D01*
X96983524Y-124181890D01*
X97028175Y-124329099D01*
X97153359Y-124591920D01*
X97327412Y-124825269D01*
X97543645Y-125020178D01*
X97669255Y-125095000D01*
X97543645Y-125169822D01*
X97327412Y-125364731D01*
X97153359Y-125598080D01*
X97028175Y-125860901D01*
X96983524Y-126008110D01*
X97104845Y-126238000D01*
X98298000Y-126238000D01*
X98298000Y-123952000D01*
X97104845Y-123952000D01*
X96983524Y-124181890D01*
X88925000Y-124181890D01*
X88925000Y-121641890D01*
X96983524Y-121641890D01*
X97028175Y-121789099D01*
X97153359Y-122051920D01*
X97327412Y-122285269D01*
X97543645Y-122480178D01*
X97669255Y-122555000D01*
X97543645Y-122629822D01*
X97327412Y-122824731D01*
X97153359Y-123058080D01*
X97028175Y-123320901D01*
X96983524Y-123468110D01*
X97104845Y-123698000D01*
X98298000Y-123698000D01*
X98298000Y-121412000D01*
X97104845Y-121412000D01*
X96983524Y-121641890D01*
X88925000Y-121641890D01*
X88925000Y-98344679D01*
X96790000Y-98344679D01*
X96790001Y-100884669D01*
X96790000Y-100884679D01*
X96790001Y-103585322D01*
X96813658Y-103825516D01*
X96907149Y-104133715D01*
X97058970Y-104417752D01*
X97263287Y-104666714D01*
X97510809Y-104869849D01*
X97478368Y-104891525D01*
X97271525Y-105098368D01*
X97109010Y-105341589D01*
X96997068Y-105611842D01*
X96940000Y-105898740D01*
X96940000Y-106191260D01*
X96997068Y-106478158D01*
X97109010Y-106748411D01*
X97271525Y-106991632D01*
X97478368Y-107198475D01*
X97652760Y-107315000D01*
X97478368Y-107431525D01*
X97271525Y-107638368D01*
X97109010Y-107881589D01*
X96997068Y-108151842D01*
X96940000Y-108438740D01*
X96940000Y-108731260D01*
X96997068Y-109018158D01*
X97109010Y-109288411D01*
X97271525Y-109531632D01*
X97478368Y-109738475D01*
X97652760Y-109855000D01*
X97478368Y-109971525D01*
X97271525Y-110178368D01*
X97109010Y-110421589D01*
X96997068Y-110691842D01*
X96940000Y-110978740D01*
X96940000Y-111271260D01*
X96997068Y-111558158D01*
X97109010Y-111828411D01*
X97271525Y-112071632D01*
X97478368Y-112278475D01*
X97652760Y-112395000D01*
X97478368Y-112511525D01*
X97271525Y-112718368D01*
X97109010Y-112961589D01*
X96997068Y-113231842D01*
X96940000Y-113518740D01*
X96940000Y-113811260D01*
X96997068Y-114098158D01*
X97109010Y-114368411D01*
X97271525Y-114611632D01*
X97478368Y-114818475D01*
X97652760Y-114935000D01*
X97478368Y-115051525D01*
X97271525Y-115258368D01*
X97109010Y-115501589D01*
X96997068Y-115771842D01*
X96940000Y-116058740D01*
X96940000Y-116351260D01*
X96997068Y-116638158D01*
X97109010Y-116908411D01*
X97271525Y-117151632D01*
X97478368Y-117358475D01*
X97652760Y-117475000D01*
X97478368Y-117591525D01*
X97271525Y-117798368D01*
X97109010Y-118041589D01*
X96997068Y-118311842D01*
X96940000Y-118598740D01*
X96940000Y-118891260D01*
X96997068Y-119178158D01*
X97109010Y-119448411D01*
X97271525Y-119691632D01*
X97478368Y-119898475D01*
X97660534Y-120020195D01*
X97543645Y-120089822D01*
X97327412Y-120284731D01*
X97153359Y-120518080D01*
X97028175Y-120780901D01*
X96983524Y-120928110D01*
X97104845Y-121158000D01*
X98298000Y-121158000D01*
X98298000Y-121138000D01*
X98552000Y-121138000D01*
X98552000Y-121158000D01*
X98572000Y-121158000D01*
X98572000Y-121412000D01*
X98552000Y-121412000D01*
X98552000Y-123698000D01*
X98572000Y-123698000D01*
X98572000Y-123952000D01*
X98552000Y-123952000D01*
X98552000Y-126238000D01*
X98572000Y-126238000D01*
X98572000Y-126492000D01*
X98552000Y-126492000D01*
X98552000Y-128778000D01*
X98572000Y-128778000D01*
X98572000Y-129032000D01*
X98552000Y-129032000D01*
X98552000Y-131318000D01*
X98572000Y-131318000D01*
X98572000Y-131572000D01*
X98552000Y-131572000D01*
X98552000Y-133858000D01*
X98572000Y-133858000D01*
X98572000Y-134112000D01*
X98552000Y-134112000D01*
X98552000Y-135305814D01*
X98781891Y-135426481D01*
X99056252Y-135329157D01*
X99306355Y-135180178D01*
X99522588Y-134985269D01*
X99693900Y-134755594D01*
X99811525Y-134931632D01*
X100018368Y-135138475D01*
X100261589Y-135300990D01*
X100531842Y-135412932D01*
X100818740Y-135470000D01*
X101111260Y-135470000D01*
X101398158Y-135412932D01*
X101668411Y-135300990D01*
X101911632Y-135138475D01*
X102118475Y-134931632D01*
X102280990Y-134688411D01*
X102392932Y-134418158D01*
X102408102Y-134341890D01*
X110953524Y-134341890D01*
X110998175Y-134489099D01*
X111123359Y-134751920D01*
X111297412Y-134985269D01*
X111513645Y-135180178D01*
X111763748Y-135329157D01*
X112038109Y-135426481D01*
X112268000Y-135305814D01*
X112268000Y-134112000D01*
X111074845Y-134112000D01*
X110953524Y-134341890D01*
X102408102Y-134341890D01*
X102450000Y-134131260D01*
X102450000Y-133838740D01*
X102392932Y-133551842D01*
X102280990Y-133281589D01*
X102118475Y-133038368D01*
X101911632Y-132831525D01*
X101737240Y-132715000D01*
X101911632Y-132598475D01*
X102065303Y-132444804D01*
X102751801Y-133131303D01*
X102775599Y-133160301D01*
X102891324Y-133255274D01*
X103023353Y-133325846D01*
X103166614Y-133369303D01*
X103278267Y-133380300D01*
X103278276Y-133380300D01*
X103315599Y-133383976D01*
X103352922Y-133380300D01*
X111046092Y-133380300D01*
X110998175Y-133480901D01*
X110953524Y-133628110D01*
X111074845Y-133858000D01*
X112268000Y-133858000D01*
X112268000Y-133838000D01*
X112522000Y-133838000D01*
X112522000Y-133858000D01*
X112542000Y-133858000D01*
X112542000Y-134112000D01*
X112522000Y-134112000D01*
X112522000Y-135305814D01*
X112751891Y-135426481D01*
X113026252Y-135329157D01*
X113276355Y-135180178D01*
X113492588Y-134985269D01*
X113663900Y-134755594D01*
X113781525Y-134931632D01*
X113988368Y-135138475D01*
X114231589Y-135300990D01*
X114501842Y-135412932D01*
X114788740Y-135470000D01*
X115081260Y-135470000D01*
X115368158Y-135412932D01*
X115638411Y-135300990D01*
X115881632Y-135138475D01*
X116088475Y-134931632D01*
X116250990Y-134688411D01*
X116362932Y-134418158D01*
X116420000Y-134131260D01*
X116420000Y-133838740D01*
X116362932Y-133551842D01*
X116250990Y-133281589D01*
X116088475Y-133038368D01*
X115881632Y-132831525D01*
X115707240Y-132715000D01*
X115881632Y-132598475D01*
X116088475Y-132391632D01*
X116250990Y-132148411D01*
X116362932Y-131878158D01*
X116420000Y-131591260D01*
X116420000Y-131298740D01*
X116362932Y-131011842D01*
X116250990Y-130741589D01*
X116088475Y-130498368D01*
X115881632Y-130291525D01*
X115707240Y-130175000D01*
X115881632Y-130058475D01*
X116088475Y-129851632D01*
X116250990Y-129608411D01*
X116362932Y-129338158D01*
X116420000Y-129051260D01*
X116420000Y-128758740D01*
X116362932Y-128471842D01*
X116250990Y-128201589D01*
X116088475Y-127958368D01*
X115881632Y-127751525D01*
X115707240Y-127635000D01*
X115881632Y-127518475D01*
X116051067Y-127349040D01*
X122433091Y-127349040D01*
X122527930Y-127613881D01*
X122672615Y-127855131D01*
X122861586Y-128063519D01*
X123087580Y-128231037D01*
X123341913Y-128351246D01*
X123475961Y-128391904D01*
X123698000Y-128269915D01*
X123698000Y-127127000D01*
X122554376Y-127127000D01*
X122433091Y-127349040D01*
X116051067Y-127349040D01*
X116088475Y-127311632D01*
X116250990Y-127068411D01*
X116362932Y-126798158D01*
X116392211Y-126650960D01*
X122433091Y-126650960D01*
X122554376Y-126873000D01*
X123698000Y-126873000D01*
X123698000Y-125730085D01*
X123475961Y-125608096D01*
X123341913Y-125648754D01*
X123087580Y-125768963D01*
X122861586Y-125936481D01*
X122672615Y-126144869D01*
X122527930Y-126386119D01*
X122433091Y-126650960D01*
X116392211Y-126650960D01*
X116420000Y-126511260D01*
X116420000Y-126218740D01*
X116362932Y-125931842D01*
X116250990Y-125661589D01*
X116088475Y-125418368D01*
X115881632Y-125211525D01*
X115707240Y-125095000D01*
X115881632Y-124978475D01*
X116088475Y-124771632D01*
X116250990Y-124528411D01*
X116362932Y-124258158D01*
X116420000Y-123971260D01*
X116420000Y-123678740D01*
X116362932Y-123391842D01*
X116250990Y-123121589D01*
X116088475Y-122878368D01*
X115881632Y-122671525D01*
X115707240Y-122555000D01*
X115881632Y-122438475D01*
X116088475Y-122231632D01*
X116250990Y-121988411D01*
X116362932Y-121718158D01*
X116420000Y-121431260D01*
X116420000Y-121138740D01*
X116362932Y-120851842D01*
X116250990Y-120581589D01*
X116088475Y-120338368D01*
X115881632Y-120131525D01*
X115707240Y-120015000D01*
X115881632Y-119898475D01*
X116088475Y-119691632D01*
X116250990Y-119448411D01*
X116362932Y-119178158D01*
X116420000Y-118891260D01*
X116420000Y-118598740D01*
X116362932Y-118311842D01*
X116250990Y-118041589D01*
X116088475Y-117798368D01*
X115881632Y-117591525D01*
X115707240Y-117475000D01*
X115881632Y-117358475D01*
X116088475Y-117151632D01*
X116250990Y-116908411D01*
X116362932Y-116638158D01*
X116420000Y-116351260D01*
X116420000Y-116058740D01*
X116362932Y-115771842D01*
X116294901Y-115607600D01*
X120209778Y-115607600D01*
X120247100Y-115611276D01*
X120284422Y-115607600D01*
X120284433Y-115607600D01*
X120396086Y-115596603D01*
X120539347Y-115553146D01*
X120671376Y-115482574D01*
X120787101Y-115387601D01*
X120810904Y-115358597D01*
X123420053Y-112749449D01*
X123545241Y-112874637D01*
X123780273Y-113031680D01*
X124041426Y-113139853D01*
X124318665Y-113195000D01*
X124601335Y-113195000D01*
X124878574Y-113139853D01*
X124970001Y-113101983D01*
X124970000Y-115443897D01*
X124893158Y-115412068D01*
X124606260Y-115355000D01*
X124313740Y-115355000D01*
X124026842Y-115412068D01*
X123756589Y-115524010D01*
X123513368Y-115686525D01*
X123306525Y-115893368D01*
X123144010Y-116136589D01*
X123032068Y-116406842D01*
X122975000Y-116693740D01*
X122975000Y-116986260D01*
X123032068Y-117273158D01*
X123144010Y-117543411D01*
X123306525Y-117786632D01*
X123513368Y-117993475D01*
X123706912Y-118122797D01*
X123710998Y-118164286D01*
X123722863Y-118203399D01*
X123754454Y-118307546D01*
X123825026Y-118439576D01*
X123896201Y-118526302D01*
X123920000Y-118555301D01*
X123948998Y-118579099D01*
X124428101Y-119058203D01*
X124428100Y-125705478D01*
X124308087Y-125648754D01*
X124174039Y-125608096D01*
X123952000Y-125730085D01*
X123952000Y-126873000D01*
X123972000Y-126873000D01*
X123972000Y-127127000D01*
X123952000Y-127127000D01*
X123952000Y-128269915D01*
X124174039Y-128391904D01*
X124308087Y-128351246D01*
X124428100Y-128294522D01*
X124428100Y-132280478D01*
X124424424Y-132317800D01*
X124428100Y-132355122D01*
X124428100Y-132355132D01*
X124439097Y-132466785D01*
X124475358Y-132586324D01*
X124482554Y-132610046D01*
X124553126Y-132742076D01*
X124575456Y-132769285D01*
X124648099Y-132857801D01*
X124677103Y-132881604D01*
X125375551Y-133580053D01*
X125250363Y-133705241D01*
X125132813Y-133881167D01*
X125099286Y-133870997D01*
X125046947Y-133865842D01*
X124939637Y-133705241D01*
X124739759Y-133505363D01*
X124504727Y-133348320D01*
X124243574Y-133240147D01*
X123966335Y-133185000D01*
X123683665Y-133185000D01*
X123406426Y-133240147D01*
X123145273Y-133348320D01*
X122910241Y-133505363D01*
X122710363Y-133705241D01*
X122553320Y-133940273D01*
X122445147Y-134201426D01*
X122390000Y-134478665D01*
X122390000Y-134761335D01*
X122445147Y-135038574D01*
X122553320Y-135299727D01*
X122710363Y-135534759D01*
X122910241Y-135734637D01*
X123145273Y-135891680D01*
X123406426Y-135999853D01*
X123683665Y-136055000D01*
X123966335Y-136055000D01*
X124243574Y-135999853D01*
X124504727Y-135891680D01*
X124721222Y-135747023D01*
X125303501Y-136329303D01*
X125327299Y-136358301D01*
X125443024Y-136453274D01*
X125575053Y-136523846D01*
X125718314Y-136567303D01*
X125829967Y-136578300D01*
X125829977Y-136578300D01*
X125867300Y-136581976D01*
X125904623Y-136578300D01*
X126821278Y-136578300D01*
X126858600Y-136581976D01*
X126895922Y-136578300D01*
X126895933Y-136578300D01*
X127007586Y-136567303D01*
X127150847Y-136523846D01*
X127282876Y-136453274D01*
X127398601Y-136358301D01*
X127422403Y-136329298D01*
X128006321Y-135745381D01*
X128225273Y-135891680D01*
X128486426Y-135999853D01*
X128763665Y-136055000D01*
X129046335Y-136055000D01*
X129323574Y-135999853D01*
X129584727Y-135891680D01*
X129819759Y-135734637D01*
X129856397Y-135697999D01*
X130414701Y-136256303D01*
X130438499Y-136285301D01*
X130554224Y-136380274D01*
X130686253Y-136450846D01*
X130829514Y-136494303D01*
X130941167Y-136505300D01*
X130941176Y-136505300D01*
X130978499Y-136508976D01*
X131015822Y-136505300D01*
X131978478Y-136505300D01*
X132015800Y-136508976D01*
X132053122Y-136505300D01*
X132053133Y-136505300D01*
X132164786Y-136494303D01*
X132308047Y-136450846D01*
X132440076Y-136380274D01*
X132555801Y-136285301D01*
X132579603Y-136256298D01*
X133088838Y-135747063D01*
X133305273Y-135891680D01*
X133566426Y-135999853D01*
X133843665Y-136055000D01*
X134126335Y-136055000D01*
X134403574Y-135999853D01*
X134664727Y-135891680D01*
X134899759Y-135734637D01*
X135099637Y-135534759D01*
X135255000Y-135302241D01*
X135410363Y-135534759D01*
X135610241Y-135734637D01*
X135845273Y-135891680D01*
X136106426Y-135999853D01*
X136383665Y-136055000D01*
X136666335Y-136055000D01*
X136943574Y-135999853D01*
X137204727Y-135891680D01*
X137439759Y-135734637D01*
X137639637Y-135534759D01*
X137795000Y-135302241D01*
X137950363Y-135534759D01*
X138150241Y-135734637D01*
X138385273Y-135891680D01*
X138646426Y-135999853D01*
X138923665Y-136055000D01*
X139206335Y-136055000D01*
X139483574Y-135999853D01*
X139744727Y-135891680D01*
X139979759Y-135734637D01*
X140179637Y-135534759D01*
X140336680Y-135299727D01*
X140444853Y-135038574D01*
X140500000Y-134761335D01*
X140500000Y-134723802D01*
X143313501Y-137537303D01*
X143337299Y-137566301D01*
X143366297Y-137590099D01*
X143453023Y-137661274D01*
X143585053Y-137731846D01*
X143728314Y-137775303D01*
X143839967Y-137786300D01*
X143839977Y-137786300D01*
X143877300Y-137789976D01*
X143914623Y-137786300D01*
X169424878Y-137786300D01*
X169462200Y-137789976D01*
X169499522Y-137786300D01*
X169499533Y-137786300D01*
X169611186Y-137775303D01*
X169754447Y-137731846D01*
X169886476Y-137661274D01*
X170002201Y-137566301D01*
X170026004Y-137537297D01*
X171038301Y-136525000D01*
X176403000Y-136525000D01*
X176403000Y-142875000D01*
X176405440Y-142899776D01*
X176412667Y-142923601D01*
X176424403Y-142945557D01*
X176440197Y-142964803D01*
X176459443Y-142980597D01*
X176481399Y-142992333D01*
X176505224Y-142999560D01*
X176530000Y-143002000D01*
X182880000Y-143002000D01*
X182904776Y-142999560D01*
X182928601Y-142992333D01*
X182950557Y-142980597D01*
X182969803Y-142964803D01*
X182985597Y-142945557D01*
X182997333Y-142923601D01*
X183004560Y-142899776D01*
X183007000Y-142875000D01*
X183007000Y-136525000D01*
X183004560Y-136500224D01*
X182997333Y-136476399D01*
X182985597Y-136454443D01*
X182969803Y-136435197D01*
X182950557Y-136419403D01*
X182928601Y-136407667D01*
X182904776Y-136400440D01*
X182880000Y-136398000D01*
X176530000Y-136398000D01*
X176505224Y-136400440D01*
X176481399Y-136407667D01*
X176459443Y-136419403D01*
X176440197Y-136435197D01*
X176424403Y-136454443D01*
X176412667Y-136476399D01*
X176405440Y-136500224D01*
X176403000Y-136525000D01*
X171038301Y-136525000D01*
X171783234Y-135780068D01*
X172016589Y-135935990D01*
X172286842Y-136047932D01*
X172573740Y-136105000D01*
X172866260Y-136105000D01*
X173153158Y-136047932D01*
X173423411Y-135935990D01*
X173666632Y-135773475D01*
X173873475Y-135566632D01*
X174035990Y-135323411D01*
X174147932Y-135053158D01*
X174205000Y-134766260D01*
X174205000Y-134473740D01*
X174147932Y-134186842D01*
X174035990Y-133916589D01*
X173873475Y-133673368D01*
X173666632Y-133466525D01*
X173492240Y-133350000D01*
X173666632Y-133233475D01*
X173873475Y-133026632D01*
X174035990Y-132783411D01*
X174147932Y-132513158D01*
X174205000Y-132226260D01*
X174205000Y-131933740D01*
X174147932Y-131646842D01*
X174035990Y-131376589D01*
X173873475Y-131133368D01*
X173666632Y-130926525D01*
X173492240Y-130810000D01*
X173666632Y-130693475D01*
X173873475Y-130486632D01*
X174035990Y-130243411D01*
X174147932Y-129973158D01*
X174205000Y-129686260D01*
X174205000Y-129393740D01*
X174147932Y-129106842D01*
X174035990Y-128836589D01*
X173873475Y-128593368D01*
X173666632Y-128386525D01*
X173492240Y-128270000D01*
X173666632Y-128153475D01*
X173873475Y-127946632D01*
X174035990Y-127703411D01*
X174147932Y-127433158D01*
X174205000Y-127146260D01*
X174205000Y-126853740D01*
X174147932Y-126566842D01*
X174035990Y-126296589D01*
X173873475Y-126053368D01*
X173666632Y-125846525D01*
X173492240Y-125730000D01*
X173666632Y-125613475D01*
X173873475Y-125406632D01*
X174035990Y-125163411D01*
X174147932Y-124893158D01*
X174205000Y-124606260D01*
X174205000Y-124313740D01*
X174147932Y-124026842D01*
X174035990Y-123756589D01*
X173873475Y-123513368D01*
X173666632Y-123306525D01*
X173492240Y-123190000D01*
X173666632Y-123073475D01*
X173873475Y-122866632D01*
X174035990Y-122623411D01*
X174147932Y-122353158D01*
X174205000Y-122066260D01*
X174205000Y-121773740D01*
X174147932Y-121486842D01*
X174035990Y-121216589D01*
X173873475Y-120973368D01*
X173666632Y-120766525D01*
X173492240Y-120650000D01*
X173666632Y-120533475D01*
X173873475Y-120326632D01*
X174035990Y-120083411D01*
X174147932Y-119813158D01*
X174205000Y-119526260D01*
X174205000Y-119233740D01*
X174147932Y-118946842D01*
X174035990Y-118676589D01*
X173873475Y-118433368D01*
X173666632Y-118226525D01*
X173492240Y-118110000D01*
X173666632Y-117993475D01*
X173873475Y-117786632D01*
X174035990Y-117543411D01*
X174147932Y-117273158D01*
X174205000Y-116986260D01*
X174205000Y-116693740D01*
X174147932Y-116406842D01*
X174035990Y-116136589D01*
X173873475Y-115893368D01*
X173666632Y-115686525D01*
X173492240Y-115570000D01*
X173666632Y-115453475D01*
X173873475Y-115246632D01*
X174035990Y-115003411D01*
X174147932Y-114733158D01*
X174205000Y-114446260D01*
X174205000Y-114153740D01*
X174147932Y-113866842D01*
X174035990Y-113596589D01*
X173873475Y-113353368D01*
X173666632Y-113146525D01*
X173492240Y-113030000D01*
X173666632Y-112913475D01*
X173873475Y-112706632D01*
X174035990Y-112463411D01*
X174147932Y-112193158D01*
X174205000Y-111906260D01*
X174205000Y-111613740D01*
X174147932Y-111326842D01*
X174035990Y-111056589D01*
X173873475Y-110813368D01*
X173666632Y-110606525D01*
X173492240Y-110490000D01*
X173666632Y-110373475D01*
X173873475Y-110166632D01*
X174035990Y-109923411D01*
X174147932Y-109653158D01*
X174205000Y-109366260D01*
X174205000Y-109073740D01*
X174147932Y-108786842D01*
X174035990Y-108516589D01*
X173873475Y-108273368D01*
X173666632Y-108066525D01*
X173492240Y-107950000D01*
X173666632Y-107833475D01*
X173873475Y-107626632D01*
X174035990Y-107383411D01*
X174147932Y-107113158D01*
X174205000Y-106826260D01*
X174205000Y-106533740D01*
X174147932Y-106246842D01*
X174035990Y-105976589D01*
X173873475Y-105733368D01*
X173666632Y-105526525D01*
X173492240Y-105410000D01*
X173666632Y-105293475D01*
X173873475Y-105086632D01*
X174035990Y-104843411D01*
X174147932Y-104573158D01*
X174205000Y-104286260D01*
X174205000Y-103993740D01*
X174147932Y-103706842D01*
X174035990Y-103436589D01*
X173873475Y-103193368D01*
X173666632Y-102986525D01*
X173492240Y-102870000D01*
X173666632Y-102753475D01*
X173873475Y-102546632D01*
X174035990Y-102303411D01*
X174147932Y-102033158D01*
X174205000Y-101746260D01*
X174205000Y-101453740D01*
X174147932Y-101166842D01*
X174035990Y-100896589D01*
X173873475Y-100653368D01*
X173666632Y-100446525D01*
X173492240Y-100330000D01*
X173666632Y-100213475D01*
X173873475Y-100006632D01*
X174035990Y-99763411D01*
X174147932Y-99493158D01*
X174205000Y-99206260D01*
X174205000Y-98913740D01*
X174147932Y-98626842D01*
X174035990Y-98356589D01*
X173873475Y-98113368D01*
X173666632Y-97906525D01*
X173492240Y-97790000D01*
X173666632Y-97673475D01*
X173873475Y-97466632D01*
X174035990Y-97223411D01*
X174147932Y-96953158D01*
X174205000Y-96666260D01*
X174205000Y-96373740D01*
X174147932Y-96086842D01*
X174035990Y-95816589D01*
X173873475Y-95573368D01*
X173666632Y-95366525D01*
X173492240Y-95250000D01*
X173666632Y-95133475D01*
X173873475Y-94926632D01*
X174035990Y-94683411D01*
X174147932Y-94413158D01*
X174205000Y-94126260D01*
X174205000Y-93833740D01*
X174147932Y-93546842D01*
X174035990Y-93276589D01*
X173873475Y-93033368D01*
X173666632Y-92826525D01*
X173423411Y-92664010D01*
X173153158Y-92552068D01*
X172866260Y-92495000D01*
X172573740Y-92495000D01*
X172286842Y-92552068D01*
X172016589Y-92664010D01*
X171773368Y-92826525D01*
X171641513Y-92958380D01*
X171619502Y-92885820D01*
X171560537Y-92775506D01*
X171481185Y-92678815D01*
X171384494Y-92599463D01*
X171274180Y-92540498D01*
X171154482Y-92504188D01*
X171030000Y-92491928D01*
X170465750Y-92495000D01*
X170307000Y-92653750D01*
X170307000Y-93853000D01*
X170327000Y-93853000D01*
X170327000Y-94107000D01*
X170307000Y-94107000D01*
X170307000Y-94127000D01*
X170053000Y-94127000D01*
X170053000Y-94107000D01*
X168853750Y-94107000D01*
X168695000Y-94265750D01*
X168691928Y-94830000D01*
X168704188Y-94954482D01*
X168740498Y-95074180D01*
X168799463Y-95184494D01*
X168878815Y-95281185D01*
X168975506Y-95360537D01*
X169085820Y-95419502D01*
X169158380Y-95441513D01*
X169026525Y-95573368D01*
X168864010Y-95816589D01*
X168752068Y-96086842D01*
X168695000Y-96373740D01*
X168695000Y-96666260D01*
X168752068Y-96953158D01*
X168864010Y-97223411D01*
X169026525Y-97466632D01*
X169233368Y-97673475D01*
X169406729Y-97789311D01*
X169331208Y-98031603D01*
X170180000Y-98880395D01*
X171028792Y-98031603D01*
X170953271Y-97789311D01*
X171126632Y-97673475D01*
X171333475Y-97466632D01*
X171450000Y-97292240D01*
X171566525Y-97466632D01*
X171773368Y-97673475D01*
X171947760Y-97790000D01*
X171773368Y-97906525D01*
X171566525Y-98113368D01*
X171450689Y-98286729D01*
X171208397Y-98211208D01*
X170359605Y-99060000D01*
X171208397Y-99908792D01*
X171450689Y-99833271D01*
X171566525Y-100006632D01*
X171773368Y-100213475D01*
X171947760Y-100330000D01*
X171773368Y-100446525D01*
X171566525Y-100653368D01*
X171450000Y-100827760D01*
X171333475Y-100653368D01*
X171126632Y-100446525D01*
X170953271Y-100330689D01*
X171028792Y-100088397D01*
X170180000Y-99239605D01*
X169331208Y-100088397D01*
X169406729Y-100330689D01*
X169233368Y-100446525D01*
X169026525Y-100653368D01*
X168864010Y-100896589D01*
X168752068Y-101166842D01*
X168695000Y-101453740D01*
X168695000Y-101746260D01*
X168752068Y-102033158D01*
X168864010Y-102303411D01*
X169026525Y-102546632D01*
X169233368Y-102753475D01*
X169406729Y-102869311D01*
X169331208Y-103111603D01*
X170180000Y-103960395D01*
X171028792Y-103111603D01*
X170953271Y-102869311D01*
X171126632Y-102753475D01*
X171333475Y-102546632D01*
X171450000Y-102372240D01*
X171566525Y-102546632D01*
X171773368Y-102753475D01*
X171947760Y-102870000D01*
X171773368Y-102986525D01*
X171566525Y-103193368D01*
X171450689Y-103366729D01*
X171208397Y-103291208D01*
X170359605Y-104140000D01*
X170373748Y-104154143D01*
X170194143Y-104333748D01*
X170180000Y-104319605D01*
X169331208Y-105168397D01*
X169406729Y-105410689D01*
X169233368Y-105526525D01*
X169026525Y-105733368D01*
X168864010Y-105976589D01*
X168752068Y-106246842D01*
X168695000Y-106533740D01*
X168695000Y-106826260D01*
X168752068Y-107113158D01*
X168864010Y-107383411D01*
X169026525Y-107626632D01*
X169233368Y-107833475D01*
X169406729Y-107949311D01*
X169331208Y-108191603D01*
X170180000Y-109040395D01*
X170194143Y-109026253D01*
X170373748Y-109205858D01*
X170359605Y-109220000D01*
X170373748Y-109234143D01*
X170194143Y-109413748D01*
X170180000Y-109399605D01*
X169331208Y-110248397D01*
X169406514Y-110490000D01*
X169331208Y-110731603D01*
X170180000Y-111580395D01*
X170194143Y-111566253D01*
X170373748Y-111745858D01*
X170359605Y-111760000D01*
X170373748Y-111774143D01*
X170194143Y-111953748D01*
X170180000Y-111939605D01*
X169331208Y-112788397D01*
X169406729Y-113030689D01*
X169233368Y-113146525D01*
X169026525Y-113353368D01*
X168864010Y-113596589D01*
X168752068Y-113866842D01*
X168695000Y-114153740D01*
X168695000Y-114446260D01*
X168752068Y-114733158D01*
X168864010Y-115003411D01*
X169026525Y-115246632D01*
X169233368Y-115453475D01*
X169406729Y-115569311D01*
X169331208Y-115811603D01*
X170180000Y-116660395D01*
X170194143Y-116646253D01*
X170373748Y-116825858D01*
X170359605Y-116840000D01*
X170373748Y-116854143D01*
X170194143Y-117033748D01*
X170180000Y-117019605D01*
X169331208Y-117868397D01*
X169406514Y-118110000D01*
X169331208Y-118351603D01*
X170180000Y-119200395D01*
X170194143Y-119186253D01*
X170373748Y-119365858D01*
X170359605Y-119380000D01*
X170373748Y-119394143D01*
X170194143Y-119573748D01*
X170180000Y-119559605D01*
X169331208Y-120408397D01*
X169406514Y-120650000D01*
X169331208Y-120891603D01*
X170180000Y-121740395D01*
X170194143Y-121726253D01*
X170373748Y-121905858D01*
X170359605Y-121920000D01*
X170373748Y-121934143D01*
X170194143Y-122113748D01*
X170180000Y-122099605D01*
X169331208Y-122948397D01*
X169406514Y-123190000D01*
X169331208Y-123431603D01*
X170180000Y-124280395D01*
X170194143Y-124266253D01*
X170373748Y-124445858D01*
X170359605Y-124460000D01*
X170373748Y-124474143D01*
X170194143Y-124653748D01*
X170180000Y-124639605D01*
X169331208Y-125488397D01*
X169406514Y-125730000D01*
X169331208Y-125971603D01*
X170180000Y-126820395D01*
X170194143Y-126806253D01*
X170373748Y-126985858D01*
X170359605Y-127000000D01*
X170373748Y-127014143D01*
X170194143Y-127193748D01*
X170180000Y-127179605D01*
X169331208Y-128028397D01*
X169406514Y-128270000D01*
X169331208Y-128511603D01*
X170180000Y-129360395D01*
X170194143Y-129346253D01*
X170373748Y-129525858D01*
X170359605Y-129540000D01*
X170373748Y-129554143D01*
X170194143Y-129733748D01*
X170180000Y-129719605D01*
X169331208Y-130568397D01*
X169406514Y-130810000D01*
X169331208Y-131051603D01*
X170180000Y-131900395D01*
X170194143Y-131886253D01*
X170373748Y-132065858D01*
X170359605Y-132080000D01*
X170373748Y-132094143D01*
X170194143Y-132273748D01*
X170180000Y-132259605D01*
X169331208Y-133108397D01*
X169406729Y-133350689D01*
X169233368Y-133466525D01*
X169026525Y-133673368D01*
X168864010Y-133916589D01*
X168752068Y-134186842D01*
X168695000Y-134473740D01*
X168695000Y-134766260D01*
X168752068Y-135053158D01*
X168864010Y-135323411D01*
X169026525Y-135566632D01*
X169233368Y-135773475D01*
X169476589Y-135935990D01*
X169477381Y-135936318D01*
X169147399Y-136266300D01*
X144192102Y-136266300D01*
X143574199Y-135648397D01*
X152821208Y-135648397D01*
X152898843Y-135897472D01*
X153162883Y-136023371D01*
X153446411Y-136095339D01*
X153738531Y-136110611D01*
X154028019Y-136068599D01*
X154303747Y-135970919D01*
X154441157Y-135897472D01*
X154518792Y-135648397D01*
X153670000Y-134799605D01*
X152821208Y-135648397D01*
X143574199Y-135648397D01*
X143384067Y-135458265D01*
X143405500Y-135460376D01*
X143442822Y-135456700D01*
X143442833Y-135456700D01*
X143554486Y-135445703D01*
X143697747Y-135402246D01*
X143829776Y-135331674D01*
X143945501Y-135236701D01*
X143969304Y-135207697D01*
X148033903Y-131143099D01*
X148062901Y-131119301D01*
X148089232Y-131087217D01*
X148157874Y-131003577D01*
X148228446Y-130871547D01*
X148244849Y-130817472D01*
X148271903Y-130728286D01*
X148282900Y-130616633D01*
X148282900Y-130616623D01*
X148286576Y-130579300D01*
X148282900Y-130541977D01*
X148282900Y-129482601D01*
X152588163Y-133787865D01*
X152392528Y-133848843D01*
X152266629Y-134112883D01*
X152194661Y-134396411D01*
X152179389Y-134688531D01*
X152221401Y-134978019D01*
X152319081Y-135253747D01*
X152392528Y-135391157D01*
X152641603Y-135468792D01*
X153490395Y-134620000D01*
X153476253Y-134605858D01*
X153655858Y-134426253D01*
X153670000Y-134440395D01*
X153684143Y-134426253D01*
X153863748Y-134605858D01*
X153849605Y-134620000D01*
X154698397Y-135468792D01*
X154940689Y-135393271D01*
X155056525Y-135566632D01*
X155263368Y-135773475D01*
X155506589Y-135935990D01*
X155776842Y-136047932D01*
X156063740Y-136105000D01*
X156356260Y-136105000D01*
X156643158Y-136047932D01*
X156913411Y-135935990D01*
X157156632Y-135773475D01*
X157363475Y-135566632D01*
X157525990Y-135323411D01*
X157637932Y-135053158D01*
X157695000Y-134766260D01*
X157695000Y-134473740D01*
X157637932Y-134186842D01*
X157525990Y-133916589D01*
X157363475Y-133673368D01*
X157156632Y-133466525D01*
X156982240Y-133350000D01*
X157156632Y-133233475D01*
X157363475Y-133026632D01*
X157525990Y-132783411D01*
X157637932Y-132513158D01*
X157695000Y-132226260D01*
X157695000Y-132148531D01*
X168689389Y-132148531D01*
X168731401Y-132438019D01*
X168829081Y-132713747D01*
X168902528Y-132851157D01*
X169151603Y-132928792D01*
X170000395Y-132080000D01*
X169151603Y-131231208D01*
X168902528Y-131308843D01*
X168776629Y-131572883D01*
X168704661Y-131856411D01*
X168689389Y-132148531D01*
X157695000Y-132148531D01*
X157695000Y-131933740D01*
X157637932Y-131646842D01*
X157525990Y-131376589D01*
X157363475Y-131133368D01*
X157156632Y-130926525D01*
X156982240Y-130810000D01*
X157156632Y-130693475D01*
X157363475Y-130486632D01*
X157525990Y-130243411D01*
X157637932Y-129973158D01*
X157695000Y-129686260D01*
X157695000Y-129608531D01*
X168689389Y-129608531D01*
X168731401Y-129898019D01*
X168829081Y-130173747D01*
X168902528Y-130311157D01*
X169151603Y-130388792D01*
X170000395Y-129540000D01*
X169151603Y-128691208D01*
X168902528Y-128768843D01*
X168776629Y-129032883D01*
X168704661Y-129316411D01*
X168689389Y-129608531D01*
X157695000Y-129608531D01*
X157695000Y-129393740D01*
X157637932Y-129106842D01*
X157525990Y-128836589D01*
X157363475Y-128593368D01*
X157156632Y-128386525D01*
X156982240Y-128270000D01*
X157156632Y-128153475D01*
X157363475Y-127946632D01*
X157525990Y-127703411D01*
X157637932Y-127433158D01*
X157695000Y-127146260D01*
X157695000Y-127068531D01*
X168689389Y-127068531D01*
X168731401Y-127358019D01*
X168829081Y-127633747D01*
X168902528Y-127771157D01*
X169151603Y-127848792D01*
X170000395Y-127000000D01*
X169151603Y-126151208D01*
X168902528Y-126228843D01*
X168776629Y-126492883D01*
X168704661Y-126776411D01*
X168689389Y-127068531D01*
X157695000Y-127068531D01*
X157695000Y-126853740D01*
X157637932Y-126566842D01*
X157525990Y-126296589D01*
X157363475Y-126053368D01*
X157156632Y-125846525D01*
X156982240Y-125730000D01*
X157156632Y-125613475D01*
X157363475Y-125406632D01*
X157525990Y-125163411D01*
X157637932Y-124893158D01*
X157695000Y-124606260D01*
X157695000Y-124528531D01*
X168689389Y-124528531D01*
X168731401Y-124818019D01*
X168829081Y-125093747D01*
X168902528Y-125231157D01*
X169151603Y-125308792D01*
X170000395Y-124460000D01*
X169151603Y-123611208D01*
X168902528Y-123688843D01*
X168776629Y-123952883D01*
X168704661Y-124236411D01*
X168689389Y-124528531D01*
X157695000Y-124528531D01*
X157695000Y-124313740D01*
X157637932Y-124026842D01*
X157525990Y-123756589D01*
X157363475Y-123513368D01*
X157156632Y-123306525D01*
X156982240Y-123190000D01*
X157156632Y-123073475D01*
X157363475Y-122866632D01*
X157525990Y-122623411D01*
X157637932Y-122353158D01*
X157695000Y-122066260D01*
X157695000Y-121988531D01*
X168689389Y-121988531D01*
X168731401Y-122278019D01*
X168829081Y-122553747D01*
X168902528Y-122691157D01*
X169151603Y-122768792D01*
X170000395Y-121920000D01*
X169151603Y-121071208D01*
X168902528Y-121148843D01*
X168776629Y-121412883D01*
X168704661Y-121696411D01*
X168689389Y-121988531D01*
X157695000Y-121988531D01*
X157695000Y-121773740D01*
X157637932Y-121486842D01*
X157525990Y-121216589D01*
X157363475Y-120973368D01*
X157156632Y-120766525D01*
X156982240Y-120650000D01*
X157156632Y-120533475D01*
X157363475Y-120326632D01*
X157525990Y-120083411D01*
X157637932Y-119813158D01*
X157695000Y-119526260D01*
X157695000Y-119448531D01*
X168689389Y-119448531D01*
X168731401Y-119738019D01*
X168829081Y-120013747D01*
X168902528Y-120151157D01*
X169151603Y-120228792D01*
X170000395Y-119380000D01*
X169151603Y-118531208D01*
X168902528Y-118608843D01*
X168776629Y-118872883D01*
X168704661Y-119156411D01*
X168689389Y-119448531D01*
X157695000Y-119448531D01*
X157695000Y-119233740D01*
X157637932Y-118946842D01*
X157525990Y-118676589D01*
X157363475Y-118433368D01*
X157156632Y-118226525D01*
X156982240Y-118110000D01*
X157156632Y-117993475D01*
X157363475Y-117786632D01*
X157525990Y-117543411D01*
X157637932Y-117273158D01*
X157695000Y-116986260D01*
X157695000Y-116908531D01*
X168689389Y-116908531D01*
X168731401Y-117198019D01*
X168829081Y-117473747D01*
X168902528Y-117611157D01*
X169151603Y-117688792D01*
X170000395Y-116840000D01*
X169151603Y-115991208D01*
X168902528Y-116068843D01*
X168776629Y-116332883D01*
X168704661Y-116616411D01*
X168689389Y-116908531D01*
X157695000Y-116908531D01*
X157695000Y-116693740D01*
X157637932Y-116406842D01*
X157525990Y-116136589D01*
X157363475Y-115893368D01*
X157156632Y-115686525D01*
X156982240Y-115570000D01*
X157156632Y-115453475D01*
X157363475Y-115246632D01*
X157525990Y-115003411D01*
X157637932Y-114733158D01*
X157695000Y-114446260D01*
X157695000Y-114153740D01*
X157637932Y-113866842D01*
X157525990Y-113596589D01*
X157363475Y-113353368D01*
X157156632Y-113146525D01*
X156982240Y-113030000D01*
X157156632Y-112913475D01*
X157363475Y-112706632D01*
X157525990Y-112463411D01*
X157637932Y-112193158D01*
X157695000Y-111906260D01*
X157695000Y-111828531D01*
X168689389Y-111828531D01*
X168731401Y-112118019D01*
X168829081Y-112393747D01*
X168902528Y-112531157D01*
X169151603Y-112608792D01*
X170000395Y-111760000D01*
X169151603Y-110911208D01*
X168902528Y-110988843D01*
X168776629Y-111252883D01*
X168704661Y-111536411D01*
X168689389Y-111828531D01*
X157695000Y-111828531D01*
X157695000Y-111613740D01*
X157637932Y-111326842D01*
X157525990Y-111056589D01*
X157363475Y-110813368D01*
X157156632Y-110606525D01*
X156982240Y-110490000D01*
X157156632Y-110373475D01*
X157363475Y-110166632D01*
X157525990Y-109923411D01*
X157637932Y-109653158D01*
X157695000Y-109366260D01*
X157695000Y-109288531D01*
X168689389Y-109288531D01*
X168731401Y-109578019D01*
X168829081Y-109853747D01*
X168902528Y-109991157D01*
X169151603Y-110068792D01*
X170000395Y-109220000D01*
X169151603Y-108371208D01*
X168902528Y-108448843D01*
X168776629Y-108712883D01*
X168704661Y-108996411D01*
X168689389Y-109288531D01*
X157695000Y-109288531D01*
X157695000Y-109073740D01*
X157637932Y-108786842D01*
X157525990Y-108516589D01*
X157363475Y-108273368D01*
X157156632Y-108066525D01*
X156982240Y-107950000D01*
X157156632Y-107833475D01*
X157363475Y-107626632D01*
X157525990Y-107383411D01*
X157637932Y-107113158D01*
X157695000Y-106826260D01*
X157695000Y-106533740D01*
X157637932Y-106246842D01*
X157525990Y-105976589D01*
X157363475Y-105733368D01*
X157156632Y-105526525D01*
X156982240Y-105410000D01*
X157156632Y-105293475D01*
X157363475Y-105086632D01*
X157525990Y-104843411D01*
X157637932Y-104573158D01*
X157695000Y-104286260D01*
X157695000Y-104208531D01*
X168689389Y-104208531D01*
X168731401Y-104498019D01*
X168829081Y-104773747D01*
X168902528Y-104911157D01*
X169151603Y-104988792D01*
X170000395Y-104140000D01*
X169151603Y-103291208D01*
X168902528Y-103368843D01*
X168776629Y-103632883D01*
X168704661Y-103916411D01*
X168689389Y-104208531D01*
X157695000Y-104208531D01*
X157695000Y-103993740D01*
X157637932Y-103706842D01*
X157525990Y-103436589D01*
X157363475Y-103193368D01*
X157156632Y-102986525D01*
X156982240Y-102870000D01*
X157156632Y-102753475D01*
X157363475Y-102546632D01*
X157525990Y-102303411D01*
X157637932Y-102033158D01*
X157695000Y-101746260D01*
X157695000Y-101453740D01*
X157637932Y-101166842D01*
X157525990Y-100896589D01*
X157363475Y-100653368D01*
X157156632Y-100446525D01*
X156982240Y-100330000D01*
X157156632Y-100213475D01*
X157363475Y-100006632D01*
X157525990Y-99763411D01*
X157637932Y-99493158D01*
X157695000Y-99206260D01*
X157695000Y-99128531D01*
X168689389Y-99128531D01*
X168731401Y-99418019D01*
X168829081Y-99693747D01*
X168902528Y-99831157D01*
X169151603Y-99908792D01*
X170000395Y-99060000D01*
X169151603Y-98211208D01*
X168902528Y-98288843D01*
X168776629Y-98552883D01*
X168704661Y-98836411D01*
X168689389Y-99128531D01*
X157695000Y-99128531D01*
X157695000Y-98913740D01*
X157637932Y-98626842D01*
X157525990Y-98356589D01*
X157363475Y-98113368D01*
X157156632Y-97906525D01*
X156982240Y-97790000D01*
X157156632Y-97673475D01*
X157363475Y-97466632D01*
X157525990Y-97223411D01*
X157637932Y-96953158D01*
X157695000Y-96666260D01*
X157695000Y-96373740D01*
X157637932Y-96086842D01*
X157525990Y-95816589D01*
X157363475Y-95573368D01*
X157156632Y-95366525D01*
X156982240Y-95250000D01*
X157156632Y-95133475D01*
X157363475Y-94926632D01*
X157525990Y-94683411D01*
X157637932Y-94413158D01*
X157695000Y-94126260D01*
X157695000Y-93833740D01*
X157637932Y-93546842D01*
X157525990Y-93276589D01*
X157363475Y-93033368D01*
X157156632Y-92826525D01*
X156913411Y-92664010D01*
X156643158Y-92552068D01*
X156356260Y-92495000D01*
X156063740Y-92495000D01*
X155843592Y-92538790D01*
X145689802Y-82385000D01*
X150326928Y-82385000D01*
X150326928Y-83985000D01*
X150339188Y-84109482D01*
X150375498Y-84229180D01*
X150434463Y-84339494D01*
X150513815Y-84436185D01*
X150610506Y-84515537D01*
X150720820Y-84574502D01*
X150840518Y-84610812D01*
X150965000Y-84623072D01*
X152565000Y-84623072D01*
X152689482Y-84610812D01*
X152809180Y-84574502D01*
X152919494Y-84515537D01*
X153016185Y-84436185D01*
X153095537Y-84339494D01*
X153154502Y-84229180D01*
X153190812Y-84109482D01*
X153203072Y-83985000D01*
X153203072Y-83043665D01*
X157950000Y-83043665D01*
X157950000Y-83326335D01*
X158005147Y-83603574D01*
X158113320Y-83864727D01*
X158270363Y-84099759D01*
X158470241Y-84299637D01*
X158625001Y-84403044D01*
X158625000Y-88950377D01*
X158621324Y-88987700D01*
X158625000Y-89025022D01*
X158625000Y-89025032D01*
X158635997Y-89136685D01*
X158676445Y-89270026D01*
X158679454Y-89279946D01*
X158750026Y-89411976D01*
X158772179Y-89438969D01*
X158844999Y-89527701D01*
X158874003Y-89551504D01*
X161368201Y-92045703D01*
X161391999Y-92074701D01*
X161394834Y-92077027D01*
X161312068Y-92276842D01*
X161255000Y-92563740D01*
X161255000Y-92856260D01*
X161312068Y-93143158D01*
X161424010Y-93413411D01*
X161586525Y-93656632D01*
X161793368Y-93863475D01*
X162036589Y-94025990D01*
X162306842Y-94137932D01*
X162593740Y-94195000D01*
X162886260Y-94195000D01*
X163173158Y-94137932D01*
X163443411Y-94025990D01*
X163686632Y-93863475D01*
X163893475Y-93656632D01*
X164055990Y-93413411D01*
X164167932Y-93143158D01*
X164170549Y-93130000D01*
X168691928Y-93130000D01*
X168695000Y-93694250D01*
X168853750Y-93853000D01*
X170053000Y-93853000D01*
X170053000Y-92653750D01*
X169894250Y-92495000D01*
X169330000Y-92491928D01*
X169205518Y-92504188D01*
X169085820Y-92540498D01*
X168975506Y-92599463D01*
X168878815Y-92678815D01*
X168799463Y-92775506D01*
X168740498Y-92885820D01*
X168704188Y-93005518D01*
X168691928Y-93130000D01*
X164170549Y-93130000D01*
X164225000Y-92856260D01*
X164225000Y-92563740D01*
X164167932Y-92276842D01*
X164055990Y-92006589D01*
X163893475Y-91763368D01*
X163761620Y-91631513D01*
X163834180Y-91609502D01*
X163944494Y-91550537D01*
X164041185Y-91471185D01*
X164120537Y-91374494D01*
X164179502Y-91264180D01*
X164215812Y-91144482D01*
X164228072Y-91020000D01*
X164225000Y-90455750D01*
X164066250Y-90297000D01*
X162867000Y-90297000D01*
X162867000Y-90317000D01*
X162613000Y-90317000D01*
X162613000Y-90297000D01*
X162593000Y-90297000D01*
X162593000Y-90043000D01*
X162613000Y-90043000D01*
X162613000Y-88843750D01*
X162867000Y-88843750D01*
X162867000Y-90043000D01*
X164066250Y-90043000D01*
X164225000Y-89884250D01*
X164228072Y-89320000D01*
X164215812Y-89195518D01*
X164179502Y-89075820D01*
X164120537Y-88965506D01*
X164041185Y-88868815D01*
X163944494Y-88789463D01*
X163834180Y-88730498D01*
X163714482Y-88694188D01*
X163590000Y-88681928D01*
X163025750Y-88685000D01*
X162867000Y-88843750D01*
X162613000Y-88843750D01*
X162454250Y-88685000D01*
X161890000Y-88681928D01*
X161765518Y-88694188D01*
X161645820Y-88730498D01*
X161535506Y-88789463D01*
X161438815Y-88868815D01*
X161359463Y-88965506D01*
X161300498Y-89075820D01*
X161264188Y-89195518D01*
X161251928Y-89320000D01*
X161254445Y-89782344D01*
X160145000Y-88672899D01*
X160145000Y-84403043D01*
X160299759Y-84299637D01*
X160499637Y-84099759D01*
X160656680Y-83864727D01*
X160764853Y-83603574D01*
X160820000Y-83326335D01*
X160820000Y-83043665D01*
X160764853Y-82766426D01*
X160656680Y-82505273D01*
X160499637Y-82270241D01*
X160299759Y-82070363D01*
X160064727Y-81913320D01*
X159803574Y-81805147D01*
X159526335Y-81750000D01*
X159243665Y-81750000D01*
X158966426Y-81805147D01*
X158705273Y-81913320D01*
X158470241Y-82070363D01*
X158270363Y-82270241D01*
X158113320Y-82505273D01*
X158005147Y-82766426D01*
X157950000Y-83043665D01*
X153203072Y-83043665D01*
X153203072Y-82385000D01*
X153190812Y-82260518D01*
X153154502Y-82140820D01*
X153095537Y-82030506D01*
X153016185Y-81933815D01*
X152919494Y-81854463D01*
X152809180Y-81795498D01*
X152689482Y-81759188D01*
X152565000Y-81746928D01*
X150965000Y-81746928D01*
X150840518Y-81759188D01*
X150720820Y-81795498D01*
X150610506Y-81854463D01*
X150513815Y-81933815D01*
X150434463Y-82030506D01*
X150375498Y-82140820D01*
X150339188Y-82260518D01*
X150326928Y-82385000D01*
X145689802Y-82385000D01*
X137612504Y-74307703D01*
X137588701Y-74278699D01*
X137472976Y-74183726D01*
X137340947Y-74113154D01*
X137197686Y-74069697D01*
X137086033Y-74058700D01*
X137086022Y-74058700D01*
X137048700Y-74055024D01*
X137011378Y-74058700D01*
X127102922Y-74058700D01*
X127065599Y-74055024D01*
X127028276Y-74058700D01*
X127028267Y-74058700D01*
X126916614Y-74069697D01*
X126773353Y-74113154D01*
X126641324Y-74183726D01*
X126641322Y-74183727D01*
X126641323Y-74183727D01*
X126554596Y-74254901D01*
X126554592Y-74254905D01*
X126525599Y-74278699D01*
X126501805Y-74307692D01*
X123993072Y-76816427D01*
X123993072Y-75400000D01*
X123980812Y-75275518D01*
X123944502Y-75155820D01*
X123885537Y-75045506D01*
X123806185Y-74948815D01*
X123709494Y-74869463D01*
X123599180Y-74810498D01*
X123479482Y-74774188D01*
X123355000Y-74761928D01*
X121755000Y-74761928D01*
X121630518Y-74774188D01*
X121510820Y-74810498D01*
X121400506Y-74869463D01*
X121303815Y-74948815D01*
X121224463Y-75045506D01*
X121165498Y-75155820D01*
X121129188Y-75275518D01*
X121116928Y-75400000D01*
X121116928Y-77000000D01*
X121129188Y-77124482D01*
X121165498Y-77244180D01*
X121224463Y-77354494D01*
X121303815Y-77451185D01*
X121400506Y-77530537D01*
X121510820Y-77589502D01*
X121630518Y-77625812D01*
X121755000Y-77638072D01*
X123228615Y-77638072D01*
X123205854Y-77680654D01*
X123162397Y-77823915D01*
X123151400Y-77935568D01*
X123151400Y-77935578D01*
X123147724Y-77972900D01*
X123151400Y-78010223D01*
X123151401Y-82513805D01*
X122973574Y-82440147D01*
X122696335Y-82385000D01*
X122413665Y-82385000D01*
X122136426Y-82440147D01*
X121875273Y-82548320D01*
X121640241Y-82705363D01*
X121440363Y-82905241D01*
X121333053Y-83065842D01*
X121280714Y-83070997D01*
X121137453Y-83114454D01*
X121005424Y-83185026D01*
X120889699Y-83279999D01*
X120865901Y-83308997D01*
X116169299Y-88005600D01*
X111756823Y-88005600D01*
X111719500Y-88001924D01*
X111682177Y-88005600D01*
X111682167Y-88005600D01*
X111570514Y-88016597D01*
X111430550Y-88059054D01*
X111427253Y-88060054D01*
X111295223Y-88130626D01*
X111227752Y-88185999D01*
X111179499Y-88225599D01*
X111155701Y-88254597D01*
X110069102Y-89341196D01*
X110040099Y-89364999D01*
X109998656Y-89415498D01*
X109945126Y-89480724D01*
X109906058Y-89553815D01*
X109874554Y-89612754D01*
X109831097Y-89756015D01*
X109820100Y-89867668D01*
X109820100Y-89867678D01*
X109816424Y-89905000D01*
X109820100Y-89942322D01*
X109820101Y-111004767D01*
X109816424Y-111042100D01*
X109831098Y-111191085D01*
X109874554Y-111334346D01*
X109945126Y-111466376D01*
X110016301Y-111553102D01*
X110040100Y-111582101D01*
X110069098Y-111605899D01*
X111217509Y-112754311D01*
X111079010Y-112961589D01*
X110967068Y-113231842D01*
X110910000Y-113518740D01*
X110910000Y-113811260D01*
X110964968Y-114087600D01*
X108717702Y-114087600D01*
X102704104Y-108074003D01*
X102680301Y-108044999D01*
X102564576Y-107950026D01*
X102432547Y-107879454D01*
X102289286Y-107835997D01*
X102247796Y-107831911D01*
X102118475Y-107638368D01*
X101911632Y-107431525D01*
X101737240Y-107315000D01*
X101911632Y-107198475D01*
X102118475Y-106991632D01*
X102280990Y-106748411D01*
X102392932Y-106478158D01*
X102450000Y-106191260D01*
X102450000Y-105898740D01*
X102392932Y-105611842D01*
X102280990Y-105341589D01*
X102118475Y-105098368D01*
X101911632Y-104891525D01*
X101737240Y-104775000D01*
X101911632Y-104658475D01*
X102118475Y-104451632D01*
X102280990Y-104208411D01*
X102392932Y-103938158D01*
X102450000Y-103651260D01*
X102450000Y-103358740D01*
X102392932Y-103071842D01*
X102280990Y-102801589D01*
X102118475Y-102558368D01*
X101911632Y-102351525D01*
X101737240Y-102235000D01*
X101911632Y-102118475D01*
X102118475Y-101911632D01*
X102280990Y-101668411D01*
X102392932Y-101398158D01*
X102450000Y-101111260D01*
X102450000Y-100818740D01*
X102392932Y-100531842D01*
X102280990Y-100261589D01*
X102118475Y-100018368D01*
X101911632Y-99811525D01*
X101737240Y-99695000D01*
X101911632Y-99578475D01*
X102118475Y-99371632D01*
X102280990Y-99128411D01*
X102392932Y-98858158D01*
X102450000Y-98571260D01*
X102450000Y-98278740D01*
X102392932Y-97991842D01*
X102280990Y-97721589D01*
X102118475Y-97478368D01*
X101911632Y-97271525D01*
X101668411Y-97109010D01*
X101398158Y-96997068D01*
X101111260Y-96940000D01*
X100818740Y-96940000D01*
X100531842Y-96997068D01*
X100261589Y-97109010D01*
X100018368Y-97271525D01*
X99886513Y-97403380D01*
X99864502Y-97330820D01*
X99805537Y-97220506D01*
X99726185Y-97123815D01*
X99629494Y-97044463D01*
X99519180Y-96985498D01*
X99399482Y-96949188D01*
X99275000Y-96936928D01*
X99109428Y-96936928D01*
X99053714Y-96907148D01*
X98745515Y-96813657D01*
X98425000Y-96782089D01*
X98104484Y-96813657D01*
X97796285Y-96907148D01*
X97740571Y-96936928D01*
X97575000Y-96936928D01*
X97450518Y-96949188D01*
X97330820Y-96985498D01*
X97220506Y-97044463D01*
X97123815Y-97123815D01*
X97044463Y-97220506D01*
X96985498Y-97330820D01*
X96949188Y-97450518D01*
X96936928Y-97575000D01*
X96936928Y-97740572D01*
X96907148Y-97796286D01*
X96813657Y-98104485D01*
X96790000Y-98344679D01*
X88925000Y-98344679D01*
X88925000Y-89955000D01*
X95666928Y-89955000D01*
X95666928Y-91655000D01*
X95679188Y-91779482D01*
X95715498Y-91899180D01*
X95774463Y-92009494D01*
X95853815Y-92106185D01*
X95950506Y-92185537D01*
X96060820Y-92244502D01*
X96180518Y-92280812D01*
X96305000Y-92293072D01*
X98005000Y-92293072D01*
X98129482Y-92280812D01*
X98249180Y-92244502D01*
X98359494Y-92185537D01*
X98456185Y-92106185D01*
X98535537Y-92009494D01*
X98594502Y-91899180D01*
X98616513Y-91826620D01*
X98748368Y-91958475D01*
X98991589Y-92120990D01*
X99261842Y-92232932D01*
X99548740Y-92290000D01*
X99841260Y-92290000D01*
X100128158Y-92232932D01*
X100398411Y-92120990D01*
X100641632Y-91958475D01*
X100848475Y-91751632D01*
X100965000Y-91577240D01*
X101081525Y-91751632D01*
X101288368Y-91958475D01*
X101531589Y-92120990D01*
X101801842Y-92232932D01*
X102088740Y-92290000D01*
X102381260Y-92290000D01*
X102668158Y-92232932D01*
X102938411Y-92120990D01*
X103181632Y-91958475D01*
X103388475Y-91751632D01*
X103505000Y-91577240D01*
X103621525Y-91751632D01*
X103828368Y-91958475D01*
X104071589Y-92120990D01*
X104341842Y-92232932D01*
X104628740Y-92290000D01*
X104921260Y-92290000D01*
X105208158Y-92232932D01*
X105478411Y-92120990D01*
X105721632Y-91958475D01*
X105928475Y-91751632D01*
X106050195Y-91569466D01*
X106119822Y-91686355D01*
X106314731Y-91902588D01*
X106548080Y-92076641D01*
X106810901Y-92201825D01*
X106958110Y-92246476D01*
X107188000Y-92125155D01*
X107188000Y-90932000D01*
X107442000Y-90932000D01*
X107442000Y-92125155D01*
X107671890Y-92246476D01*
X107819099Y-92201825D01*
X108081920Y-92076641D01*
X108315269Y-91902588D01*
X108510178Y-91686355D01*
X108659157Y-91436252D01*
X108756481Y-91161891D01*
X108635814Y-90932000D01*
X107442000Y-90932000D01*
X107188000Y-90932000D01*
X107168000Y-90932000D01*
X107168000Y-90678000D01*
X107188000Y-90678000D01*
X107188000Y-89484845D01*
X107442000Y-89484845D01*
X107442000Y-90678000D01*
X108635814Y-90678000D01*
X108756481Y-90448109D01*
X108659157Y-90173748D01*
X108510178Y-89923645D01*
X108315269Y-89707412D01*
X108081920Y-89533359D01*
X107819099Y-89408175D01*
X107671890Y-89363524D01*
X107442000Y-89484845D01*
X107188000Y-89484845D01*
X106958110Y-89363524D01*
X106810901Y-89408175D01*
X106548080Y-89533359D01*
X106314731Y-89707412D01*
X106119822Y-89923645D01*
X106050195Y-90040534D01*
X105928475Y-89858368D01*
X105721632Y-89651525D01*
X105478411Y-89489010D01*
X105208158Y-89377068D01*
X104921260Y-89320000D01*
X104628740Y-89320000D01*
X104341842Y-89377068D01*
X104071589Y-89489010D01*
X103828368Y-89651525D01*
X103621525Y-89858368D01*
X103505000Y-90032760D01*
X103388475Y-89858368D01*
X103181632Y-89651525D01*
X102938411Y-89489010D01*
X102668158Y-89377068D01*
X102381260Y-89320000D01*
X102088740Y-89320000D01*
X101801842Y-89377068D01*
X101531589Y-89489010D01*
X101288368Y-89651525D01*
X101081525Y-89858368D01*
X100965000Y-90032760D01*
X100848475Y-89858368D01*
X100641632Y-89651525D01*
X100398411Y-89489010D01*
X100128158Y-89377068D01*
X99841260Y-89320000D01*
X99548740Y-89320000D01*
X99261842Y-89377068D01*
X98991589Y-89489010D01*
X98748368Y-89651525D01*
X98616513Y-89783380D01*
X98594502Y-89710820D01*
X98535537Y-89600506D01*
X98456185Y-89503815D01*
X98359494Y-89424463D01*
X98249180Y-89365498D01*
X98129482Y-89329188D01*
X98005000Y-89316928D01*
X96305000Y-89316928D01*
X96180518Y-89329188D01*
X96060820Y-89365498D01*
X95950506Y-89424463D01*
X95853815Y-89503815D01*
X95774463Y-89600506D01*
X95715498Y-89710820D01*
X95679188Y-89830518D01*
X95666928Y-89955000D01*
X88925000Y-89955000D01*
X88925000Y-83678665D01*
X116040000Y-83678665D01*
X116040000Y-83961335D01*
X116095147Y-84238574D01*
X116203320Y-84499727D01*
X116360363Y-84734759D01*
X116560241Y-84934637D01*
X116795273Y-85091680D01*
X117056426Y-85199853D01*
X117333665Y-85255000D01*
X117616335Y-85255000D01*
X117893574Y-85199853D01*
X118154727Y-85091680D01*
X118389759Y-84934637D01*
X118589637Y-84734759D01*
X118746680Y-84499727D01*
X118854853Y-84238574D01*
X118910000Y-83961335D01*
X118910000Y-83678665D01*
X118854853Y-83401426D01*
X118746680Y-83140273D01*
X118589637Y-82905241D01*
X118389759Y-82705363D01*
X118154727Y-82548320D01*
X117893574Y-82440147D01*
X117616335Y-82385000D01*
X117333665Y-82385000D01*
X117056426Y-82440147D01*
X116795273Y-82548320D01*
X116560241Y-82705363D01*
X116360363Y-82905241D01*
X116203320Y-83140273D01*
X116095147Y-83401426D01*
X116040000Y-83678665D01*
X88925000Y-83678665D01*
X88925000Y-73025000D01*
X89408000Y-73025000D01*
X89408000Y-79375000D01*
X89410440Y-79399776D01*
X89417667Y-79423601D01*
X89429403Y-79445557D01*
X89445197Y-79464803D01*
X89464443Y-79480597D01*
X89486399Y-79492333D01*
X89510224Y-79499560D01*
X89535000Y-79502000D01*
X95885000Y-79502000D01*
X95909776Y-79499560D01*
X95933601Y-79492333D01*
X95955557Y-79480597D01*
X95974803Y-79464803D01*
X95990597Y-79445557D01*
X96002333Y-79423601D01*
X96009560Y-79399776D01*
X96012000Y-79375000D01*
X96012000Y-76058665D01*
X116040000Y-76058665D01*
X116040000Y-76341335D01*
X116095147Y-76618574D01*
X116203320Y-76879727D01*
X116360363Y-77114759D01*
X116560241Y-77314637D01*
X116795273Y-77471680D01*
X117056426Y-77579853D01*
X117333665Y-77635000D01*
X117616335Y-77635000D01*
X117893574Y-77579853D01*
X118154727Y-77471680D01*
X118389759Y-77314637D01*
X118589637Y-77114759D01*
X118746680Y-76879727D01*
X118854853Y-76618574D01*
X118910000Y-76341335D01*
X118910000Y-76058665D01*
X118854853Y-75781426D01*
X118746680Y-75520273D01*
X118589637Y-75285241D01*
X118389759Y-75085363D01*
X118154727Y-74928320D01*
X117893574Y-74820147D01*
X117616335Y-74765000D01*
X117333665Y-74765000D01*
X117056426Y-74820147D01*
X116795273Y-74928320D01*
X116560241Y-75085363D01*
X116360363Y-75285241D01*
X116203320Y-75520273D01*
X116095147Y-75781426D01*
X116040000Y-76058665D01*
X96012000Y-76058665D01*
X96012000Y-73025000D01*
X176403000Y-73025000D01*
X176403000Y-79375000D01*
X176405440Y-79399776D01*
X176412667Y-79423601D01*
X176424403Y-79445557D01*
X176440197Y-79464803D01*
X176459443Y-79480597D01*
X176481399Y-79492333D01*
X176505224Y-79499560D01*
X176530000Y-79502000D01*
X182880000Y-79502000D01*
X182904776Y-79499560D01*
X182928601Y-79492333D01*
X182950557Y-79480597D01*
X182969803Y-79464803D01*
X182985597Y-79445557D01*
X182997333Y-79423601D01*
X183004560Y-79399776D01*
X183007000Y-79375000D01*
X183007000Y-73025000D01*
X183004560Y-73000224D01*
X182997333Y-72976399D01*
X182985597Y-72954443D01*
X182969803Y-72935197D01*
X182950557Y-72919403D01*
X182928601Y-72907667D01*
X182904776Y-72900440D01*
X182880000Y-72898000D01*
X176530000Y-72898000D01*
X176505224Y-72900440D01*
X176481399Y-72907667D01*
X176459443Y-72919403D01*
X176440197Y-72935197D01*
X176424403Y-72954443D01*
X176412667Y-72976399D01*
X176405440Y-73000224D01*
X176403000Y-73025000D01*
X96012000Y-73025000D01*
X96009560Y-73000224D01*
X96002333Y-72976399D01*
X95990597Y-72954443D01*
X95974803Y-72935197D01*
X95955557Y-72919403D01*
X95933601Y-72907667D01*
X95909776Y-72900440D01*
X95885000Y-72898000D01*
X89535000Y-72898000D01*
X89510224Y-72900440D01*
X89486399Y-72907667D01*
X89464443Y-72919403D01*
X89445197Y-72935197D01*
X89429403Y-72954443D01*
X89417667Y-72976399D01*
X89410440Y-73000224D01*
X89408000Y-73025000D01*
X88925000Y-73025000D01*
X88925000Y-72415000D01*
X183490000Y-72415000D01*
X183490001Y-143485000D01*
G04 #@! TA.AperFunction,Conductor*
D21*
G36*
X183490001Y-143485000D02*
G01*
X88925000Y-143485000D01*
X88925000Y-136525000D01*
X89408000Y-136525000D01*
X89408000Y-142875000D01*
X89410440Y-142899776D01*
X89417667Y-142923601D01*
X89429403Y-142945557D01*
X89445197Y-142964803D01*
X89464443Y-142980597D01*
X89486399Y-142992333D01*
X89510224Y-142999560D01*
X89535000Y-143002000D01*
X95885000Y-143002000D01*
X95909776Y-142999560D01*
X95933601Y-142992333D01*
X95955557Y-142980597D01*
X95974803Y-142964803D01*
X95990597Y-142945557D01*
X96002333Y-142923601D01*
X96009560Y-142899776D01*
X96012000Y-142875000D01*
X96012000Y-136525000D01*
X96009560Y-136500224D01*
X96002333Y-136476399D01*
X95990597Y-136454443D01*
X95974803Y-136435197D01*
X95955557Y-136419403D01*
X95933601Y-136407667D01*
X95909776Y-136400440D01*
X95885000Y-136398000D01*
X89535000Y-136398000D01*
X89510224Y-136400440D01*
X89486399Y-136407667D01*
X89464443Y-136419403D01*
X89445197Y-136435197D01*
X89429403Y-136454443D01*
X89417667Y-136476399D01*
X89410440Y-136500224D01*
X89408000Y-136525000D01*
X88925000Y-136525000D01*
X88925000Y-134341890D01*
X96983524Y-134341890D01*
X97028175Y-134489099D01*
X97153359Y-134751920D01*
X97327412Y-134985269D01*
X97543645Y-135180178D01*
X97793748Y-135329157D01*
X98068109Y-135426481D01*
X98298000Y-135305814D01*
X98298000Y-134112000D01*
X97104845Y-134112000D01*
X96983524Y-134341890D01*
X88925000Y-134341890D01*
X88925000Y-131801890D01*
X96983524Y-131801890D01*
X97028175Y-131949099D01*
X97153359Y-132211920D01*
X97327412Y-132445269D01*
X97543645Y-132640178D01*
X97669255Y-132715000D01*
X97543645Y-132789822D01*
X97327412Y-132984731D01*
X97153359Y-133218080D01*
X97028175Y-133480901D01*
X96983524Y-133628110D01*
X97104845Y-133858000D01*
X98298000Y-133858000D01*
X98298000Y-131572000D01*
X97104845Y-131572000D01*
X96983524Y-131801890D01*
X88925000Y-131801890D01*
X88925000Y-129261890D01*
X96983524Y-129261890D01*
X97028175Y-129409099D01*
X97153359Y-129671920D01*
X97327412Y-129905269D01*
X97543645Y-130100178D01*
X97669255Y-130175000D01*
X97543645Y-130249822D01*
X97327412Y-130444731D01*
X97153359Y-130678080D01*
X97028175Y-130940901D01*
X96983524Y-131088110D01*
X97104845Y-131318000D01*
X98298000Y-131318000D01*
X98298000Y-129032000D01*
X97104845Y-129032000D01*
X96983524Y-129261890D01*
X88925000Y-129261890D01*
X88925000Y-126721890D01*
X96983524Y-126721890D01*
X97028175Y-126869099D01*
X97153359Y-127131920D01*
X97327412Y-127365269D01*
X97543645Y-127560178D01*
X97669255Y-127635000D01*
X97543645Y-127709822D01*
X97327412Y-127904731D01*
X97153359Y-128138080D01*
X97028175Y-128400901D01*
X96983524Y-128548110D01*
X97104845Y-128778000D01*
X98298000Y-128778000D01*
X98298000Y-126492000D01*
X97104845Y-126492000D01*
X96983524Y-126721890D01*
X88925000Y-126721890D01*
X88925000Y-124181890D01*
X96983524Y-124181890D01*
X97028175Y-124329099D01*
X97153359Y-124591920D01*
X97327412Y-124825269D01*
X97543645Y-125020178D01*
X97669255Y-125095000D01*
X97543645Y-125169822D01*
X97327412Y-125364731D01*
X97153359Y-125598080D01*
X97028175Y-125860901D01*
X96983524Y-126008110D01*
X97104845Y-126238000D01*
X98298000Y-126238000D01*
X98298000Y-123952000D01*
X97104845Y-123952000D01*
X96983524Y-124181890D01*
X88925000Y-124181890D01*
X88925000Y-121641890D01*
X96983524Y-121641890D01*
X97028175Y-121789099D01*
X97153359Y-122051920D01*
X97327412Y-122285269D01*
X97543645Y-122480178D01*
X97669255Y-122555000D01*
X97543645Y-122629822D01*
X97327412Y-122824731D01*
X97153359Y-123058080D01*
X97028175Y-123320901D01*
X96983524Y-123468110D01*
X97104845Y-123698000D01*
X98298000Y-123698000D01*
X98298000Y-121412000D01*
X97104845Y-121412000D01*
X96983524Y-121641890D01*
X88925000Y-121641890D01*
X88925000Y-98344679D01*
X96790000Y-98344679D01*
X96790001Y-100884669D01*
X96790000Y-100884679D01*
X96790001Y-103585322D01*
X96813658Y-103825516D01*
X96907149Y-104133715D01*
X97058970Y-104417752D01*
X97263287Y-104666714D01*
X97510809Y-104869849D01*
X97478368Y-104891525D01*
X97271525Y-105098368D01*
X97109010Y-105341589D01*
X96997068Y-105611842D01*
X96940000Y-105898740D01*
X96940000Y-106191260D01*
X96997068Y-106478158D01*
X97109010Y-106748411D01*
X97271525Y-106991632D01*
X97478368Y-107198475D01*
X97652760Y-107315000D01*
X97478368Y-107431525D01*
X97271525Y-107638368D01*
X97109010Y-107881589D01*
X96997068Y-108151842D01*
X96940000Y-108438740D01*
X96940000Y-108731260D01*
X96997068Y-109018158D01*
X97109010Y-109288411D01*
X97271525Y-109531632D01*
X97478368Y-109738475D01*
X97652760Y-109855000D01*
X97478368Y-109971525D01*
X97271525Y-110178368D01*
X97109010Y-110421589D01*
X96997068Y-110691842D01*
X96940000Y-110978740D01*
X96940000Y-111271260D01*
X96997068Y-111558158D01*
X97109010Y-111828411D01*
X97271525Y-112071632D01*
X97478368Y-112278475D01*
X97652760Y-112395000D01*
X97478368Y-112511525D01*
X97271525Y-112718368D01*
X97109010Y-112961589D01*
X96997068Y-113231842D01*
X96940000Y-113518740D01*
X96940000Y-113811260D01*
X96997068Y-114098158D01*
X97109010Y-114368411D01*
X97271525Y-114611632D01*
X97478368Y-114818475D01*
X97652760Y-114935000D01*
X97478368Y-115051525D01*
X97271525Y-115258368D01*
X97109010Y-115501589D01*
X96997068Y-115771842D01*
X96940000Y-116058740D01*
X96940000Y-116351260D01*
X96997068Y-116638158D01*
X97109010Y-116908411D01*
X97271525Y-117151632D01*
X97478368Y-117358475D01*
X97652760Y-117475000D01*
X97478368Y-117591525D01*
X97271525Y-117798368D01*
X97109010Y-118041589D01*
X96997068Y-118311842D01*
X96940000Y-118598740D01*
X96940000Y-118891260D01*
X96997068Y-119178158D01*
X97109010Y-119448411D01*
X97271525Y-119691632D01*
X97478368Y-119898475D01*
X97660534Y-120020195D01*
X97543645Y-120089822D01*
X97327412Y-120284731D01*
X97153359Y-120518080D01*
X97028175Y-120780901D01*
X96983524Y-120928110D01*
X97104845Y-121158000D01*
X98298000Y-121158000D01*
X98298000Y-121138000D01*
X98552000Y-121138000D01*
X98552000Y-121158000D01*
X98572000Y-121158000D01*
X98572000Y-121412000D01*
X98552000Y-121412000D01*
X98552000Y-123698000D01*
X98572000Y-123698000D01*
X98572000Y-123952000D01*
X98552000Y-123952000D01*
X98552000Y-126238000D01*
X98572000Y-126238000D01*
X98572000Y-126492000D01*
X98552000Y-126492000D01*
X98552000Y-128778000D01*
X98572000Y-128778000D01*
X98572000Y-129032000D01*
X98552000Y-129032000D01*
X98552000Y-131318000D01*
X98572000Y-131318000D01*
X98572000Y-131572000D01*
X98552000Y-131572000D01*
X98552000Y-133858000D01*
X98572000Y-133858000D01*
X98572000Y-134112000D01*
X98552000Y-134112000D01*
X98552000Y-135305814D01*
X98781891Y-135426481D01*
X99056252Y-135329157D01*
X99306355Y-135180178D01*
X99522588Y-134985269D01*
X99693900Y-134755594D01*
X99811525Y-134931632D01*
X100018368Y-135138475D01*
X100261589Y-135300990D01*
X100531842Y-135412932D01*
X100818740Y-135470000D01*
X101111260Y-135470000D01*
X101398158Y-135412932D01*
X101668411Y-135300990D01*
X101911632Y-135138475D01*
X102118475Y-134931632D01*
X102280990Y-134688411D01*
X102392932Y-134418158D01*
X102408102Y-134341890D01*
X110953524Y-134341890D01*
X110998175Y-134489099D01*
X111123359Y-134751920D01*
X111297412Y-134985269D01*
X111513645Y-135180178D01*
X111763748Y-135329157D01*
X112038109Y-135426481D01*
X112268000Y-135305814D01*
X112268000Y-134112000D01*
X111074845Y-134112000D01*
X110953524Y-134341890D01*
X102408102Y-134341890D01*
X102450000Y-134131260D01*
X102450000Y-133838740D01*
X102392932Y-133551842D01*
X102280990Y-133281589D01*
X102118475Y-133038368D01*
X101911632Y-132831525D01*
X101737240Y-132715000D01*
X101911632Y-132598475D01*
X102065303Y-132444804D01*
X102751801Y-133131303D01*
X102775599Y-133160301D01*
X102891324Y-133255274D01*
X103023353Y-133325846D01*
X103166614Y-133369303D01*
X103278267Y-133380300D01*
X103278276Y-133380300D01*
X103315599Y-133383976D01*
X103352922Y-133380300D01*
X111046092Y-133380300D01*
X110998175Y-133480901D01*
X110953524Y-133628110D01*
X111074845Y-133858000D01*
X112268000Y-133858000D01*
X112268000Y-133838000D01*
X112522000Y-133838000D01*
X112522000Y-133858000D01*
X112542000Y-133858000D01*
X112542000Y-134112000D01*
X112522000Y-134112000D01*
X112522000Y-135305814D01*
X112751891Y-135426481D01*
X113026252Y-135329157D01*
X113276355Y-135180178D01*
X113492588Y-134985269D01*
X113663900Y-134755594D01*
X113781525Y-134931632D01*
X113988368Y-135138475D01*
X114231589Y-135300990D01*
X114501842Y-135412932D01*
X114788740Y-135470000D01*
X115081260Y-135470000D01*
X115368158Y-135412932D01*
X115638411Y-135300990D01*
X115881632Y-135138475D01*
X116088475Y-134931632D01*
X116250990Y-134688411D01*
X116362932Y-134418158D01*
X116420000Y-134131260D01*
X116420000Y-133838740D01*
X116362932Y-133551842D01*
X116250990Y-133281589D01*
X116088475Y-133038368D01*
X115881632Y-132831525D01*
X115707240Y-132715000D01*
X115881632Y-132598475D01*
X116088475Y-132391632D01*
X116250990Y-132148411D01*
X116362932Y-131878158D01*
X116420000Y-131591260D01*
X116420000Y-131298740D01*
X116362932Y-131011842D01*
X116250990Y-130741589D01*
X116088475Y-130498368D01*
X115881632Y-130291525D01*
X115707240Y-130175000D01*
X115881632Y-130058475D01*
X116088475Y-129851632D01*
X116250990Y-129608411D01*
X116362932Y-129338158D01*
X116420000Y-129051260D01*
X116420000Y-128758740D01*
X116362932Y-128471842D01*
X116250990Y-128201589D01*
X116088475Y-127958368D01*
X115881632Y-127751525D01*
X115707240Y-127635000D01*
X115881632Y-127518475D01*
X116051067Y-127349040D01*
X122433091Y-127349040D01*
X122527930Y-127613881D01*
X122672615Y-127855131D01*
X122861586Y-128063519D01*
X123087580Y-128231037D01*
X123341913Y-128351246D01*
X123475961Y-128391904D01*
X123698000Y-128269915D01*
X123698000Y-127127000D01*
X122554376Y-127127000D01*
X122433091Y-127349040D01*
X116051067Y-127349040D01*
X116088475Y-127311632D01*
X116250990Y-127068411D01*
X116362932Y-126798158D01*
X116392211Y-126650960D01*
X122433091Y-126650960D01*
X122554376Y-126873000D01*
X123698000Y-126873000D01*
X123698000Y-125730085D01*
X123475961Y-125608096D01*
X123341913Y-125648754D01*
X123087580Y-125768963D01*
X122861586Y-125936481D01*
X122672615Y-126144869D01*
X122527930Y-126386119D01*
X122433091Y-126650960D01*
X116392211Y-126650960D01*
X116420000Y-126511260D01*
X116420000Y-126218740D01*
X116362932Y-125931842D01*
X116250990Y-125661589D01*
X116088475Y-125418368D01*
X115881632Y-125211525D01*
X115707240Y-125095000D01*
X115881632Y-124978475D01*
X116088475Y-124771632D01*
X116250990Y-124528411D01*
X116362932Y-124258158D01*
X116420000Y-123971260D01*
X116420000Y-123678740D01*
X116362932Y-123391842D01*
X116250990Y-123121589D01*
X116088475Y-122878368D01*
X115881632Y-122671525D01*
X115707240Y-122555000D01*
X115881632Y-122438475D01*
X116088475Y-122231632D01*
X116250990Y-121988411D01*
X116362932Y-121718158D01*
X116420000Y-121431260D01*
X116420000Y-121138740D01*
X116362932Y-120851842D01*
X116250990Y-120581589D01*
X116088475Y-120338368D01*
X115881632Y-120131525D01*
X115707240Y-120015000D01*
X115881632Y-119898475D01*
X116088475Y-119691632D01*
X116250990Y-119448411D01*
X116362932Y-119178158D01*
X116420000Y-118891260D01*
X116420000Y-118598740D01*
X116362932Y-118311842D01*
X116250990Y-118041589D01*
X116088475Y-117798368D01*
X115881632Y-117591525D01*
X115707240Y-117475000D01*
X115881632Y-117358475D01*
X116088475Y-117151632D01*
X116250990Y-116908411D01*
X116362932Y-116638158D01*
X116420000Y-116351260D01*
X116420000Y-116058740D01*
X116362932Y-115771842D01*
X116294901Y-115607600D01*
X120209778Y-115607600D01*
X120247100Y-115611276D01*
X120284422Y-115607600D01*
X120284433Y-115607600D01*
X120396086Y-115596603D01*
X120539347Y-115553146D01*
X120671376Y-115482574D01*
X120787101Y-115387601D01*
X120810904Y-115358597D01*
X123420053Y-112749449D01*
X123545241Y-112874637D01*
X123780273Y-113031680D01*
X124041426Y-113139853D01*
X124318665Y-113195000D01*
X124601335Y-113195000D01*
X124878574Y-113139853D01*
X124970001Y-113101983D01*
X124970000Y-115443897D01*
X124893158Y-115412068D01*
X124606260Y-115355000D01*
X124313740Y-115355000D01*
X124026842Y-115412068D01*
X123756589Y-115524010D01*
X123513368Y-115686525D01*
X123306525Y-115893368D01*
X123144010Y-116136589D01*
X123032068Y-116406842D01*
X122975000Y-116693740D01*
X122975000Y-116986260D01*
X123032068Y-117273158D01*
X123144010Y-117543411D01*
X123306525Y-117786632D01*
X123513368Y-117993475D01*
X123706912Y-118122797D01*
X123710998Y-118164286D01*
X123722863Y-118203399D01*
X123754454Y-118307546D01*
X123825026Y-118439576D01*
X123896201Y-118526302D01*
X123920000Y-118555301D01*
X123948998Y-118579099D01*
X124428101Y-119058203D01*
X124428100Y-125705478D01*
X124308087Y-125648754D01*
X124174039Y-125608096D01*
X123952000Y-125730085D01*
X123952000Y-126873000D01*
X123972000Y-126873000D01*
X123972000Y-127127000D01*
X123952000Y-127127000D01*
X123952000Y-128269915D01*
X124174039Y-128391904D01*
X124308087Y-128351246D01*
X124428100Y-128294522D01*
X124428100Y-132280478D01*
X124424424Y-132317800D01*
X124428100Y-132355122D01*
X124428100Y-132355132D01*
X124439097Y-132466785D01*
X124475358Y-132586324D01*
X124482554Y-132610046D01*
X124553126Y-132742076D01*
X124575456Y-132769285D01*
X124648099Y-132857801D01*
X124677103Y-132881604D01*
X125375551Y-133580053D01*
X125250363Y-133705241D01*
X125132813Y-133881167D01*
X125099286Y-133870997D01*
X125046947Y-133865842D01*
X124939637Y-133705241D01*
X124739759Y-133505363D01*
X124504727Y-133348320D01*
X124243574Y-133240147D01*
X123966335Y-133185000D01*
X123683665Y-133185000D01*
X123406426Y-133240147D01*
X123145273Y-133348320D01*
X122910241Y-133505363D01*
X122710363Y-133705241D01*
X122553320Y-133940273D01*
X122445147Y-134201426D01*
X122390000Y-134478665D01*
X122390000Y-134761335D01*
X122445147Y-135038574D01*
X122553320Y-135299727D01*
X122710363Y-135534759D01*
X122910241Y-135734637D01*
X123145273Y-135891680D01*
X123406426Y-135999853D01*
X123683665Y-136055000D01*
X123966335Y-136055000D01*
X124243574Y-135999853D01*
X124504727Y-135891680D01*
X124721222Y-135747023D01*
X125303501Y-136329303D01*
X125327299Y-136358301D01*
X125443024Y-136453274D01*
X125575053Y-136523846D01*
X125718314Y-136567303D01*
X125829967Y-136578300D01*
X125829977Y-136578300D01*
X125867300Y-136581976D01*
X125904623Y-136578300D01*
X126821278Y-136578300D01*
X126858600Y-136581976D01*
X126895922Y-136578300D01*
X126895933Y-136578300D01*
X127007586Y-136567303D01*
X127150847Y-136523846D01*
X127282876Y-136453274D01*
X127398601Y-136358301D01*
X127422403Y-136329298D01*
X128006321Y-135745381D01*
X128225273Y-135891680D01*
X128486426Y-135999853D01*
X128763665Y-136055000D01*
X129046335Y-136055000D01*
X129323574Y-135999853D01*
X129584727Y-135891680D01*
X129819759Y-135734637D01*
X129856397Y-135697999D01*
X130414701Y-136256303D01*
X130438499Y-136285301D01*
X130554224Y-136380274D01*
X130686253Y-136450846D01*
X130829514Y-136494303D01*
X130941167Y-136505300D01*
X130941176Y-136505300D01*
X130978499Y-136508976D01*
X131015822Y-136505300D01*
X131978478Y-136505300D01*
X132015800Y-136508976D01*
X132053122Y-136505300D01*
X132053133Y-136505300D01*
X132164786Y-136494303D01*
X132308047Y-136450846D01*
X132440076Y-136380274D01*
X132555801Y-136285301D01*
X132579603Y-136256298D01*
X133088838Y-135747063D01*
X133305273Y-135891680D01*
X133566426Y-135999853D01*
X133843665Y-136055000D01*
X134126335Y-136055000D01*
X134403574Y-135999853D01*
X134664727Y-135891680D01*
X134899759Y-135734637D01*
X135099637Y-135534759D01*
X135255000Y-135302241D01*
X135410363Y-135534759D01*
X135610241Y-135734637D01*
X135845273Y-135891680D01*
X136106426Y-135999853D01*
X136383665Y-136055000D01*
X136666335Y-136055000D01*
X136943574Y-135999853D01*
X137204727Y-135891680D01*
X137439759Y-135734637D01*
X137639637Y-135534759D01*
X137795000Y-135302241D01*
X137950363Y-135534759D01*
X138150241Y-135734637D01*
X138385273Y-135891680D01*
X138646426Y-135999853D01*
X138923665Y-136055000D01*
X139206335Y-136055000D01*
X139483574Y-135999853D01*
X139744727Y-135891680D01*
X139979759Y-135734637D01*
X140179637Y-135534759D01*
X140336680Y-135299727D01*
X140444853Y-135038574D01*
X140500000Y-134761335D01*
X140500000Y-134723802D01*
X143313501Y-137537303D01*
X143337299Y-137566301D01*
X143366297Y-137590099D01*
X143453023Y-137661274D01*
X143585053Y-137731846D01*
X143728314Y-137775303D01*
X143839967Y-137786300D01*
X143839977Y-137786300D01*
X143877300Y-137789976D01*
X143914623Y-137786300D01*
X169424878Y-137786300D01*
X169462200Y-137789976D01*
X169499522Y-137786300D01*
X169499533Y-137786300D01*
X169611186Y-137775303D01*
X169754447Y-137731846D01*
X169886476Y-137661274D01*
X170002201Y-137566301D01*
X170026004Y-137537297D01*
X171038301Y-136525000D01*
X176403000Y-136525000D01*
X176403000Y-142875000D01*
X176405440Y-142899776D01*
X176412667Y-142923601D01*
X176424403Y-142945557D01*
X176440197Y-142964803D01*
X176459443Y-142980597D01*
X176481399Y-142992333D01*
X176505224Y-142999560D01*
X176530000Y-143002000D01*
X182880000Y-143002000D01*
X182904776Y-142999560D01*
X182928601Y-142992333D01*
X182950557Y-142980597D01*
X182969803Y-142964803D01*
X182985597Y-142945557D01*
X182997333Y-142923601D01*
X183004560Y-142899776D01*
X183007000Y-142875000D01*
X183007000Y-136525000D01*
X183004560Y-136500224D01*
X182997333Y-136476399D01*
X182985597Y-136454443D01*
X182969803Y-136435197D01*
X182950557Y-136419403D01*
X182928601Y-136407667D01*
X182904776Y-136400440D01*
X182880000Y-136398000D01*
X176530000Y-136398000D01*
X176505224Y-136400440D01*
X176481399Y-136407667D01*
X176459443Y-136419403D01*
X176440197Y-136435197D01*
X176424403Y-136454443D01*
X176412667Y-136476399D01*
X176405440Y-136500224D01*
X176403000Y-136525000D01*
X171038301Y-136525000D01*
X171783234Y-135780068D01*
X172016589Y-135935990D01*
X172286842Y-136047932D01*
X172573740Y-136105000D01*
X172866260Y-136105000D01*
X173153158Y-136047932D01*
X173423411Y-135935990D01*
X173666632Y-135773475D01*
X173873475Y-135566632D01*
X174035990Y-135323411D01*
X174147932Y-135053158D01*
X174205000Y-134766260D01*
X174205000Y-134473740D01*
X174147932Y-134186842D01*
X174035990Y-133916589D01*
X173873475Y-133673368D01*
X173666632Y-133466525D01*
X173492240Y-133350000D01*
X173666632Y-133233475D01*
X173873475Y-133026632D01*
X174035990Y-132783411D01*
X174147932Y-132513158D01*
X174205000Y-132226260D01*
X174205000Y-131933740D01*
X174147932Y-131646842D01*
X174035990Y-131376589D01*
X173873475Y-131133368D01*
X173666632Y-130926525D01*
X173492240Y-130810000D01*
X173666632Y-130693475D01*
X173873475Y-130486632D01*
X174035990Y-130243411D01*
X174147932Y-129973158D01*
X174205000Y-129686260D01*
X174205000Y-129393740D01*
X174147932Y-129106842D01*
X174035990Y-128836589D01*
X173873475Y-128593368D01*
X173666632Y-128386525D01*
X173492240Y-128270000D01*
X173666632Y-128153475D01*
X173873475Y-127946632D01*
X174035990Y-127703411D01*
X174147932Y-127433158D01*
X174205000Y-127146260D01*
X174205000Y-126853740D01*
X174147932Y-126566842D01*
X174035990Y-126296589D01*
X173873475Y-126053368D01*
X173666632Y-125846525D01*
X173492240Y-125730000D01*
X173666632Y-125613475D01*
X173873475Y-125406632D01*
X174035990Y-125163411D01*
X174147932Y-124893158D01*
X174205000Y-124606260D01*
X174205000Y-124313740D01*
X174147932Y-124026842D01*
X174035990Y-123756589D01*
X173873475Y-123513368D01*
X173666632Y-123306525D01*
X173492240Y-123190000D01*
X173666632Y-123073475D01*
X173873475Y-122866632D01*
X174035990Y-122623411D01*
X174147932Y-122353158D01*
X174205000Y-122066260D01*
X174205000Y-121773740D01*
X174147932Y-121486842D01*
X174035990Y-121216589D01*
X173873475Y-120973368D01*
X173666632Y-120766525D01*
X173492240Y-120650000D01*
X173666632Y-120533475D01*
X173873475Y-120326632D01*
X174035990Y-120083411D01*
X174147932Y-119813158D01*
X174205000Y-119526260D01*
X174205000Y-119233740D01*
X174147932Y-118946842D01*
X174035990Y-118676589D01*
X173873475Y-118433368D01*
X173666632Y-118226525D01*
X173492240Y-118110000D01*
X173666632Y-117993475D01*
X173873475Y-117786632D01*
X174035990Y-117543411D01*
X174147932Y-117273158D01*
X174205000Y-116986260D01*
X174205000Y-116693740D01*
X174147932Y-116406842D01*
X174035990Y-116136589D01*
X173873475Y-115893368D01*
X173666632Y-115686525D01*
X173492240Y-115570000D01*
X173666632Y-115453475D01*
X173873475Y-115246632D01*
X174035990Y-115003411D01*
X174147932Y-114733158D01*
X174205000Y-114446260D01*
X174205000Y-114153740D01*
X174147932Y-113866842D01*
X174035990Y-113596589D01*
X173873475Y-113353368D01*
X173666632Y-113146525D01*
X173492240Y-113030000D01*
X173666632Y-112913475D01*
X173873475Y-112706632D01*
X174035990Y-112463411D01*
X174147932Y-112193158D01*
X174205000Y-111906260D01*
X174205000Y-111613740D01*
X174147932Y-111326842D01*
X174035990Y-111056589D01*
X173873475Y-110813368D01*
X173666632Y-110606525D01*
X173492240Y-110490000D01*
X173666632Y-110373475D01*
X173873475Y-110166632D01*
X174035990Y-109923411D01*
X174147932Y-109653158D01*
X174205000Y-109366260D01*
X174205000Y-109073740D01*
X174147932Y-108786842D01*
X174035990Y-108516589D01*
X173873475Y-108273368D01*
X173666632Y-108066525D01*
X173492240Y-107950000D01*
X173666632Y-107833475D01*
X173873475Y-107626632D01*
X174035990Y-107383411D01*
X174147932Y-107113158D01*
X174205000Y-106826260D01*
X174205000Y-106533740D01*
X174147932Y-106246842D01*
X174035990Y-105976589D01*
X173873475Y-105733368D01*
X173666632Y-105526525D01*
X173492240Y-105410000D01*
X173666632Y-105293475D01*
X173873475Y-105086632D01*
X174035990Y-104843411D01*
X174147932Y-104573158D01*
X174205000Y-104286260D01*
X174205000Y-103993740D01*
X174147932Y-103706842D01*
X174035990Y-103436589D01*
X173873475Y-103193368D01*
X173666632Y-102986525D01*
X173492240Y-102870000D01*
X173666632Y-102753475D01*
X173873475Y-102546632D01*
X174035990Y-102303411D01*
X174147932Y-102033158D01*
X174205000Y-101746260D01*
X174205000Y-101453740D01*
X174147932Y-101166842D01*
X174035990Y-100896589D01*
X173873475Y-100653368D01*
X173666632Y-100446525D01*
X173492240Y-100330000D01*
X173666632Y-100213475D01*
X173873475Y-100006632D01*
X174035990Y-99763411D01*
X174147932Y-99493158D01*
X174205000Y-99206260D01*
X174205000Y-98913740D01*
X174147932Y-98626842D01*
X174035990Y-98356589D01*
X173873475Y-98113368D01*
X173666632Y-97906525D01*
X173492240Y-97790000D01*
X173666632Y-97673475D01*
X173873475Y-97466632D01*
X174035990Y-97223411D01*
X174147932Y-96953158D01*
X174205000Y-96666260D01*
X174205000Y-96373740D01*
X174147932Y-96086842D01*
X174035990Y-95816589D01*
X173873475Y-95573368D01*
X173666632Y-95366525D01*
X173492240Y-95250000D01*
X173666632Y-95133475D01*
X173873475Y-94926632D01*
X174035990Y-94683411D01*
X174147932Y-94413158D01*
X174205000Y-94126260D01*
X174205000Y-93833740D01*
X174147932Y-93546842D01*
X174035990Y-93276589D01*
X173873475Y-93033368D01*
X173666632Y-92826525D01*
X173423411Y-92664010D01*
X173153158Y-92552068D01*
X172866260Y-92495000D01*
X172573740Y-92495000D01*
X172286842Y-92552068D01*
X172016589Y-92664010D01*
X171773368Y-92826525D01*
X171641513Y-92958380D01*
X171619502Y-92885820D01*
X171560537Y-92775506D01*
X171481185Y-92678815D01*
X171384494Y-92599463D01*
X171274180Y-92540498D01*
X171154482Y-92504188D01*
X171030000Y-92491928D01*
X170465750Y-92495000D01*
X170307000Y-92653750D01*
X170307000Y-93853000D01*
X170327000Y-93853000D01*
X170327000Y-94107000D01*
X170307000Y-94107000D01*
X170307000Y-94127000D01*
X170053000Y-94127000D01*
X170053000Y-94107000D01*
X168853750Y-94107000D01*
X168695000Y-94265750D01*
X168691928Y-94830000D01*
X168704188Y-94954482D01*
X168740498Y-95074180D01*
X168799463Y-95184494D01*
X168878815Y-95281185D01*
X168975506Y-95360537D01*
X169085820Y-95419502D01*
X169158380Y-95441513D01*
X169026525Y-95573368D01*
X168864010Y-95816589D01*
X168752068Y-96086842D01*
X168695000Y-96373740D01*
X168695000Y-96666260D01*
X168752068Y-96953158D01*
X168864010Y-97223411D01*
X169026525Y-97466632D01*
X169233368Y-97673475D01*
X169406729Y-97789311D01*
X169331208Y-98031603D01*
X170180000Y-98880395D01*
X171028792Y-98031603D01*
X170953271Y-97789311D01*
X171126632Y-97673475D01*
X171333475Y-97466632D01*
X171450000Y-97292240D01*
X171566525Y-97466632D01*
X171773368Y-97673475D01*
X171947760Y-97790000D01*
X171773368Y-97906525D01*
X171566525Y-98113368D01*
X171450689Y-98286729D01*
X171208397Y-98211208D01*
X170359605Y-99060000D01*
X171208397Y-99908792D01*
X171450689Y-99833271D01*
X171566525Y-100006632D01*
X171773368Y-100213475D01*
X171947760Y-100330000D01*
X171773368Y-100446525D01*
X171566525Y-100653368D01*
X171450000Y-100827760D01*
X171333475Y-100653368D01*
X171126632Y-100446525D01*
X170953271Y-100330689D01*
X171028792Y-100088397D01*
X170180000Y-99239605D01*
X169331208Y-100088397D01*
X169406729Y-100330689D01*
X169233368Y-100446525D01*
X169026525Y-100653368D01*
X168864010Y-100896589D01*
X168752068Y-101166842D01*
X168695000Y-101453740D01*
X168695000Y-101746260D01*
X168752068Y-102033158D01*
X168864010Y-102303411D01*
X169026525Y-102546632D01*
X169233368Y-102753475D01*
X169406729Y-102869311D01*
X169331208Y-103111603D01*
X170180000Y-103960395D01*
X171028792Y-103111603D01*
X170953271Y-102869311D01*
X171126632Y-102753475D01*
X171333475Y-102546632D01*
X171450000Y-102372240D01*
X171566525Y-102546632D01*
X171773368Y-102753475D01*
X171947760Y-102870000D01*
X171773368Y-102986525D01*
X171566525Y-103193368D01*
X171450689Y-103366729D01*
X171208397Y-103291208D01*
X170359605Y-104140000D01*
X170373748Y-104154143D01*
X170194143Y-104333748D01*
X170180000Y-104319605D01*
X169331208Y-105168397D01*
X169406729Y-105410689D01*
X169233368Y-105526525D01*
X169026525Y-105733368D01*
X168864010Y-105976589D01*
X168752068Y-106246842D01*
X168695000Y-106533740D01*
X168695000Y-106826260D01*
X168752068Y-107113158D01*
X168864010Y-107383411D01*
X169026525Y-107626632D01*
X169233368Y-107833475D01*
X169406729Y-107949311D01*
X169331208Y-108191603D01*
X170180000Y-109040395D01*
X170194143Y-109026253D01*
X170373748Y-109205858D01*
X170359605Y-109220000D01*
X170373748Y-109234143D01*
X170194143Y-109413748D01*
X170180000Y-109399605D01*
X169331208Y-110248397D01*
X169406514Y-110490000D01*
X169331208Y-110731603D01*
X170180000Y-111580395D01*
X170194143Y-111566253D01*
X170373748Y-111745858D01*
X170359605Y-111760000D01*
X170373748Y-111774143D01*
X170194143Y-111953748D01*
X170180000Y-111939605D01*
X169331208Y-112788397D01*
X169406729Y-113030689D01*
X169233368Y-113146525D01*
X169026525Y-113353368D01*
X168864010Y-113596589D01*
X168752068Y-113866842D01*
X168695000Y-114153740D01*
X168695000Y-114446260D01*
X168752068Y-114733158D01*
X168864010Y-115003411D01*
X169026525Y-115246632D01*
X169233368Y-115453475D01*
X169406729Y-115569311D01*
X169331208Y-115811603D01*
X170180000Y-116660395D01*
X170194143Y-116646253D01*
X170373748Y-116825858D01*
X170359605Y-116840000D01*
X170373748Y-116854143D01*
X170194143Y-117033748D01*
X170180000Y-117019605D01*
X169331208Y-117868397D01*
X169406514Y-118110000D01*
X169331208Y-118351603D01*
X170180000Y-119200395D01*
X170194143Y-119186253D01*
X170373748Y-119365858D01*
X170359605Y-119380000D01*
X170373748Y-119394143D01*
X170194143Y-119573748D01*
X170180000Y-119559605D01*
X169331208Y-120408397D01*
X169406514Y-120650000D01*
X169331208Y-120891603D01*
X170180000Y-121740395D01*
X170194143Y-121726253D01*
X170373748Y-121905858D01*
X170359605Y-121920000D01*
X170373748Y-121934143D01*
X170194143Y-122113748D01*
X170180000Y-122099605D01*
X169331208Y-122948397D01*
X169406514Y-123190000D01*
X169331208Y-123431603D01*
X170180000Y-124280395D01*
X170194143Y-124266253D01*
X170373748Y-124445858D01*
X170359605Y-124460000D01*
X170373748Y-124474143D01*
X170194143Y-124653748D01*
X170180000Y-124639605D01*
X169331208Y-125488397D01*
X169406514Y-125730000D01*
X169331208Y-125971603D01*
X170180000Y-126820395D01*
X170194143Y-126806253D01*
X170373748Y-126985858D01*
X170359605Y-127000000D01*
X170373748Y-127014143D01*
X170194143Y-127193748D01*
X170180000Y-127179605D01*
X169331208Y-128028397D01*
X169406514Y-128270000D01*
X169331208Y-128511603D01*
X170180000Y-129360395D01*
X170194143Y-129346253D01*
X170373748Y-129525858D01*
X170359605Y-129540000D01*
X170373748Y-129554143D01*
X170194143Y-129733748D01*
X170180000Y-129719605D01*
X169331208Y-130568397D01*
X169406514Y-130810000D01*
X169331208Y-131051603D01*
X170180000Y-131900395D01*
X170194143Y-131886253D01*
X170373748Y-132065858D01*
X170359605Y-132080000D01*
X170373748Y-132094143D01*
X170194143Y-132273748D01*
X170180000Y-132259605D01*
X169331208Y-133108397D01*
X169406729Y-133350689D01*
X169233368Y-133466525D01*
X169026525Y-133673368D01*
X168864010Y-133916589D01*
X168752068Y-134186842D01*
X168695000Y-134473740D01*
X168695000Y-134766260D01*
X168752068Y-135053158D01*
X168864010Y-135323411D01*
X169026525Y-135566632D01*
X169233368Y-135773475D01*
X169476589Y-135935990D01*
X169477381Y-135936318D01*
X169147399Y-136266300D01*
X144192102Y-136266300D01*
X143574199Y-135648397D01*
X152821208Y-135648397D01*
X152898843Y-135897472D01*
X153162883Y-136023371D01*
X153446411Y-136095339D01*
X153738531Y-136110611D01*
X154028019Y-136068599D01*
X154303747Y-135970919D01*
X154441157Y-135897472D01*
X154518792Y-135648397D01*
X153670000Y-134799605D01*
X152821208Y-135648397D01*
X143574199Y-135648397D01*
X143384067Y-135458265D01*
X143405500Y-135460376D01*
X143442822Y-135456700D01*
X143442833Y-135456700D01*
X143554486Y-135445703D01*
X143697747Y-135402246D01*
X143829776Y-135331674D01*
X143945501Y-135236701D01*
X143969304Y-135207697D01*
X148033903Y-131143099D01*
X148062901Y-131119301D01*
X148089232Y-131087217D01*
X148157874Y-131003577D01*
X148228446Y-130871547D01*
X148244849Y-130817472D01*
X148271903Y-130728286D01*
X148282900Y-130616633D01*
X148282900Y-130616623D01*
X148286576Y-130579300D01*
X148282900Y-130541977D01*
X148282900Y-129482601D01*
X152588163Y-133787865D01*
X152392528Y-133848843D01*
X152266629Y-134112883D01*
X152194661Y-134396411D01*
X152179389Y-134688531D01*
X152221401Y-134978019D01*
X152319081Y-135253747D01*
X152392528Y-135391157D01*
X152641603Y-135468792D01*
X153490395Y-134620000D01*
X153476253Y-134605858D01*
X153655858Y-134426253D01*
X153670000Y-134440395D01*
X153684143Y-134426253D01*
X153863748Y-134605858D01*
X153849605Y-134620000D01*
X154698397Y-135468792D01*
X154940689Y-135393271D01*
X155056525Y-135566632D01*
X155263368Y-135773475D01*
X155506589Y-135935990D01*
X155776842Y-136047932D01*
X156063740Y-136105000D01*
X156356260Y-136105000D01*
X156643158Y-136047932D01*
X156913411Y-135935990D01*
X157156632Y-135773475D01*
X157363475Y-135566632D01*
X157525990Y-135323411D01*
X157637932Y-135053158D01*
X157695000Y-134766260D01*
X157695000Y-134473740D01*
X157637932Y-134186842D01*
X157525990Y-133916589D01*
X157363475Y-133673368D01*
X157156632Y-133466525D01*
X156982240Y-133350000D01*
X157156632Y-133233475D01*
X157363475Y-133026632D01*
X157525990Y-132783411D01*
X157637932Y-132513158D01*
X157695000Y-132226260D01*
X157695000Y-132148531D01*
X168689389Y-132148531D01*
X168731401Y-132438019D01*
X168829081Y-132713747D01*
X168902528Y-132851157D01*
X169151603Y-132928792D01*
X170000395Y-132080000D01*
X169151603Y-131231208D01*
X168902528Y-131308843D01*
X168776629Y-131572883D01*
X168704661Y-131856411D01*
X168689389Y-132148531D01*
X157695000Y-132148531D01*
X157695000Y-131933740D01*
X157637932Y-131646842D01*
X157525990Y-131376589D01*
X157363475Y-131133368D01*
X157156632Y-130926525D01*
X156982240Y-130810000D01*
X157156632Y-130693475D01*
X157363475Y-130486632D01*
X157525990Y-130243411D01*
X157637932Y-129973158D01*
X157695000Y-129686260D01*
X157695000Y-129608531D01*
X168689389Y-129608531D01*
X168731401Y-129898019D01*
X168829081Y-130173747D01*
X168902528Y-130311157D01*
X169151603Y-130388792D01*
X170000395Y-129540000D01*
X169151603Y-128691208D01*
X168902528Y-128768843D01*
X168776629Y-129032883D01*
X168704661Y-129316411D01*
X168689389Y-129608531D01*
X157695000Y-129608531D01*
X157695000Y-129393740D01*
X157637932Y-129106842D01*
X157525990Y-128836589D01*
X157363475Y-128593368D01*
X157156632Y-128386525D01*
X156982240Y-128270000D01*
X157156632Y-128153475D01*
X157363475Y-127946632D01*
X157525990Y-127703411D01*
X157637932Y-127433158D01*
X157695000Y-127146260D01*
X157695000Y-127068531D01*
X168689389Y-127068531D01*
X168731401Y-127358019D01*
X168829081Y-127633747D01*
X168902528Y-127771157D01*
X169151603Y-127848792D01*
X170000395Y-127000000D01*
X169151603Y-126151208D01*
X168902528Y-126228843D01*
X168776629Y-126492883D01*
X168704661Y-126776411D01*
X168689389Y-127068531D01*
X157695000Y-127068531D01*
X157695000Y-126853740D01*
X157637932Y-126566842D01*
X157525990Y-126296589D01*
X157363475Y-126053368D01*
X157156632Y-125846525D01*
X156982240Y-125730000D01*
X157156632Y-125613475D01*
X157363475Y-125406632D01*
X157525990Y-125163411D01*
X157637932Y-124893158D01*
X157695000Y-124606260D01*
X157695000Y-124528531D01*
X168689389Y-124528531D01*
X168731401Y-124818019D01*
X168829081Y-125093747D01*
X168902528Y-125231157D01*
X169151603Y-125308792D01*
X170000395Y-124460000D01*
X169151603Y-123611208D01*
X168902528Y-123688843D01*
X168776629Y-123952883D01*
X168704661Y-124236411D01*
X168689389Y-124528531D01*
X157695000Y-124528531D01*
X157695000Y-124313740D01*
X157637932Y-124026842D01*
X157525990Y-123756589D01*
X157363475Y-123513368D01*
X157156632Y-123306525D01*
X156982240Y-123190000D01*
X157156632Y-123073475D01*
X157363475Y-122866632D01*
X157525990Y-122623411D01*
X157637932Y-122353158D01*
X157695000Y-122066260D01*
X157695000Y-121988531D01*
X168689389Y-121988531D01*
X168731401Y-122278019D01*
X168829081Y-122553747D01*
X168902528Y-122691157D01*
X169151603Y-122768792D01*
X170000395Y-121920000D01*
X169151603Y-121071208D01*
X168902528Y-121148843D01*
X168776629Y-121412883D01*
X168704661Y-121696411D01*
X168689389Y-121988531D01*
X157695000Y-121988531D01*
X157695000Y-121773740D01*
X157637932Y-121486842D01*
X157525990Y-121216589D01*
X157363475Y-120973368D01*
X157156632Y-120766525D01*
X156982240Y-120650000D01*
X157156632Y-120533475D01*
X157363475Y-120326632D01*
X157525990Y-120083411D01*
X157637932Y-119813158D01*
X157695000Y-119526260D01*
X157695000Y-119448531D01*
X168689389Y-119448531D01*
X168731401Y-119738019D01*
X168829081Y-120013747D01*
X168902528Y-120151157D01*
X169151603Y-120228792D01*
X170000395Y-119380000D01*
X169151603Y-118531208D01*
X168902528Y-118608843D01*
X168776629Y-118872883D01*
X168704661Y-119156411D01*
X168689389Y-119448531D01*
X157695000Y-119448531D01*
X157695000Y-119233740D01*
X157637932Y-118946842D01*
X157525990Y-118676589D01*
X157363475Y-118433368D01*
X157156632Y-118226525D01*
X156982240Y-118110000D01*
X157156632Y-117993475D01*
X157363475Y-117786632D01*
X157525990Y-117543411D01*
X157637932Y-117273158D01*
X157695000Y-116986260D01*
X157695000Y-116908531D01*
X168689389Y-116908531D01*
X168731401Y-117198019D01*
X168829081Y-117473747D01*
X168902528Y-117611157D01*
X169151603Y-117688792D01*
X170000395Y-116840000D01*
X169151603Y-115991208D01*
X168902528Y-116068843D01*
X168776629Y-116332883D01*
X168704661Y-116616411D01*
X168689389Y-116908531D01*
X157695000Y-116908531D01*
X157695000Y-116693740D01*
X157637932Y-116406842D01*
X157525990Y-116136589D01*
X157363475Y-115893368D01*
X157156632Y-115686525D01*
X156982240Y-115570000D01*
X157156632Y-115453475D01*
X157363475Y-115246632D01*
X157525990Y-115003411D01*
X157637932Y-114733158D01*
X157695000Y-114446260D01*
X157695000Y-114153740D01*
X157637932Y-113866842D01*
X157525990Y-113596589D01*
X157363475Y-113353368D01*
X157156632Y-113146525D01*
X156982240Y-113030000D01*
X157156632Y-112913475D01*
X157363475Y-112706632D01*
X157525990Y-112463411D01*
X157637932Y-112193158D01*
X157695000Y-111906260D01*
X157695000Y-111828531D01*
X168689389Y-111828531D01*
X168731401Y-112118019D01*
X168829081Y-112393747D01*
X168902528Y-112531157D01*
X169151603Y-112608792D01*
X170000395Y-111760000D01*
X169151603Y-110911208D01*
X168902528Y-110988843D01*
X168776629Y-111252883D01*
X168704661Y-111536411D01*
X168689389Y-111828531D01*
X157695000Y-111828531D01*
X157695000Y-111613740D01*
X157637932Y-111326842D01*
X157525990Y-111056589D01*
X157363475Y-110813368D01*
X157156632Y-110606525D01*
X156982240Y-110490000D01*
X157156632Y-110373475D01*
X157363475Y-110166632D01*
X157525990Y-109923411D01*
X157637932Y-109653158D01*
X157695000Y-109366260D01*
X157695000Y-109288531D01*
X168689389Y-109288531D01*
X168731401Y-109578019D01*
X168829081Y-109853747D01*
X168902528Y-109991157D01*
X169151603Y-110068792D01*
X170000395Y-109220000D01*
X169151603Y-108371208D01*
X168902528Y-108448843D01*
X168776629Y-108712883D01*
X168704661Y-108996411D01*
X168689389Y-109288531D01*
X157695000Y-109288531D01*
X157695000Y-109073740D01*
X157637932Y-108786842D01*
X157525990Y-108516589D01*
X157363475Y-108273368D01*
X157156632Y-108066525D01*
X156982240Y-107950000D01*
X157156632Y-107833475D01*
X157363475Y-107626632D01*
X157525990Y-107383411D01*
X157637932Y-107113158D01*
X157695000Y-106826260D01*
X157695000Y-106533740D01*
X157637932Y-106246842D01*
X157525990Y-105976589D01*
X157363475Y-105733368D01*
X157156632Y-105526525D01*
X156982240Y-105410000D01*
X157156632Y-105293475D01*
X157363475Y-105086632D01*
X157525990Y-104843411D01*
X157637932Y-104573158D01*
X157695000Y-104286260D01*
X157695000Y-104208531D01*
X168689389Y-104208531D01*
X168731401Y-104498019D01*
X168829081Y-104773747D01*
X168902528Y-104911157D01*
X169151603Y-104988792D01*
X170000395Y-104140000D01*
X169151603Y-103291208D01*
X168902528Y-103368843D01*
X168776629Y-103632883D01*
X168704661Y-103916411D01*
X168689389Y-104208531D01*
X157695000Y-104208531D01*
X157695000Y-103993740D01*
X157637932Y-103706842D01*
X157525990Y-103436589D01*
X157363475Y-103193368D01*
X157156632Y-102986525D01*
X156982240Y-102870000D01*
X157156632Y-102753475D01*
X157363475Y-102546632D01*
X157525990Y-102303411D01*
X157637932Y-102033158D01*
X157695000Y-101746260D01*
X157695000Y-101453740D01*
X157637932Y-101166842D01*
X157525990Y-100896589D01*
X157363475Y-100653368D01*
X157156632Y-100446525D01*
X156982240Y-100330000D01*
X157156632Y-100213475D01*
X157363475Y-100006632D01*
X157525990Y-99763411D01*
X157637932Y-99493158D01*
X157695000Y-99206260D01*
X157695000Y-99128531D01*
X168689389Y-99128531D01*
X168731401Y-99418019D01*
X168829081Y-99693747D01*
X168902528Y-99831157D01*
X169151603Y-99908792D01*
X170000395Y-99060000D01*
X169151603Y-98211208D01*
X168902528Y-98288843D01*
X168776629Y-98552883D01*
X168704661Y-98836411D01*
X168689389Y-99128531D01*
X157695000Y-99128531D01*
X157695000Y-98913740D01*
X157637932Y-98626842D01*
X157525990Y-98356589D01*
X157363475Y-98113368D01*
X157156632Y-97906525D01*
X156982240Y-97790000D01*
X157156632Y-97673475D01*
X157363475Y-97466632D01*
X157525990Y-97223411D01*
X157637932Y-96953158D01*
X157695000Y-96666260D01*
X157695000Y-96373740D01*
X157637932Y-96086842D01*
X157525990Y-95816589D01*
X157363475Y-95573368D01*
X157156632Y-95366525D01*
X156982240Y-95250000D01*
X157156632Y-95133475D01*
X157363475Y-94926632D01*
X157525990Y-94683411D01*
X157637932Y-94413158D01*
X157695000Y-94126260D01*
X157695000Y-93833740D01*
X157637932Y-93546842D01*
X157525990Y-93276589D01*
X157363475Y-93033368D01*
X157156632Y-92826525D01*
X156913411Y-92664010D01*
X156643158Y-92552068D01*
X156356260Y-92495000D01*
X156063740Y-92495000D01*
X155843592Y-92538790D01*
X145689802Y-82385000D01*
X150326928Y-82385000D01*
X150326928Y-83985000D01*
X150339188Y-84109482D01*
X150375498Y-84229180D01*
X150434463Y-84339494D01*
X150513815Y-84436185D01*
X150610506Y-84515537D01*
X150720820Y-84574502D01*
X150840518Y-84610812D01*
X150965000Y-84623072D01*
X152565000Y-84623072D01*
X152689482Y-84610812D01*
X152809180Y-84574502D01*
X152919494Y-84515537D01*
X153016185Y-84436185D01*
X153095537Y-84339494D01*
X153154502Y-84229180D01*
X153190812Y-84109482D01*
X153203072Y-83985000D01*
X153203072Y-83043665D01*
X157950000Y-83043665D01*
X157950000Y-83326335D01*
X158005147Y-83603574D01*
X158113320Y-83864727D01*
X158270363Y-84099759D01*
X158470241Y-84299637D01*
X158625001Y-84403044D01*
X158625000Y-88950377D01*
X158621324Y-88987700D01*
X158625000Y-89025022D01*
X158625000Y-89025032D01*
X158635997Y-89136685D01*
X158676445Y-89270026D01*
X158679454Y-89279946D01*
X158750026Y-89411976D01*
X158772179Y-89438969D01*
X158844999Y-89527701D01*
X158874003Y-89551504D01*
X161368201Y-92045703D01*
X161391999Y-92074701D01*
X161394834Y-92077027D01*
X161312068Y-92276842D01*
X161255000Y-92563740D01*
X161255000Y-92856260D01*
X161312068Y-93143158D01*
X161424010Y-93413411D01*
X161586525Y-93656632D01*
X161793368Y-93863475D01*
X162036589Y-94025990D01*
X162306842Y-94137932D01*
X162593740Y-94195000D01*
X162886260Y-94195000D01*
X163173158Y-94137932D01*
X163443411Y-94025990D01*
X163686632Y-93863475D01*
X163893475Y-93656632D01*
X164055990Y-93413411D01*
X164167932Y-93143158D01*
X164170549Y-93130000D01*
X168691928Y-93130000D01*
X168695000Y-93694250D01*
X168853750Y-93853000D01*
X170053000Y-93853000D01*
X170053000Y-92653750D01*
X169894250Y-92495000D01*
X169330000Y-92491928D01*
X169205518Y-92504188D01*
X169085820Y-92540498D01*
X168975506Y-92599463D01*
X168878815Y-92678815D01*
X168799463Y-92775506D01*
X168740498Y-92885820D01*
X168704188Y-93005518D01*
X168691928Y-93130000D01*
X164170549Y-93130000D01*
X164225000Y-92856260D01*
X164225000Y-92563740D01*
X164167932Y-92276842D01*
X164055990Y-92006589D01*
X163893475Y-91763368D01*
X163761620Y-91631513D01*
X163834180Y-91609502D01*
X163944494Y-91550537D01*
X164041185Y-91471185D01*
X164120537Y-91374494D01*
X164179502Y-91264180D01*
X164215812Y-91144482D01*
X164228072Y-91020000D01*
X164225000Y-90455750D01*
X164066250Y-90297000D01*
X162867000Y-90297000D01*
X162867000Y-90317000D01*
X162613000Y-90317000D01*
X162613000Y-90297000D01*
X162593000Y-90297000D01*
X162593000Y-90043000D01*
X162613000Y-90043000D01*
X162613000Y-88843750D01*
X162867000Y-88843750D01*
X162867000Y-90043000D01*
X164066250Y-90043000D01*
X164225000Y-89884250D01*
X164228072Y-89320000D01*
X164215812Y-89195518D01*
X164179502Y-89075820D01*
X164120537Y-88965506D01*
X164041185Y-88868815D01*
X163944494Y-88789463D01*
X163834180Y-88730498D01*
X163714482Y-88694188D01*
X163590000Y-88681928D01*
X163025750Y-88685000D01*
X162867000Y-88843750D01*
X162613000Y-88843750D01*
X162454250Y-88685000D01*
X161890000Y-88681928D01*
X161765518Y-88694188D01*
X161645820Y-88730498D01*
X161535506Y-88789463D01*
X161438815Y-88868815D01*
X161359463Y-88965506D01*
X161300498Y-89075820D01*
X161264188Y-89195518D01*
X161251928Y-89320000D01*
X161254445Y-89782344D01*
X160145000Y-88672899D01*
X160145000Y-84403043D01*
X160299759Y-84299637D01*
X160499637Y-84099759D01*
X160656680Y-83864727D01*
X160764853Y-83603574D01*
X160820000Y-83326335D01*
X160820000Y-83043665D01*
X160764853Y-82766426D01*
X160656680Y-82505273D01*
X160499637Y-82270241D01*
X160299759Y-82070363D01*
X160064727Y-81913320D01*
X159803574Y-81805147D01*
X159526335Y-81750000D01*
X159243665Y-81750000D01*
X158966426Y-81805147D01*
X158705273Y-81913320D01*
X158470241Y-82070363D01*
X158270363Y-82270241D01*
X158113320Y-82505273D01*
X158005147Y-82766426D01*
X157950000Y-83043665D01*
X153203072Y-83043665D01*
X153203072Y-82385000D01*
X153190812Y-82260518D01*
X153154502Y-82140820D01*
X153095537Y-82030506D01*
X153016185Y-81933815D01*
X152919494Y-81854463D01*
X152809180Y-81795498D01*
X152689482Y-81759188D01*
X152565000Y-81746928D01*
X150965000Y-81746928D01*
X150840518Y-81759188D01*
X150720820Y-81795498D01*
X150610506Y-81854463D01*
X150513815Y-81933815D01*
X150434463Y-82030506D01*
X150375498Y-82140820D01*
X150339188Y-82260518D01*
X150326928Y-82385000D01*
X145689802Y-82385000D01*
X137612504Y-74307703D01*
X137588701Y-74278699D01*
X137472976Y-74183726D01*
X137340947Y-74113154D01*
X137197686Y-74069697D01*
X137086033Y-74058700D01*
X137086022Y-74058700D01*
X137048700Y-74055024D01*
X137011378Y-74058700D01*
X127102922Y-74058700D01*
X127065599Y-74055024D01*
X127028276Y-74058700D01*
X127028267Y-74058700D01*
X126916614Y-74069697D01*
X126773353Y-74113154D01*
X126641324Y-74183726D01*
X126641322Y-74183727D01*
X126641323Y-74183727D01*
X126554596Y-74254901D01*
X126554592Y-74254905D01*
X126525599Y-74278699D01*
X126501805Y-74307692D01*
X123993072Y-76816427D01*
X123993072Y-75400000D01*
X123980812Y-75275518D01*
X123944502Y-75155820D01*
X123885537Y-75045506D01*
X123806185Y-74948815D01*
X123709494Y-74869463D01*
X123599180Y-74810498D01*
X123479482Y-74774188D01*
X123355000Y-74761928D01*
X121755000Y-74761928D01*
X121630518Y-74774188D01*
X121510820Y-74810498D01*
X121400506Y-74869463D01*
X121303815Y-74948815D01*
X121224463Y-75045506D01*
X121165498Y-75155820D01*
X121129188Y-75275518D01*
X121116928Y-75400000D01*
X121116928Y-77000000D01*
X121129188Y-77124482D01*
X121165498Y-77244180D01*
X121224463Y-77354494D01*
X121303815Y-77451185D01*
X121400506Y-77530537D01*
X121510820Y-77589502D01*
X121630518Y-77625812D01*
X121755000Y-77638072D01*
X123228615Y-77638072D01*
X123205854Y-77680654D01*
X123162397Y-77823915D01*
X123151400Y-77935568D01*
X123151400Y-77935578D01*
X123147724Y-77972900D01*
X123151400Y-78010223D01*
X123151401Y-82513805D01*
X122973574Y-82440147D01*
X122696335Y-82385000D01*
X122413665Y-82385000D01*
X122136426Y-82440147D01*
X121875273Y-82548320D01*
X121640241Y-82705363D01*
X121440363Y-82905241D01*
X121333053Y-83065842D01*
X121280714Y-83070997D01*
X121137453Y-83114454D01*
X121005424Y-83185026D01*
X120889699Y-83279999D01*
X120865901Y-83308997D01*
X116169299Y-88005600D01*
X111756823Y-88005600D01*
X111719500Y-88001924D01*
X111682177Y-88005600D01*
X111682167Y-88005600D01*
X111570514Y-88016597D01*
X111430550Y-88059054D01*
X111427253Y-88060054D01*
X111295223Y-88130626D01*
X111227752Y-88185999D01*
X111179499Y-88225599D01*
X111155701Y-88254597D01*
X110069102Y-89341196D01*
X110040099Y-89364999D01*
X109998656Y-89415498D01*
X109945126Y-89480724D01*
X109906058Y-89553815D01*
X109874554Y-89612754D01*
X109831097Y-89756015D01*
X109820100Y-89867668D01*
X109820100Y-89867678D01*
X109816424Y-89905000D01*
X109820100Y-89942322D01*
X109820101Y-111004767D01*
X109816424Y-111042100D01*
X109831098Y-111191085D01*
X109874554Y-111334346D01*
X109945126Y-111466376D01*
X110016301Y-111553102D01*
X110040100Y-111582101D01*
X110069098Y-111605899D01*
X111217509Y-112754311D01*
X111079010Y-112961589D01*
X110967068Y-113231842D01*
X110910000Y-113518740D01*
X110910000Y-113811260D01*
X110964968Y-114087600D01*
X108717702Y-114087600D01*
X102704104Y-108074003D01*
X102680301Y-108044999D01*
X102564576Y-107950026D01*
X102432547Y-107879454D01*
X102289286Y-107835997D01*
X102247796Y-107831911D01*
X102118475Y-107638368D01*
X101911632Y-107431525D01*
X101737240Y-107315000D01*
X101911632Y-107198475D01*
X102118475Y-106991632D01*
X102280990Y-106748411D01*
X102392932Y-106478158D01*
X102450000Y-106191260D01*
X102450000Y-105898740D01*
X102392932Y-105611842D01*
X102280990Y-105341589D01*
X102118475Y-105098368D01*
X101911632Y-104891525D01*
X101737240Y-104775000D01*
X101911632Y-104658475D01*
X102118475Y-104451632D01*
X102280990Y-104208411D01*
X102392932Y-103938158D01*
X102450000Y-103651260D01*
X102450000Y-103358740D01*
X102392932Y-103071842D01*
X102280990Y-102801589D01*
X102118475Y-102558368D01*
X101911632Y-102351525D01*
X101737240Y-102235000D01*
X101911632Y-102118475D01*
X102118475Y-101911632D01*
X102280990Y-101668411D01*
X102392932Y-101398158D01*
X102450000Y-101111260D01*
X102450000Y-100818740D01*
X102392932Y-100531842D01*
X102280990Y-100261589D01*
X102118475Y-100018368D01*
X101911632Y-99811525D01*
X101737240Y-99695000D01*
X101911632Y-99578475D01*
X102118475Y-99371632D01*
X102280990Y-99128411D01*
X102392932Y-98858158D01*
X102450000Y-98571260D01*
X102450000Y-98278740D01*
X102392932Y-97991842D01*
X102280990Y-97721589D01*
X102118475Y-97478368D01*
X101911632Y-97271525D01*
X101668411Y-97109010D01*
X101398158Y-96997068D01*
X101111260Y-96940000D01*
X100818740Y-96940000D01*
X100531842Y-96997068D01*
X100261589Y-97109010D01*
X100018368Y-97271525D01*
X99886513Y-97403380D01*
X99864502Y-97330820D01*
X99805537Y-97220506D01*
X99726185Y-97123815D01*
X99629494Y-97044463D01*
X99519180Y-96985498D01*
X99399482Y-96949188D01*
X99275000Y-96936928D01*
X99109428Y-96936928D01*
X99053714Y-96907148D01*
X98745515Y-96813657D01*
X98425000Y-96782089D01*
X98104484Y-96813657D01*
X97796285Y-96907148D01*
X97740571Y-96936928D01*
X97575000Y-96936928D01*
X97450518Y-96949188D01*
X97330820Y-96985498D01*
X97220506Y-97044463D01*
X97123815Y-97123815D01*
X97044463Y-97220506D01*
X96985498Y-97330820D01*
X96949188Y-97450518D01*
X96936928Y-97575000D01*
X96936928Y-97740572D01*
X96907148Y-97796286D01*
X96813657Y-98104485D01*
X96790000Y-98344679D01*
X88925000Y-98344679D01*
X88925000Y-89955000D01*
X95666928Y-89955000D01*
X95666928Y-91655000D01*
X95679188Y-91779482D01*
X95715498Y-91899180D01*
X95774463Y-92009494D01*
X95853815Y-92106185D01*
X95950506Y-92185537D01*
X96060820Y-92244502D01*
X96180518Y-92280812D01*
X96305000Y-92293072D01*
X98005000Y-92293072D01*
X98129482Y-92280812D01*
X98249180Y-92244502D01*
X98359494Y-92185537D01*
X98456185Y-92106185D01*
X98535537Y-92009494D01*
X98594502Y-91899180D01*
X98616513Y-91826620D01*
X98748368Y-91958475D01*
X98991589Y-92120990D01*
X99261842Y-92232932D01*
X99548740Y-92290000D01*
X99841260Y-92290000D01*
X100128158Y-92232932D01*
X100398411Y-92120990D01*
X100641632Y-91958475D01*
X100848475Y-91751632D01*
X100965000Y-91577240D01*
X101081525Y-91751632D01*
X101288368Y-91958475D01*
X101531589Y-92120990D01*
X101801842Y-92232932D01*
X102088740Y-92290000D01*
X102381260Y-92290000D01*
X102668158Y-92232932D01*
X102938411Y-92120990D01*
X103181632Y-91958475D01*
X103388475Y-91751632D01*
X103505000Y-91577240D01*
X103621525Y-91751632D01*
X103828368Y-91958475D01*
X104071589Y-92120990D01*
X104341842Y-92232932D01*
X104628740Y-92290000D01*
X104921260Y-92290000D01*
X105208158Y-92232932D01*
X105478411Y-92120990D01*
X105721632Y-91958475D01*
X105928475Y-91751632D01*
X106050195Y-91569466D01*
X106119822Y-91686355D01*
X106314731Y-91902588D01*
X106548080Y-92076641D01*
X106810901Y-92201825D01*
X106958110Y-92246476D01*
X107188000Y-92125155D01*
X107188000Y-90932000D01*
X107442000Y-90932000D01*
X107442000Y-92125155D01*
X107671890Y-92246476D01*
X107819099Y-92201825D01*
X108081920Y-92076641D01*
X108315269Y-91902588D01*
X108510178Y-91686355D01*
X108659157Y-91436252D01*
X108756481Y-91161891D01*
X108635814Y-90932000D01*
X107442000Y-90932000D01*
X107188000Y-90932000D01*
X107168000Y-90932000D01*
X107168000Y-90678000D01*
X107188000Y-90678000D01*
X107188000Y-89484845D01*
X107442000Y-89484845D01*
X107442000Y-90678000D01*
X108635814Y-90678000D01*
X108756481Y-90448109D01*
X108659157Y-90173748D01*
X108510178Y-89923645D01*
X108315269Y-89707412D01*
X108081920Y-89533359D01*
X107819099Y-89408175D01*
X107671890Y-89363524D01*
X107442000Y-89484845D01*
X107188000Y-89484845D01*
X106958110Y-89363524D01*
X106810901Y-89408175D01*
X106548080Y-89533359D01*
X106314731Y-89707412D01*
X106119822Y-89923645D01*
X106050195Y-90040534D01*
X105928475Y-89858368D01*
X105721632Y-89651525D01*
X105478411Y-89489010D01*
X105208158Y-89377068D01*
X104921260Y-89320000D01*
X104628740Y-89320000D01*
X104341842Y-89377068D01*
X104071589Y-89489010D01*
X103828368Y-89651525D01*
X103621525Y-89858368D01*
X103505000Y-90032760D01*
X103388475Y-89858368D01*
X103181632Y-89651525D01*
X102938411Y-89489010D01*
X102668158Y-89377068D01*
X102381260Y-89320000D01*
X102088740Y-89320000D01*
X101801842Y-89377068D01*
X101531589Y-89489010D01*
X101288368Y-89651525D01*
X101081525Y-89858368D01*
X100965000Y-90032760D01*
X100848475Y-89858368D01*
X100641632Y-89651525D01*
X100398411Y-89489010D01*
X100128158Y-89377068D01*
X99841260Y-89320000D01*
X99548740Y-89320000D01*
X99261842Y-89377068D01*
X98991589Y-89489010D01*
X98748368Y-89651525D01*
X98616513Y-89783380D01*
X98594502Y-89710820D01*
X98535537Y-89600506D01*
X98456185Y-89503815D01*
X98359494Y-89424463D01*
X98249180Y-89365498D01*
X98129482Y-89329188D01*
X98005000Y-89316928D01*
X96305000Y-89316928D01*
X96180518Y-89329188D01*
X96060820Y-89365498D01*
X95950506Y-89424463D01*
X95853815Y-89503815D01*
X95774463Y-89600506D01*
X95715498Y-89710820D01*
X95679188Y-89830518D01*
X95666928Y-89955000D01*
X88925000Y-89955000D01*
X88925000Y-83678665D01*
X116040000Y-83678665D01*
X116040000Y-83961335D01*
X116095147Y-84238574D01*
X116203320Y-84499727D01*
X116360363Y-84734759D01*
X116560241Y-84934637D01*
X116795273Y-85091680D01*
X117056426Y-85199853D01*
X117333665Y-85255000D01*
X117616335Y-85255000D01*
X117893574Y-85199853D01*
X118154727Y-85091680D01*
X118389759Y-84934637D01*
X118589637Y-84734759D01*
X118746680Y-84499727D01*
X118854853Y-84238574D01*
X118910000Y-83961335D01*
X118910000Y-83678665D01*
X118854853Y-83401426D01*
X118746680Y-83140273D01*
X118589637Y-82905241D01*
X118389759Y-82705363D01*
X118154727Y-82548320D01*
X117893574Y-82440147D01*
X117616335Y-82385000D01*
X117333665Y-82385000D01*
X117056426Y-82440147D01*
X116795273Y-82548320D01*
X116560241Y-82705363D01*
X116360363Y-82905241D01*
X116203320Y-83140273D01*
X116095147Y-83401426D01*
X116040000Y-83678665D01*
X88925000Y-83678665D01*
X88925000Y-73025000D01*
X89408000Y-73025000D01*
X89408000Y-79375000D01*
X89410440Y-79399776D01*
X89417667Y-79423601D01*
X89429403Y-79445557D01*
X89445197Y-79464803D01*
X89464443Y-79480597D01*
X89486399Y-79492333D01*
X89510224Y-79499560D01*
X89535000Y-79502000D01*
X95885000Y-79502000D01*
X95909776Y-79499560D01*
X95933601Y-79492333D01*
X95955557Y-79480597D01*
X95974803Y-79464803D01*
X95990597Y-79445557D01*
X96002333Y-79423601D01*
X96009560Y-79399776D01*
X96012000Y-79375000D01*
X96012000Y-76058665D01*
X116040000Y-76058665D01*
X116040000Y-76341335D01*
X116095147Y-76618574D01*
X116203320Y-76879727D01*
X116360363Y-77114759D01*
X116560241Y-77314637D01*
X116795273Y-77471680D01*
X117056426Y-77579853D01*
X117333665Y-77635000D01*
X117616335Y-77635000D01*
X117893574Y-77579853D01*
X118154727Y-77471680D01*
X118389759Y-77314637D01*
X118589637Y-77114759D01*
X118746680Y-76879727D01*
X118854853Y-76618574D01*
X118910000Y-76341335D01*
X118910000Y-76058665D01*
X118854853Y-75781426D01*
X118746680Y-75520273D01*
X118589637Y-75285241D01*
X118389759Y-75085363D01*
X118154727Y-74928320D01*
X117893574Y-74820147D01*
X117616335Y-74765000D01*
X117333665Y-74765000D01*
X117056426Y-74820147D01*
X116795273Y-74928320D01*
X116560241Y-75085363D01*
X116360363Y-75285241D01*
X116203320Y-75520273D01*
X116095147Y-75781426D01*
X116040000Y-76058665D01*
X96012000Y-76058665D01*
X96012000Y-73025000D01*
X176403000Y-73025000D01*
X176403000Y-79375000D01*
X176405440Y-79399776D01*
X176412667Y-79423601D01*
X176424403Y-79445557D01*
X176440197Y-79464803D01*
X176459443Y-79480597D01*
X176481399Y-79492333D01*
X176505224Y-79499560D01*
X176530000Y-79502000D01*
X182880000Y-79502000D01*
X182904776Y-79499560D01*
X182928601Y-79492333D01*
X182950557Y-79480597D01*
X182969803Y-79464803D01*
X182985597Y-79445557D01*
X182997333Y-79423601D01*
X183004560Y-79399776D01*
X183007000Y-79375000D01*
X183007000Y-73025000D01*
X183004560Y-73000224D01*
X182997333Y-72976399D01*
X182985597Y-72954443D01*
X182969803Y-72935197D01*
X182950557Y-72919403D01*
X182928601Y-72907667D01*
X182904776Y-72900440D01*
X182880000Y-72898000D01*
X176530000Y-72898000D01*
X176505224Y-72900440D01*
X176481399Y-72907667D01*
X176459443Y-72919403D01*
X176440197Y-72935197D01*
X176424403Y-72954443D01*
X176412667Y-72976399D01*
X176405440Y-73000224D01*
X176403000Y-73025000D01*
X96012000Y-73025000D01*
X96009560Y-73000224D01*
X96002333Y-72976399D01*
X95990597Y-72954443D01*
X95974803Y-72935197D01*
X95955557Y-72919403D01*
X95933601Y-72907667D01*
X95909776Y-72900440D01*
X95885000Y-72898000D01*
X89535000Y-72898000D01*
X89510224Y-72900440D01*
X89486399Y-72907667D01*
X89464443Y-72919403D01*
X89445197Y-72935197D01*
X89429403Y-72954443D01*
X89417667Y-72976399D01*
X89410440Y-73000224D01*
X89408000Y-73025000D01*
X88925000Y-73025000D01*
X88925000Y-72415000D01*
X183490000Y-72415000D01*
X183490001Y-143485000D01*
G37*
G04 #@! TD.AperFunction*
D20*
X139192000Y-98933000D02*
X139212000Y-98933000D01*
X139212000Y-99187000D01*
X139192000Y-99187000D01*
X139192000Y-100329915D01*
X139414039Y-100451904D01*
X139548087Y-100411246D01*
X139802420Y-100291037D01*
X140028414Y-100123519D01*
X140217385Y-99915131D01*
X140321796Y-99741035D01*
X143875800Y-103295039D01*
X143875800Y-104102298D01*
X143721816Y-104063700D01*
X143439488Y-104049783D01*
X143159870Y-104091213D01*
X142893708Y-104186397D01*
X142768486Y-104253329D01*
X142696903Y-104497298D01*
X143510000Y-105310395D01*
X143524143Y-105296253D01*
X143703748Y-105475858D01*
X143689605Y-105490000D01*
X143703748Y-105504143D01*
X143524143Y-105683748D01*
X143510000Y-105669605D01*
X142696903Y-106482702D01*
X142768486Y-106726671D01*
X143023996Y-106847571D01*
X143298184Y-106916300D01*
X143580512Y-106930217D01*
X143860130Y-106888787D01*
X143875801Y-106883183D01*
X143875801Y-107811960D01*
X142410678Y-109277084D01*
X142348287Y-109328287D01*
X142234323Y-109467153D01*
X142143970Y-109577248D01*
X141992148Y-109861286D01*
X141898658Y-110169484D01*
X141867089Y-110490000D01*
X141898658Y-110810516D01*
X141992148Y-111118714D01*
X142143970Y-111402752D01*
X142348287Y-111651713D01*
X142410677Y-111702915D01*
X143240400Y-112532639D01*
X143240401Y-126962198D01*
X143086816Y-126923700D01*
X142804488Y-126909783D01*
X142524870Y-126951213D01*
X142258708Y-127046397D01*
X142133486Y-127113329D01*
X142061903Y-127357298D01*
X142875000Y-128170395D01*
X142889143Y-128156253D01*
X143068748Y-128335858D01*
X143054605Y-128350000D01*
X143068748Y-128364143D01*
X142889143Y-128543748D01*
X142875000Y-128529605D01*
X142061903Y-129342702D01*
X142133486Y-129586671D01*
X142388996Y-129707571D01*
X142663184Y-129776300D01*
X142945512Y-129790217D01*
X143225130Y-129748787D01*
X143240401Y-129743326D01*
X143240401Y-130672360D01*
X141662085Y-132250677D01*
X141508970Y-132437248D01*
X141365069Y-132706467D01*
X137285000Y-128626399D01*
X137285000Y-128349759D01*
X137304626Y-128386476D01*
X137344449Y-128435000D01*
X137399599Y-128502201D01*
X137428603Y-128526004D01*
X137538996Y-128636397D01*
X137562799Y-128665401D01*
X137678524Y-128760374D01*
X137810553Y-128830946D01*
X137953814Y-128874403D01*
X138065467Y-128885400D01*
X138065475Y-128885400D01*
X138102800Y-128889076D01*
X138140125Y-128885400D01*
X140073778Y-128885400D01*
X140111100Y-128889076D01*
X140148422Y-128885400D01*
X140148433Y-128885400D01*
X140260086Y-128874403D01*
X140403347Y-128830946D01*
X140535376Y-128760374D01*
X140651101Y-128665401D01*
X140674903Y-128636398D01*
X141481003Y-127830299D01*
X141510001Y-127806501D01*
X141555119Y-127751525D01*
X141591790Y-127706842D01*
X141517429Y-127863996D01*
X141448700Y-128138184D01*
X141434783Y-128420512D01*
X141476213Y-128700130D01*
X141571397Y-128966292D01*
X141638329Y-129091514D01*
X141882298Y-129163097D01*
X142695395Y-128350000D01*
X141882298Y-127536903D01*
X141650937Y-127604787D01*
X141675546Y-127558747D01*
X141685708Y-127525246D01*
X141719003Y-127415486D01*
X141730000Y-127303833D01*
X141730000Y-127303824D01*
X141733676Y-127266501D01*
X141730000Y-127229178D01*
X141730000Y-118328072D01*
X141820000Y-118328072D01*
X141944482Y-118315812D01*
X142064180Y-118279502D01*
X142174494Y-118220537D01*
X142271185Y-118141185D01*
X142350537Y-118044494D01*
X142409502Y-117934180D01*
X142445812Y-117814482D01*
X142458072Y-117690000D01*
X142458072Y-115990000D01*
X142445812Y-115865518D01*
X142409502Y-115745820D01*
X142350537Y-115635506D01*
X142271185Y-115538815D01*
X142174494Y-115459463D01*
X142064180Y-115400498D01*
X141944482Y-115364188D01*
X141820000Y-115351928D01*
X141730000Y-115351928D01*
X141730000Y-111442422D01*
X141733676Y-111405099D01*
X141730000Y-111367776D01*
X141730000Y-111367767D01*
X141719003Y-111256114D01*
X141675546Y-111112853D01*
X141604974Y-110980824D01*
X141510001Y-110865099D01*
X141481003Y-110841301D01*
X139888104Y-109248403D01*
X139864301Y-109219399D01*
X139748576Y-109124426D01*
X139616547Y-109053854D01*
X139473286Y-109010397D01*
X139361633Y-108999400D01*
X139361622Y-108999400D01*
X139324300Y-108995724D01*
X139286978Y-108999400D01*
X138885802Y-108999400D01*
X135298563Y-105412162D01*
X135299727Y-105411680D01*
X135534759Y-105254637D01*
X135734637Y-105054759D01*
X135890000Y-104822241D01*
X136045363Y-105054759D01*
X136245241Y-105254637D01*
X136480273Y-105411680D01*
X136741426Y-105519853D01*
X137018665Y-105575000D01*
X137301335Y-105575000D01*
X137578574Y-105519853D01*
X137839727Y-105411680D01*
X138074759Y-105254637D01*
X138273357Y-105056039D01*
X138274188Y-105064482D01*
X138310498Y-105184180D01*
X138369463Y-105294494D01*
X138448815Y-105391185D01*
X138545506Y-105470537D01*
X138655820Y-105529502D01*
X138775518Y-105565812D01*
X138900000Y-105578072D01*
X140500000Y-105578072D01*
X140624482Y-105565812D01*
X140641953Y-105560512D01*
X142069783Y-105560512D01*
X142111213Y-105840130D01*
X142206397Y-106106292D01*
X142273329Y-106231514D01*
X142517298Y-106303097D01*
X143330395Y-105490000D01*
X142517298Y-104676903D01*
X142273329Y-104748486D01*
X142152429Y-105003996D01*
X142083700Y-105278184D01*
X142069783Y-105560512D01*
X140641953Y-105560512D01*
X140744180Y-105529502D01*
X140854494Y-105470537D01*
X140951185Y-105391185D01*
X141030537Y-105294494D01*
X141089502Y-105184180D01*
X141125812Y-105064482D01*
X141138072Y-104940000D01*
X141138072Y-103340000D01*
X141125812Y-103215518D01*
X141089502Y-103095820D01*
X141030537Y-102985506D01*
X140951185Y-102888815D01*
X140854494Y-102809463D01*
X140744180Y-102750498D01*
X140624482Y-102714188D01*
X140500000Y-102701928D01*
X140394575Y-102701928D01*
X140334974Y-102590424D01*
X140240001Y-102474699D01*
X140211003Y-102450901D01*
X138555000Y-100794899D01*
X138555000Y-100398526D01*
X138581913Y-100411246D01*
X138715961Y-100451904D01*
X138938000Y-100329915D01*
X138938000Y-99187000D01*
X138918000Y-99187000D01*
X138918000Y-98933000D01*
X138938000Y-98933000D01*
X138938000Y-98913000D01*
X139192000Y-98913000D01*
X139192000Y-98933000D01*
G04 #@! TA.AperFunction,Conductor*
D21*
G36*
X139192000Y-98933000D02*
G01*
X139212000Y-98933000D01*
X139212000Y-99187000D01*
X139192000Y-99187000D01*
X139192000Y-100329915D01*
X139414039Y-100451904D01*
X139548087Y-100411246D01*
X139802420Y-100291037D01*
X140028414Y-100123519D01*
X140217385Y-99915131D01*
X140321796Y-99741035D01*
X143875800Y-103295039D01*
X143875800Y-104102298D01*
X143721816Y-104063700D01*
X143439488Y-104049783D01*
X143159870Y-104091213D01*
X142893708Y-104186397D01*
X142768486Y-104253329D01*
X142696903Y-104497298D01*
X143510000Y-105310395D01*
X143524143Y-105296253D01*
X143703748Y-105475858D01*
X143689605Y-105490000D01*
X143703748Y-105504143D01*
X143524143Y-105683748D01*
X143510000Y-105669605D01*
X142696903Y-106482702D01*
X142768486Y-106726671D01*
X143023996Y-106847571D01*
X143298184Y-106916300D01*
X143580512Y-106930217D01*
X143860130Y-106888787D01*
X143875801Y-106883183D01*
X143875801Y-107811960D01*
X142410678Y-109277084D01*
X142348287Y-109328287D01*
X142234323Y-109467153D01*
X142143970Y-109577248D01*
X141992148Y-109861286D01*
X141898658Y-110169484D01*
X141867089Y-110490000D01*
X141898658Y-110810516D01*
X141992148Y-111118714D01*
X142143970Y-111402752D01*
X142348287Y-111651713D01*
X142410677Y-111702915D01*
X143240400Y-112532639D01*
X143240401Y-126962198D01*
X143086816Y-126923700D01*
X142804488Y-126909783D01*
X142524870Y-126951213D01*
X142258708Y-127046397D01*
X142133486Y-127113329D01*
X142061903Y-127357298D01*
X142875000Y-128170395D01*
X142889143Y-128156253D01*
X143068748Y-128335858D01*
X143054605Y-128350000D01*
X143068748Y-128364143D01*
X142889143Y-128543748D01*
X142875000Y-128529605D01*
X142061903Y-129342702D01*
X142133486Y-129586671D01*
X142388996Y-129707571D01*
X142663184Y-129776300D01*
X142945512Y-129790217D01*
X143225130Y-129748787D01*
X143240401Y-129743326D01*
X143240401Y-130672360D01*
X141662085Y-132250677D01*
X141508970Y-132437248D01*
X141365069Y-132706467D01*
X137285000Y-128626399D01*
X137285000Y-128349759D01*
X137304626Y-128386476D01*
X137344449Y-128435000D01*
X137399599Y-128502201D01*
X137428603Y-128526004D01*
X137538996Y-128636397D01*
X137562799Y-128665401D01*
X137678524Y-128760374D01*
X137810553Y-128830946D01*
X137953814Y-128874403D01*
X138065467Y-128885400D01*
X138065475Y-128885400D01*
X138102800Y-128889076D01*
X138140125Y-128885400D01*
X140073778Y-128885400D01*
X140111100Y-128889076D01*
X140148422Y-128885400D01*
X140148433Y-128885400D01*
X140260086Y-128874403D01*
X140403347Y-128830946D01*
X140535376Y-128760374D01*
X140651101Y-128665401D01*
X140674903Y-128636398D01*
X141481003Y-127830299D01*
X141510001Y-127806501D01*
X141555119Y-127751525D01*
X141591790Y-127706842D01*
X141517429Y-127863996D01*
X141448700Y-128138184D01*
X141434783Y-128420512D01*
X141476213Y-128700130D01*
X141571397Y-128966292D01*
X141638329Y-129091514D01*
X141882298Y-129163097D01*
X142695395Y-128350000D01*
X141882298Y-127536903D01*
X141650937Y-127604787D01*
X141675546Y-127558747D01*
X141685708Y-127525246D01*
X141719003Y-127415486D01*
X141730000Y-127303833D01*
X141730000Y-127303824D01*
X141733676Y-127266501D01*
X141730000Y-127229178D01*
X141730000Y-118328072D01*
X141820000Y-118328072D01*
X141944482Y-118315812D01*
X142064180Y-118279502D01*
X142174494Y-118220537D01*
X142271185Y-118141185D01*
X142350537Y-118044494D01*
X142409502Y-117934180D01*
X142445812Y-117814482D01*
X142458072Y-117690000D01*
X142458072Y-115990000D01*
X142445812Y-115865518D01*
X142409502Y-115745820D01*
X142350537Y-115635506D01*
X142271185Y-115538815D01*
X142174494Y-115459463D01*
X142064180Y-115400498D01*
X141944482Y-115364188D01*
X141820000Y-115351928D01*
X141730000Y-115351928D01*
X141730000Y-111442422D01*
X141733676Y-111405099D01*
X141730000Y-111367776D01*
X141730000Y-111367767D01*
X141719003Y-111256114D01*
X141675546Y-111112853D01*
X141604974Y-110980824D01*
X141510001Y-110865099D01*
X141481003Y-110841301D01*
X139888104Y-109248403D01*
X139864301Y-109219399D01*
X139748576Y-109124426D01*
X139616547Y-109053854D01*
X139473286Y-109010397D01*
X139361633Y-108999400D01*
X139361622Y-108999400D01*
X139324300Y-108995724D01*
X139286978Y-108999400D01*
X138885802Y-108999400D01*
X135298563Y-105412162D01*
X135299727Y-105411680D01*
X135534759Y-105254637D01*
X135734637Y-105054759D01*
X135890000Y-104822241D01*
X136045363Y-105054759D01*
X136245241Y-105254637D01*
X136480273Y-105411680D01*
X136741426Y-105519853D01*
X137018665Y-105575000D01*
X137301335Y-105575000D01*
X137578574Y-105519853D01*
X137839727Y-105411680D01*
X138074759Y-105254637D01*
X138273357Y-105056039D01*
X138274188Y-105064482D01*
X138310498Y-105184180D01*
X138369463Y-105294494D01*
X138448815Y-105391185D01*
X138545506Y-105470537D01*
X138655820Y-105529502D01*
X138775518Y-105565812D01*
X138900000Y-105578072D01*
X140500000Y-105578072D01*
X140624482Y-105565812D01*
X140641953Y-105560512D01*
X142069783Y-105560512D01*
X142111213Y-105840130D01*
X142206397Y-106106292D01*
X142273329Y-106231514D01*
X142517298Y-106303097D01*
X143330395Y-105490000D01*
X142517298Y-104676903D01*
X142273329Y-104748486D01*
X142152429Y-105003996D01*
X142083700Y-105278184D01*
X142069783Y-105560512D01*
X140641953Y-105560512D01*
X140744180Y-105529502D01*
X140854494Y-105470537D01*
X140951185Y-105391185D01*
X141030537Y-105294494D01*
X141089502Y-105184180D01*
X141125812Y-105064482D01*
X141138072Y-104940000D01*
X141138072Y-103340000D01*
X141125812Y-103215518D01*
X141089502Y-103095820D01*
X141030537Y-102985506D01*
X140951185Y-102888815D01*
X140854494Y-102809463D01*
X140744180Y-102750498D01*
X140624482Y-102714188D01*
X140500000Y-102701928D01*
X140394575Y-102701928D01*
X140334974Y-102590424D01*
X140240001Y-102474699D01*
X140211003Y-102450901D01*
X138555000Y-100794899D01*
X138555000Y-100398526D01*
X138581913Y-100411246D01*
X138715961Y-100451904D01*
X138938000Y-100329915D01*
X138938000Y-99187000D01*
X138918000Y-99187000D01*
X138918000Y-98933000D01*
X138938000Y-98933000D01*
X138938000Y-98913000D01*
X139192000Y-98913000D01*
X139192000Y-98933000D01*
G37*
G04 #@! TD.AperFunction*
D20*
X152354010Y-109923411D02*
X152516525Y-110166632D01*
X152723368Y-110373475D01*
X152897760Y-110490000D01*
X152723368Y-110606525D01*
X152516525Y-110813368D01*
X152354010Y-111056589D01*
X152242068Y-111326842D01*
X152185000Y-111613740D01*
X152185000Y-111906260D01*
X152242068Y-112193158D01*
X152354010Y-112463411D01*
X152516525Y-112706632D01*
X152723368Y-112913475D01*
X152897760Y-113030000D01*
X152723368Y-113146525D01*
X152516525Y-113353368D01*
X152354010Y-113596589D01*
X152242068Y-113866842D01*
X152185000Y-114153740D01*
X152185000Y-114446260D01*
X152242068Y-114733158D01*
X152354010Y-115003411D01*
X152516525Y-115246632D01*
X152723368Y-115453475D01*
X152897760Y-115570000D01*
X152723368Y-115686525D01*
X152516525Y-115893368D01*
X152354010Y-116136589D01*
X152242068Y-116406842D01*
X152185000Y-116693740D01*
X152185000Y-116986260D01*
X152242068Y-117273158D01*
X152354010Y-117543411D01*
X152516525Y-117786632D01*
X152723368Y-117993475D01*
X152896729Y-118109311D01*
X152821208Y-118351603D01*
X153670000Y-119200395D01*
X154518792Y-118351603D01*
X154443271Y-118109311D01*
X154616632Y-117993475D01*
X154823475Y-117786632D01*
X154940000Y-117612240D01*
X155056525Y-117786632D01*
X155263368Y-117993475D01*
X155437760Y-118110000D01*
X155263368Y-118226525D01*
X155056525Y-118433368D01*
X154940689Y-118606729D01*
X154698397Y-118531208D01*
X153849605Y-119380000D01*
X154698397Y-120228792D01*
X154940689Y-120153271D01*
X155056525Y-120326632D01*
X155263368Y-120533475D01*
X155437760Y-120650000D01*
X155263368Y-120766525D01*
X155056525Y-120973368D01*
X154940689Y-121146729D01*
X154698397Y-121071208D01*
X153849605Y-121920000D01*
X154698397Y-122768792D01*
X154940689Y-122693271D01*
X155056525Y-122866632D01*
X155263368Y-123073475D01*
X155437760Y-123190000D01*
X155263368Y-123306525D01*
X155056525Y-123513368D01*
X154940689Y-123686729D01*
X154698397Y-123611208D01*
X153849605Y-124460000D01*
X154698397Y-125308792D01*
X154940689Y-125233271D01*
X155056525Y-125406632D01*
X155263368Y-125613475D01*
X155437760Y-125730000D01*
X155263368Y-125846525D01*
X155056525Y-126053368D01*
X154940689Y-126226729D01*
X154698397Y-126151208D01*
X153849605Y-127000000D01*
X154698397Y-127848792D01*
X154940689Y-127773271D01*
X155056525Y-127946632D01*
X155263368Y-128153475D01*
X155437760Y-128270000D01*
X155263368Y-128386525D01*
X155056525Y-128593368D01*
X154940689Y-128766729D01*
X154698397Y-128691208D01*
X153849605Y-129540000D01*
X154698397Y-130388792D01*
X154940689Y-130313271D01*
X155056525Y-130486632D01*
X155263368Y-130693475D01*
X155437760Y-130810000D01*
X155263368Y-130926525D01*
X155056525Y-131133368D01*
X154940689Y-131306729D01*
X154698397Y-131231208D01*
X153849605Y-132080000D01*
X153863748Y-132094143D01*
X153684143Y-132273748D01*
X153670000Y-132259605D01*
X153655858Y-132273748D01*
X153476253Y-132094143D01*
X153490395Y-132080000D01*
X152641603Y-131231208D01*
X152392528Y-131308843D01*
X152349334Y-131399432D01*
X151518299Y-130568397D01*
X152821208Y-130568397D01*
X152896514Y-130810000D01*
X152821208Y-131051603D01*
X153670000Y-131900395D01*
X154518792Y-131051603D01*
X154443486Y-130810000D01*
X154518792Y-130568397D01*
X153670000Y-129719605D01*
X152821208Y-130568397D01*
X151518299Y-130568397D01*
X150558433Y-129608531D01*
X152179389Y-129608531D01*
X152221401Y-129898019D01*
X152319081Y-130173747D01*
X152392528Y-130311157D01*
X152641603Y-130388792D01*
X153490395Y-129540000D01*
X152641603Y-128691208D01*
X152392528Y-128768843D01*
X152266629Y-129032883D01*
X152194661Y-129316411D01*
X152179389Y-129608531D01*
X150558433Y-129608531D01*
X148978299Y-128028397D01*
X152821208Y-128028397D01*
X152896514Y-128270000D01*
X152821208Y-128511603D01*
X153670000Y-129360395D01*
X154518792Y-128511603D01*
X154443486Y-128270000D01*
X154518792Y-128028397D01*
X153670000Y-127179605D01*
X152821208Y-128028397D01*
X148978299Y-128028397D01*
X148810900Y-127860999D01*
X148810900Y-127068531D01*
X152179389Y-127068531D01*
X152221401Y-127358019D01*
X152319081Y-127633747D01*
X152392528Y-127771157D01*
X152641603Y-127848792D01*
X153490395Y-127000000D01*
X152641603Y-126151208D01*
X152392528Y-126228843D01*
X152266629Y-126492883D01*
X152194661Y-126776411D01*
X152179389Y-127068531D01*
X148810900Y-127068531D01*
X148810900Y-125488397D01*
X152821208Y-125488397D01*
X152896514Y-125730000D01*
X152821208Y-125971603D01*
X153670000Y-126820395D01*
X154518792Y-125971603D01*
X154443486Y-125730000D01*
X154518792Y-125488397D01*
X153670000Y-124639605D01*
X152821208Y-125488397D01*
X148810900Y-125488397D01*
X148810900Y-124528531D01*
X152179389Y-124528531D01*
X152221401Y-124818019D01*
X152319081Y-125093747D01*
X152392528Y-125231157D01*
X152641603Y-125308792D01*
X153490395Y-124460000D01*
X152641603Y-123611208D01*
X152392528Y-123688843D01*
X152266629Y-123952883D01*
X152194661Y-124236411D01*
X152179389Y-124528531D01*
X148810900Y-124528531D01*
X148810900Y-122948397D01*
X152821208Y-122948397D01*
X152896514Y-123190000D01*
X152821208Y-123431603D01*
X153670000Y-124280395D01*
X154518792Y-123431603D01*
X154443486Y-123190000D01*
X154518792Y-122948397D01*
X153670000Y-122099605D01*
X152821208Y-122948397D01*
X148810900Y-122948397D01*
X148810900Y-121988531D01*
X152179389Y-121988531D01*
X152221401Y-122278019D01*
X152319081Y-122553747D01*
X152392528Y-122691157D01*
X152641603Y-122768792D01*
X153490395Y-121920000D01*
X152641603Y-121071208D01*
X152392528Y-121148843D01*
X152266629Y-121412883D01*
X152194661Y-121696411D01*
X152179389Y-121988531D01*
X148810900Y-121988531D01*
X148810900Y-120408397D01*
X152821208Y-120408397D01*
X152896514Y-120650000D01*
X152821208Y-120891603D01*
X153670000Y-121740395D01*
X154518792Y-120891603D01*
X154443486Y-120650000D01*
X154518792Y-120408397D01*
X153670000Y-119559605D01*
X152821208Y-120408397D01*
X148810900Y-120408397D01*
X148810900Y-119448531D01*
X152179389Y-119448531D01*
X152221401Y-119738019D01*
X152319081Y-120013747D01*
X152392528Y-120151157D01*
X152641603Y-120228792D01*
X153490395Y-119380000D01*
X152641603Y-118531208D01*
X152392528Y-118608843D01*
X152266629Y-118872883D01*
X152194661Y-119156411D01*
X152179389Y-119448531D01*
X148810900Y-119448531D01*
X148810900Y-114622611D01*
X148854837Y-114578674D01*
X148968105Y-114409156D01*
X149046126Y-114220798D01*
X149085900Y-114020839D01*
X149085900Y-113816961D01*
X149046126Y-113617002D01*
X148968105Y-113428644D01*
X148854837Y-113259126D01*
X148807306Y-113211595D01*
X152278292Y-109740610D01*
X152354010Y-109923411D01*
G04 #@! TA.AperFunction,Conductor*
D21*
G36*
X152354010Y-109923411D02*
G01*
X152516525Y-110166632D01*
X152723368Y-110373475D01*
X152897760Y-110490000D01*
X152723368Y-110606525D01*
X152516525Y-110813368D01*
X152354010Y-111056589D01*
X152242068Y-111326842D01*
X152185000Y-111613740D01*
X152185000Y-111906260D01*
X152242068Y-112193158D01*
X152354010Y-112463411D01*
X152516525Y-112706632D01*
X152723368Y-112913475D01*
X152897760Y-113030000D01*
X152723368Y-113146525D01*
X152516525Y-113353368D01*
X152354010Y-113596589D01*
X152242068Y-113866842D01*
X152185000Y-114153740D01*
X152185000Y-114446260D01*
X152242068Y-114733158D01*
X152354010Y-115003411D01*
X152516525Y-115246632D01*
X152723368Y-115453475D01*
X152897760Y-115570000D01*
X152723368Y-115686525D01*
X152516525Y-115893368D01*
X152354010Y-116136589D01*
X152242068Y-116406842D01*
X152185000Y-116693740D01*
X152185000Y-116986260D01*
X152242068Y-117273158D01*
X152354010Y-117543411D01*
X152516525Y-117786632D01*
X152723368Y-117993475D01*
X152896729Y-118109311D01*
X152821208Y-118351603D01*
X153670000Y-119200395D01*
X154518792Y-118351603D01*
X154443271Y-118109311D01*
X154616632Y-117993475D01*
X154823475Y-117786632D01*
X154940000Y-117612240D01*
X155056525Y-117786632D01*
X155263368Y-117993475D01*
X155437760Y-118110000D01*
X155263368Y-118226525D01*
X155056525Y-118433368D01*
X154940689Y-118606729D01*
X154698397Y-118531208D01*
X153849605Y-119380000D01*
X154698397Y-120228792D01*
X154940689Y-120153271D01*
X155056525Y-120326632D01*
X155263368Y-120533475D01*
X155437760Y-120650000D01*
X155263368Y-120766525D01*
X155056525Y-120973368D01*
X154940689Y-121146729D01*
X154698397Y-121071208D01*
X153849605Y-121920000D01*
X154698397Y-122768792D01*
X154940689Y-122693271D01*
X155056525Y-122866632D01*
X155263368Y-123073475D01*
X155437760Y-123190000D01*
X155263368Y-123306525D01*
X155056525Y-123513368D01*
X154940689Y-123686729D01*
X154698397Y-123611208D01*
X153849605Y-124460000D01*
X154698397Y-125308792D01*
X154940689Y-125233271D01*
X155056525Y-125406632D01*
X155263368Y-125613475D01*
X155437760Y-125730000D01*
X155263368Y-125846525D01*
X155056525Y-126053368D01*
X154940689Y-126226729D01*
X154698397Y-126151208D01*
X153849605Y-127000000D01*
X154698397Y-127848792D01*
X154940689Y-127773271D01*
X155056525Y-127946632D01*
X155263368Y-128153475D01*
X155437760Y-128270000D01*
X155263368Y-128386525D01*
X155056525Y-128593368D01*
X154940689Y-128766729D01*
X154698397Y-128691208D01*
X153849605Y-129540000D01*
X154698397Y-130388792D01*
X154940689Y-130313271D01*
X155056525Y-130486632D01*
X155263368Y-130693475D01*
X155437760Y-130810000D01*
X155263368Y-130926525D01*
X155056525Y-131133368D01*
X154940689Y-131306729D01*
X154698397Y-131231208D01*
X153849605Y-132080000D01*
X153863748Y-132094143D01*
X153684143Y-132273748D01*
X153670000Y-132259605D01*
X153655858Y-132273748D01*
X153476253Y-132094143D01*
X153490395Y-132080000D01*
X152641603Y-131231208D01*
X152392528Y-131308843D01*
X152349334Y-131399432D01*
X151518299Y-130568397D01*
X152821208Y-130568397D01*
X152896514Y-130810000D01*
X152821208Y-131051603D01*
X153670000Y-131900395D01*
X154518792Y-131051603D01*
X154443486Y-130810000D01*
X154518792Y-130568397D01*
X153670000Y-129719605D01*
X152821208Y-130568397D01*
X151518299Y-130568397D01*
X150558433Y-129608531D01*
X152179389Y-129608531D01*
X152221401Y-129898019D01*
X152319081Y-130173747D01*
X152392528Y-130311157D01*
X152641603Y-130388792D01*
X153490395Y-129540000D01*
X152641603Y-128691208D01*
X152392528Y-128768843D01*
X152266629Y-129032883D01*
X152194661Y-129316411D01*
X152179389Y-129608531D01*
X150558433Y-129608531D01*
X148978299Y-128028397D01*
X152821208Y-128028397D01*
X152896514Y-128270000D01*
X152821208Y-128511603D01*
X153670000Y-129360395D01*
X154518792Y-128511603D01*
X154443486Y-128270000D01*
X154518792Y-128028397D01*
X153670000Y-127179605D01*
X152821208Y-128028397D01*
X148978299Y-128028397D01*
X148810900Y-127860999D01*
X148810900Y-127068531D01*
X152179389Y-127068531D01*
X152221401Y-127358019D01*
X152319081Y-127633747D01*
X152392528Y-127771157D01*
X152641603Y-127848792D01*
X153490395Y-127000000D01*
X152641603Y-126151208D01*
X152392528Y-126228843D01*
X152266629Y-126492883D01*
X152194661Y-126776411D01*
X152179389Y-127068531D01*
X148810900Y-127068531D01*
X148810900Y-125488397D01*
X152821208Y-125488397D01*
X152896514Y-125730000D01*
X152821208Y-125971603D01*
X153670000Y-126820395D01*
X154518792Y-125971603D01*
X154443486Y-125730000D01*
X154518792Y-125488397D01*
X153670000Y-124639605D01*
X152821208Y-125488397D01*
X148810900Y-125488397D01*
X148810900Y-124528531D01*
X152179389Y-124528531D01*
X152221401Y-124818019D01*
X152319081Y-125093747D01*
X152392528Y-125231157D01*
X152641603Y-125308792D01*
X153490395Y-124460000D01*
X152641603Y-123611208D01*
X152392528Y-123688843D01*
X152266629Y-123952883D01*
X152194661Y-124236411D01*
X152179389Y-124528531D01*
X148810900Y-124528531D01*
X148810900Y-122948397D01*
X152821208Y-122948397D01*
X152896514Y-123190000D01*
X152821208Y-123431603D01*
X153670000Y-124280395D01*
X154518792Y-123431603D01*
X154443486Y-123190000D01*
X154518792Y-122948397D01*
X153670000Y-122099605D01*
X152821208Y-122948397D01*
X148810900Y-122948397D01*
X148810900Y-121988531D01*
X152179389Y-121988531D01*
X152221401Y-122278019D01*
X152319081Y-122553747D01*
X152392528Y-122691157D01*
X152641603Y-122768792D01*
X153490395Y-121920000D01*
X152641603Y-121071208D01*
X152392528Y-121148843D01*
X152266629Y-121412883D01*
X152194661Y-121696411D01*
X152179389Y-121988531D01*
X148810900Y-121988531D01*
X148810900Y-120408397D01*
X152821208Y-120408397D01*
X152896514Y-120650000D01*
X152821208Y-120891603D01*
X153670000Y-121740395D01*
X154518792Y-120891603D01*
X154443486Y-120650000D01*
X154518792Y-120408397D01*
X153670000Y-119559605D01*
X152821208Y-120408397D01*
X148810900Y-120408397D01*
X148810900Y-119448531D01*
X152179389Y-119448531D01*
X152221401Y-119738019D01*
X152319081Y-120013747D01*
X152392528Y-120151157D01*
X152641603Y-120228792D01*
X153490395Y-119380000D01*
X152641603Y-118531208D01*
X152392528Y-118608843D01*
X152266629Y-118872883D01*
X152194661Y-119156411D01*
X152179389Y-119448531D01*
X148810900Y-119448531D01*
X148810900Y-114622611D01*
X148854837Y-114578674D01*
X148968105Y-114409156D01*
X149046126Y-114220798D01*
X149085900Y-114020839D01*
X149085900Y-113816961D01*
X149046126Y-113617002D01*
X148968105Y-113428644D01*
X148854837Y-113259126D01*
X148807306Y-113211595D01*
X152278292Y-109740610D01*
X152354010Y-109923411D01*
G37*
G04 #@! TD.AperFunction*
D20*
X110953524Y-120928110D02*
X111074845Y-121158000D01*
X112268000Y-121158000D01*
X112268000Y-121138000D01*
X112522000Y-121138000D01*
X112522000Y-121158000D01*
X112542000Y-121158000D01*
X112542000Y-121412000D01*
X112522000Y-121412000D01*
X112522000Y-123698000D01*
X112542000Y-123698000D01*
X112542000Y-123952000D01*
X112522000Y-123952000D01*
X112522000Y-126238000D01*
X112542000Y-126238000D01*
X112542000Y-126492000D01*
X112522000Y-126492000D01*
X112522000Y-128778000D01*
X112542000Y-128778000D01*
X112542000Y-129032000D01*
X112522000Y-129032000D01*
X112522000Y-131318000D01*
X112542000Y-131318000D01*
X112542000Y-131572000D01*
X112522000Y-131572000D01*
X112522000Y-131592000D01*
X112268000Y-131592000D01*
X112268000Y-131572000D01*
X111074845Y-131572000D01*
X110953524Y-131801890D01*
X110971241Y-131860300D01*
X103630402Y-131860300D01*
X102704104Y-130934003D01*
X102680301Y-130904999D01*
X102564576Y-130810026D01*
X102432547Y-130739454D01*
X102289286Y-130695997D01*
X102247796Y-130691911D01*
X102118475Y-130498368D01*
X101911632Y-130291525D01*
X101737240Y-130175000D01*
X101911632Y-130058475D01*
X102118475Y-129851632D01*
X102280990Y-129608411D01*
X102392932Y-129338158D01*
X102408102Y-129261890D01*
X110953524Y-129261890D01*
X110998175Y-129409099D01*
X111123359Y-129671920D01*
X111297412Y-129905269D01*
X111513645Y-130100178D01*
X111639255Y-130175000D01*
X111513645Y-130249822D01*
X111297412Y-130444731D01*
X111123359Y-130678080D01*
X110998175Y-130940901D01*
X110953524Y-131088110D01*
X111074845Y-131318000D01*
X112268000Y-131318000D01*
X112268000Y-129032000D01*
X111074845Y-129032000D01*
X110953524Y-129261890D01*
X102408102Y-129261890D01*
X102450000Y-129051260D01*
X102450000Y-128758740D01*
X102392932Y-128471842D01*
X102280990Y-128201589D01*
X102118475Y-127958368D01*
X101911632Y-127751525D01*
X101737240Y-127635000D01*
X101911632Y-127518475D01*
X102118475Y-127311632D01*
X102280990Y-127068411D01*
X102392932Y-126798158D01*
X102408102Y-126721890D01*
X110953524Y-126721890D01*
X110998175Y-126869099D01*
X111123359Y-127131920D01*
X111297412Y-127365269D01*
X111513645Y-127560178D01*
X111639255Y-127635000D01*
X111513645Y-127709822D01*
X111297412Y-127904731D01*
X111123359Y-128138080D01*
X110998175Y-128400901D01*
X110953524Y-128548110D01*
X111074845Y-128778000D01*
X112268000Y-128778000D01*
X112268000Y-126492000D01*
X111074845Y-126492000D01*
X110953524Y-126721890D01*
X102408102Y-126721890D01*
X102450000Y-126511260D01*
X102450000Y-126218740D01*
X102392932Y-125931842D01*
X102280990Y-125661589D01*
X102118475Y-125418368D01*
X101911632Y-125211525D01*
X101737240Y-125095000D01*
X101911632Y-124978475D01*
X102118475Y-124771632D01*
X102280990Y-124528411D01*
X102392932Y-124258158D01*
X102408102Y-124181890D01*
X110953524Y-124181890D01*
X110998175Y-124329099D01*
X111123359Y-124591920D01*
X111297412Y-124825269D01*
X111513645Y-125020178D01*
X111639255Y-125095000D01*
X111513645Y-125169822D01*
X111297412Y-125364731D01*
X111123359Y-125598080D01*
X110998175Y-125860901D01*
X110953524Y-126008110D01*
X111074845Y-126238000D01*
X112268000Y-126238000D01*
X112268000Y-123952000D01*
X111074845Y-123952000D01*
X110953524Y-124181890D01*
X102408102Y-124181890D01*
X102450000Y-123971260D01*
X102450000Y-123678740D01*
X102392932Y-123391842D01*
X102280990Y-123121589D01*
X102118475Y-122878368D01*
X101911632Y-122671525D01*
X101737240Y-122555000D01*
X101911632Y-122438475D01*
X102118475Y-122231632D01*
X102247796Y-122038089D01*
X102289286Y-122034003D01*
X102432547Y-121990546D01*
X102564576Y-121919974D01*
X102680301Y-121825001D01*
X102704104Y-121795997D01*
X102858211Y-121641890D01*
X110953524Y-121641890D01*
X110998175Y-121789099D01*
X111123359Y-122051920D01*
X111297412Y-122285269D01*
X111513645Y-122480178D01*
X111639255Y-122555000D01*
X111513645Y-122629822D01*
X111297412Y-122824731D01*
X111123359Y-123058080D01*
X110998175Y-123320901D01*
X110953524Y-123468110D01*
X111074845Y-123698000D01*
X112268000Y-123698000D01*
X112268000Y-121412000D01*
X111074845Y-121412000D01*
X110953524Y-121641890D01*
X102858211Y-121641890D01*
X103630402Y-120869700D01*
X110971241Y-120869700D01*
X110953524Y-120928110D01*
G04 #@! TA.AperFunction,Conductor*
D21*
G36*
X110953524Y-120928110D02*
G01*
X111074845Y-121158000D01*
X112268000Y-121158000D01*
X112268000Y-121138000D01*
X112522000Y-121138000D01*
X112522000Y-121158000D01*
X112542000Y-121158000D01*
X112542000Y-121412000D01*
X112522000Y-121412000D01*
X112522000Y-123698000D01*
X112542000Y-123698000D01*
X112542000Y-123952000D01*
X112522000Y-123952000D01*
X112522000Y-126238000D01*
X112542000Y-126238000D01*
X112542000Y-126492000D01*
X112522000Y-126492000D01*
X112522000Y-128778000D01*
X112542000Y-128778000D01*
X112542000Y-129032000D01*
X112522000Y-129032000D01*
X112522000Y-131318000D01*
X112542000Y-131318000D01*
X112542000Y-131572000D01*
X112522000Y-131572000D01*
X112522000Y-131592000D01*
X112268000Y-131592000D01*
X112268000Y-131572000D01*
X111074845Y-131572000D01*
X110953524Y-131801890D01*
X110971241Y-131860300D01*
X103630402Y-131860300D01*
X102704104Y-130934003D01*
X102680301Y-130904999D01*
X102564576Y-130810026D01*
X102432547Y-130739454D01*
X102289286Y-130695997D01*
X102247796Y-130691911D01*
X102118475Y-130498368D01*
X101911632Y-130291525D01*
X101737240Y-130175000D01*
X101911632Y-130058475D01*
X102118475Y-129851632D01*
X102280990Y-129608411D01*
X102392932Y-129338158D01*
X102408102Y-129261890D01*
X110953524Y-129261890D01*
X110998175Y-129409099D01*
X111123359Y-129671920D01*
X111297412Y-129905269D01*
X111513645Y-130100178D01*
X111639255Y-130175000D01*
X111513645Y-130249822D01*
X111297412Y-130444731D01*
X111123359Y-130678080D01*
X110998175Y-130940901D01*
X110953524Y-131088110D01*
X111074845Y-131318000D01*
X112268000Y-131318000D01*
X112268000Y-129032000D01*
X111074845Y-129032000D01*
X110953524Y-129261890D01*
X102408102Y-129261890D01*
X102450000Y-129051260D01*
X102450000Y-128758740D01*
X102392932Y-128471842D01*
X102280990Y-128201589D01*
X102118475Y-127958368D01*
X101911632Y-127751525D01*
X101737240Y-127635000D01*
X101911632Y-127518475D01*
X102118475Y-127311632D01*
X102280990Y-127068411D01*
X102392932Y-126798158D01*
X102408102Y-126721890D01*
X110953524Y-126721890D01*
X110998175Y-126869099D01*
X111123359Y-127131920D01*
X111297412Y-127365269D01*
X111513645Y-127560178D01*
X111639255Y-127635000D01*
X111513645Y-127709822D01*
X111297412Y-127904731D01*
X111123359Y-128138080D01*
X110998175Y-128400901D01*
X110953524Y-128548110D01*
X111074845Y-128778000D01*
X112268000Y-128778000D01*
X112268000Y-126492000D01*
X111074845Y-126492000D01*
X110953524Y-126721890D01*
X102408102Y-126721890D01*
X102450000Y-126511260D01*
X102450000Y-126218740D01*
X102392932Y-125931842D01*
X102280990Y-125661589D01*
X102118475Y-125418368D01*
X101911632Y-125211525D01*
X101737240Y-125095000D01*
X101911632Y-124978475D01*
X102118475Y-124771632D01*
X102280990Y-124528411D01*
X102392932Y-124258158D01*
X102408102Y-124181890D01*
X110953524Y-124181890D01*
X110998175Y-124329099D01*
X111123359Y-124591920D01*
X111297412Y-124825269D01*
X111513645Y-125020178D01*
X111639255Y-125095000D01*
X111513645Y-125169822D01*
X111297412Y-125364731D01*
X111123359Y-125598080D01*
X110998175Y-125860901D01*
X110953524Y-126008110D01*
X111074845Y-126238000D01*
X112268000Y-126238000D01*
X112268000Y-123952000D01*
X111074845Y-123952000D01*
X110953524Y-124181890D01*
X102408102Y-124181890D01*
X102450000Y-123971260D01*
X102450000Y-123678740D01*
X102392932Y-123391842D01*
X102280990Y-123121589D01*
X102118475Y-122878368D01*
X101911632Y-122671525D01*
X101737240Y-122555000D01*
X101911632Y-122438475D01*
X102118475Y-122231632D01*
X102247796Y-122038089D01*
X102289286Y-122034003D01*
X102432547Y-121990546D01*
X102564576Y-121919974D01*
X102680301Y-121825001D01*
X102704104Y-121795997D01*
X102858211Y-121641890D01*
X110953524Y-121641890D01*
X110998175Y-121789099D01*
X111123359Y-122051920D01*
X111297412Y-122285269D01*
X111513645Y-122480178D01*
X111639255Y-122555000D01*
X111513645Y-122629822D01*
X111297412Y-122824731D01*
X111123359Y-123058080D01*
X110998175Y-123320901D01*
X110953524Y-123468110D01*
X111074845Y-123698000D01*
X112268000Y-123698000D01*
X112268000Y-121412000D01*
X111074845Y-121412000D01*
X110953524Y-121641890D01*
X102858211Y-121641890D01*
X103630402Y-120869700D01*
X110971241Y-120869700D01*
X110953524Y-120928110D01*
G37*
G04 #@! TD.AperFunction*
D20*
X131288700Y-83608184D02*
X131274783Y-83890512D01*
X131316213Y-84170130D01*
X131411397Y-84436292D01*
X131478329Y-84561514D01*
X131722298Y-84633097D01*
X132535395Y-83820000D01*
X132521253Y-83805858D01*
X132700858Y-83626253D01*
X132715000Y-83640395D01*
X132729143Y-83626253D01*
X132908748Y-83805858D01*
X132894605Y-83820000D01*
X132908748Y-83834143D01*
X132729143Y-84013748D01*
X132715000Y-83999605D01*
X131901903Y-84812702D01*
X131973486Y-85056671D01*
X132228996Y-85177571D01*
X132503184Y-85246300D01*
X132785512Y-85260217D01*
X133065130Y-85218787D01*
X133159001Y-85185217D01*
X133159001Y-85337197D01*
X130444255Y-88051944D01*
X130314374Y-87922063D01*
X130144856Y-87808795D01*
X129956498Y-87730774D01*
X129756539Y-87691000D01*
X129552661Y-87691000D01*
X129352702Y-87730774D01*
X129164344Y-87808795D01*
X128994826Y-87922063D01*
X128850663Y-88066226D01*
X128737395Y-88235744D01*
X128659374Y-88424102D01*
X128619600Y-88624061D01*
X128619600Y-88827939D01*
X128659374Y-89027898D01*
X128737395Y-89216256D01*
X128850663Y-89385774D01*
X128856001Y-89391112D01*
X128856000Y-99253778D01*
X128852324Y-99291100D01*
X128856000Y-99328422D01*
X128856000Y-99328432D01*
X128866997Y-99440085D01*
X128889623Y-99514674D01*
X128910454Y-99583346D01*
X128981026Y-99715376D01*
X129001011Y-99739727D01*
X129075999Y-99831101D01*
X129105002Y-99854903D01*
X129946501Y-100696403D01*
X129970299Y-100725401D01*
X130086024Y-100820374D01*
X130218053Y-100890946D01*
X130361314Y-100934403D01*
X130472967Y-100945400D01*
X130472976Y-100945400D01*
X130510299Y-100949076D01*
X130547622Y-100945400D01*
X131183499Y-100945400D01*
X129874199Y-102254700D01*
X129577333Y-102254700D01*
X129540000Y-102251023D01*
X129502667Y-102254700D01*
X129391014Y-102265697D01*
X129247753Y-102309154D01*
X129115724Y-102379726D01*
X128999999Y-102474699D01*
X128905026Y-102590424D01*
X128834454Y-102722453D01*
X128790997Y-102865714D01*
X128785842Y-102918053D01*
X128625241Y-103025363D01*
X128425363Y-103225241D01*
X128270000Y-103457759D01*
X128114637Y-103225241D01*
X127914759Y-103025363D01*
X127679727Y-102868320D01*
X127418574Y-102760147D01*
X127141335Y-102705000D01*
X126858665Y-102705000D01*
X126581426Y-102760147D01*
X126320273Y-102868320D01*
X126085241Y-103025363D01*
X125885363Y-103225241D01*
X125728320Y-103460273D01*
X125723933Y-103470865D01*
X125612385Y-103284869D01*
X125423414Y-103076481D01*
X125197420Y-102908963D01*
X124943087Y-102788754D01*
X124809039Y-102748096D01*
X124587000Y-102870085D01*
X124587000Y-104013000D01*
X124607000Y-104013000D01*
X124607000Y-104267000D01*
X124587000Y-104267000D01*
X124587000Y-105409915D01*
X124809039Y-105531904D01*
X124943087Y-105491246D01*
X125197420Y-105371037D01*
X125423414Y-105203519D01*
X125612385Y-104995131D01*
X125723933Y-104809135D01*
X125728320Y-104819727D01*
X125885363Y-105054759D01*
X126085241Y-105254637D01*
X126320273Y-105411680D01*
X126581426Y-105519853D01*
X126858665Y-105575000D01*
X127141335Y-105575000D01*
X127418574Y-105519853D01*
X127679727Y-105411680D01*
X127914759Y-105254637D01*
X128114637Y-105054759D01*
X128270000Y-104822241D01*
X128425363Y-105054759D01*
X128625241Y-105254637D01*
X128860273Y-105411680D01*
X129121426Y-105519853D01*
X129398665Y-105575000D01*
X129681335Y-105575000D01*
X129958574Y-105519853D01*
X130219727Y-105411680D01*
X130368769Y-105312094D01*
X130380100Y-105325901D01*
X130409098Y-105349699D01*
X131482558Y-106423160D01*
X131429844Y-106444995D01*
X131260326Y-106558263D01*
X131116163Y-106702426D01*
X131002895Y-106871944D01*
X130924874Y-107060302D01*
X130885100Y-107260261D01*
X130885100Y-107322398D01*
X130210303Y-107997196D01*
X130181299Y-108020999D01*
X130143937Y-108066525D01*
X130086326Y-108136724D01*
X130029923Y-108242246D01*
X130015754Y-108268754D01*
X129972297Y-108412015D01*
X129961300Y-108523668D01*
X129961300Y-108523678D01*
X129957624Y-108561000D01*
X129961300Y-108598323D01*
X129961300Y-110381276D01*
X129958574Y-110380147D01*
X129681335Y-110325000D01*
X129398665Y-110325000D01*
X129121426Y-110380147D01*
X128860273Y-110488320D01*
X128625241Y-110645363D01*
X128596053Y-110674551D01*
X123455504Y-105534003D01*
X123431701Y-105504999D01*
X123315976Y-105410026D01*
X123183947Y-105339454D01*
X123040686Y-105295997D01*
X122929033Y-105285000D01*
X122929022Y-105285000D01*
X122891700Y-105281324D01*
X122854378Y-105285000D01*
X116213178Y-105285000D01*
X116088475Y-105098368D01*
X115881632Y-104891525D01*
X115707240Y-104775000D01*
X115881632Y-104658475D01*
X116051067Y-104489040D01*
X123068091Y-104489040D01*
X123162930Y-104753881D01*
X123307615Y-104995131D01*
X123496586Y-105203519D01*
X123722580Y-105371037D01*
X123976913Y-105491246D01*
X124110961Y-105531904D01*
X124333000Y-105409915D01*
X124333000Y-104267000D01*
X123189376Y-104267000D01*
X123068091Y-104489040D01*
X116051067Y-104489040D01*
X116088475Y-104451632D01*
X116250990Y-104208411D01*
X116362932Y-103938158D01*
X116392211Y-103790960D01*
X123068091Y-103790960D01*
X123189376Y-104013000D01*
X124333000Y-104013000D01*
X124333000Y-102870085D01*
X124110961Y-102748096D01*
X123976913Y-102788754D01*
X123722580Y-102908963D01*
X123496586Y-103076481D01*
X123307615Y-103284869D01*
X123162930Y-103526119D01*
X123068091Y-103790960D01*
X116392211Y-103790960D01*
X116420000Y-103651260D01*
X116420000Y-103358740D01*
X116362932Y-103071842D01*
X116250990Y-102801589D01*
X116088475Y-102558368D01*
X115881632Y-102351525D01*
X115707240Y-102235000D01*
X115881632Y-102118475D01*
X116088475Y-101911632D01*
X116250990Y-101668411D01*
X116362932Y-101398158D01*
X116420000Y-101111260D01*
X116420000Y-100818740D01*
X116362932Y-100531842D01*
X116250990Y-100261589D01*
X116088475Y-100018368D01*
X115881632Y-99811525D01*
X115707240Y-99695000D01*
X115881632Y-99578475D01*
X116088475Y-99371632D01*
X116111146Y-99337702D01*
X124916903Y-99337702D01*
X124988486Y-99581671D01*
X125243996Y-99702571D01*
X125518184Y-99771300D01*
X125800512Y-99785217D01*
X126080130Y-99743787D01*
X126346292Y-99648603D01*
X126471514Y-99581671D01*
X126543097Y-99337702D01*
X125730000Y-98524605D01*
X124916903Y-99337702D01*
X116111146Y-99337702D01*
X116250990Y-99128411D01*
X116362932Y-98858158D01*
X116420000Y-98571260D01*
X116420000Y-98415512D01*
X124289783Y-98415512D01*
X124331213Y-98695130D01*
X124426397Y-98961292D01*
X124493329Y-99086514D01*
X124737298Y-99158097D01*
X125550395Y-98345000D01*
X125909605Y-98345000D01*
X126722702Y-99158097D01*
X126966671Y-99086514D01*
X127087571Y-98831004D01*
X127156300Y-98556816D01*
X127170217Y-98274488D01*
X127128787Y-97994870D01*
X127033603Y-97728708D01*
X126966671Y-97603486D01*
X126722702Y-97531903D01*
X125909605Y-98345000D01*
X125550395Y-98345000D01*
X124737298Y-97531903D01*
X124493329Y-97603486D01*
X124372429Y-97858996D01*
X124303700Y-98133184D01*
X124289783Y-98415512D01*
X116420000Y-98415512D01*
X116420000Y-98278740D01*
X116362932Y-97991842D01*
X116250990Y-97721589D01*
X116088475Y-97478368D01*
X115962405Y-97352298D01*
X124916903Y-97352298D01*
X125730000Y-98165395D01*
X126543097Y-97352298D01*
X126471514Y-97108329D01*
X126216004Y-96987429D01*
X125941816Y-96918700D01*
X125659488Y-96904783D01*
X125379870Y-96946213D01*
X125113708Y-97041397D01*
X124988486Y-97108329D01*
X124916903Y-97352298D01*
X115962405Y-97352298D01*
X115881632Y-97271525D01*
X115638411Y-97109010D01*
X115368158Y-96997068D01*
X115081260Y-96940000D01*
X114788740Y-96940000D01*
X114501842Y-96997068D01*
X114231589Y-97109010D01*
X114030000Y-97243707D01*
X114030000Y-91849607D01*
X114081903Y-91797704D01*
X114153486Y-92041671D01*
X114408996Y-92162571D01*
X114683184Y-92231300D01*
X114965512Y-92245217D01*
X115245130Y-92203787D01*
X115511292Y-92108603D01*
X115636514Y-92041671D01*
X115708097Y-91797702D01*
X114895000Y-90984605D01*
X114880858Y-90998748D01*
X114701253Y-90819143D01*
X114715395Y-90805000D01*
X114701253Y-90790858D01*
X114880858Y-90611253D01*
X114895000Y-90625395D01*
X114909143Y-90611253D01*
X115088748Y-90790858D01*
X115074605Y-90805000D01*
X115887702Y-91618097D01*
X116131671Y-91546514D01*
X116252571Y-91291004D01*
X116321300Y-91016816D01*
X116335217Y-90734488D01*
X116293787Y-90454870D01*
X116198603Y-90188708D01*
X116169842Y-90134900D01*
X118636978Y-90134900D01*
X118674300Y-90138576D01*
X118711622Y-90134900D01*
X118711633Y-90134900D01*
X118823286Y-90123903D01*
X118966547Y-90080446D01*
X119098576Y-90009874D01*
X119214301Y-89914901D01*
X119238104Y-89885897D01*
X123999701Y-85124301D01*
X123999700Y-93169381D01*
X123991789Y-93249700D01*
X123999700Y-93330019D01*
X123999700Y-93330021D01*
X124023357Y-93570215D01*
X124116848Y-93878414D01*
X124268669Y-94162451D01*
X124472986Y-94411414D01*
X124535384Y-94462622D01*
X124630677Y-94557916D01*
X124817248Y-94711030D01*
X125101286Y-94862852D01*
X125409484Y-94956343D01*
X125730000Y-94987912D01*
X126050516Y-94956343D01*
X126358715Y-94862852D01*
X126642752Y-94711030D01*
X126891713Y-94506713D01*
X127096030Y-94257752D01*
X127247852Y-93973715D01*
X127341343Y-93665516D01*
X127372912Y-93345000D01*
X127341343Y-93024484D01*
X127269700Y-92788309D01*
X127269700Y-85210450D01*
X127493665Y-85255000D01*
X127776335Y-85255000D01*
X128053574Y-85199853D01*
X128314727Y-85091680D01*
X128549759Y-84934637D01*
X128749637Y-84734759D01*
X128906680Y-84499727D01*
X129014853Y-84238574D01*
X129070000Y-83961335D01*
X129070000Y-83678665D01*
X129033688Y-83496114D01*
X129114902Y-83414900D01*
X131337149Y-83414900D01*
X131288700Y-83608184D01*
G04 #@! TA.AperFunction,Conductor*
D21*
G36*
X131288700Y-83608184D02*
G01*
X131274783Y-83890512D01*
X131316213Y-84170130D01*
X131411397Y-84436292D01*
X131478329Y-84561514D01*
X131722298Y-84633097D01*
X132535395Y-83820000D01*
X132521253Y-83805858D01*
X132700858Y-83626253D01*
X132715000Y-83640395D01*
X132729143Y-83626253D01*
X132908748Y-83805858D01*
X132894605Y-83820000D01*
X132908748Y-83834143D01*
X132729143Y-84013748D01*
X132715000Y-83999605D01*
X131901903Y-84812702D01*
X131973486Y-85056671D01*
X132228996Y-85177571D01*
X132503184Y-85246300D01*
X132785512Y-85260217D01*
X133065130Y-85218787D01*
X133159001Y-85185217D01*
X133159001Y-85337197D01*
X130444255Y-88051944D01*
X130314374Y-87922063D01*
X130144856Y-87808795D01*
X129956498Y-87730774D01*
X129756539Y-87691000D01*
X129552661Y-87691000D01*
X129352702Y-87730774D01*
X129164344Y-87808795D01*
X128994826Y-87922063D01*
X128850663Y-88066226D01*
X128737395Y-88235744D01*
X128659374Y-88424102D01*
X128619600Y-88624061D01*
X128619600Y-88827939D01*
X128659374Y-89027898D01*
X128737395Y-89216256D01*
X128850663Y-89385774D01*
X128856001Y-89391112D01*
X128856000Y-99253778D01*
X128852324Y-99291100D01*
X128856000Y-99328422D01*
X128856000Y-99328432D01*
X128866997Y-99440085D01*
X128889623Y-99514674D01*
X128910454Y-99583346D01*
X128981026Y-99715376D01*
X129001011Y-99739727D01*
X129075999Y-99831101D01*
X129105002Y-99854903D01*
X129946501Y-100696403D01*
X129970299Y-100725401D01*
X130086024Y-100820374D01*
X130218053Y-100890946D01*
X130361314Y-100934403D01*
X130472967Y-100945400D01*
X130472976Y-100945400D01*
X130510299Y-100949076D01*
X130547622Y-100945400D01*
X131183499Y-100945400D01*
X129874199Y-102254700D01*
X129577333Y-102254700D01*
X129540000Y-102251023D01*
X129502667Y-102254700D01*
X129391014Y-102265697D01*
X129247753Y-102309154D01*
X129115724Y-102379726D01*
X128999999Y-102474699D01*
X128905026Y-102590424D01*
X128834454Y-102722453D01*
X128790997Y-102865714D01*
X128785842Y-102918053D01*
X128625241Y-103025363D01*
X128425363Y-103225241D01*
X128270000Y-103457759D01*
X128114637Y-103225241D01*
X127914759Y-103025363D01*
X127679727Y-102868320D01*
X127418574Y-102760147D01*
X127141335Y-102705000D01*
X126858665Y-102705000D01*
X126581426Y-102760147D01*
X126320273Y-102868320D01*
X126085241Y-103025363D01*
X125885363Y-103225241D01*
X125728320Y-103460273D01*
X125723933Y-103470865D01*
X125612385Y-103284869D01*
X125423414Y-103076481D01*
X125197420Y-102908963D01*
X124943087Y-102788754D01*
X124809039Y-102748096D01*
X124587000Y-102870085D01*
X124587000Y-104013000D01*
X124607000Y-104013000D01*
X124607000Y-104267000D01*
X124587000Y-104267000D01*
X124587000Y-105409915D01*
X124809039Y-105531904D01*
X124943087Y-105491246D01*
X125197420Y-105371037D01*
X125423414Y-105203519D01*
X125612385Y-104995131D01*
X125723933Y-104809135D01*
X125728320Y-104819727D01*
X125885363Y-105054759D01*
X126085241Y-105254637D01*
X126320273Y-105411680D01*
X126581426Y-105519853D01*
X126858665Y-105575000D01*
X127141335Y-105575000D01*
X127418574Y-105519853D01*
X127679727Y-105411680D01*
X127914759Y-105254637D01*
X128114637Y-105054759D01*
X128270000Y-104822241D01*
X128425363Y-105054759D01*
X128625241Y-105254637D01*
X128860273Y-105411680D01*
X129121426Y-105519853D01*
X129398665Y-105575000D01*
X129681335Y-105575000D01*
X129958574Y-105519853D01*
X130219727Y-105411680D01*
X130368769Y-105312094D01*
X130380100Y-105325901D01*
X130409098Y-105349699D01*
X131482558Y-106423160D01*
X131429844Y-106444995D01*
X131260326Y-106558263D01*
X131116163Y-106702426D01*
X131002895Y-106871944D01*
X130924874Y-107060302D01*
X130885100Y-107260261D01*
X130885100Y-107322398D01*
X130210303Y-107997196D01*
X130181299Y-108020999D01*
X130143937Y-108066525D01*
X130086326Y-108136724D01*
X130029923Y-108242246D01*
X130015754Y-108268754D01*
X129972297Y-108412015D01*
X129961300Y-108523668D01*
X129961300Y-108523678D01*
X129957624Y-108561000D01*
X129961300Y-108598323D01*
X129961300Y-110381276D01*
X129958574Y-110380147D01*
X129681335Y-110325000D01*
X129398665Y-110325000D01*
X129121426Y-110380147D01*
X128860273Y-110488320D01*
X128625241Y-110645363D01*
X128596053Y-110674551D01*
X123455504Y-105534003D01*
X123431701Y-105504999D01*
X123315976Y-105410026D01*
X123183947Y-105339454D01*
X123040686Y-105295997D01*
X122929033Y-105285000D01*
X122929022Y-105285000D01*
X122891700Y-105281324D01*
X122854378Y-105285000D01*
X116213178Y-105285000D01*
X116088475Y-105098368D01*
X115881632Y-104891525D01*
X115707240Y-104775000D01*
X115881632Y-104658475D01*
X116051067Y-104489040D01*
X123068091Y-104489040D01*
X123162930Y-104753881D01*
X123307615Y-104995131D01*
X123496586Y-105203519D01*
X123722580Y-105371037D01*
X123976913Y-105491246D01*
X124110961Y-105531904D01*
X124333000Y-105409915D01*
X124333000Y-104267000D01*
X123189376Y-104267000D01*
X123068091Y-104489040D01*
X116051067Y-104489040D01*
X116088475Y-104451632D01*
X116250990Y-104208411D01*
X116362932Y-103938158D01*
X116392211Y-103790960D01*
X123068091Y-103790960D01*
X123189376Y-104013000D01*
X124333000Y-104013000D01*
X124333000Y-102870085D01*
X124110961Y-102748096D01*
X123976913Y-102788754D01*
X123722580Y-102908963D01*
X123496586Y-103076481D01*
X123307615Y-103284869D01*
X123162930Y-103526119D01*
X123068091Y-103790960D01*
X116392211Y-103790960D01*
X116420000Y-103651260D01*
X116420000Y-103358740D01*
X116362932Y-103071842D01*
X116250990Y-102801589D01*
X116088475Y-102558368D01*
X115881632Y-102351525D01*
X115707240Y-102235000D01*
X115881632Y-102118475D01*
X116088475Y-101911632D01*
X116250990Y-101668411D01*
X116362932Y-101398158D01*
X116420000Y-101111260D01*
X116420000Y-100818740D01*
X116362932Y-100531842D01*
X116250990Y-100261589D01*
X116088475Y-100018368D01*
X115881632Y-99811525D01*
X115707240Y-99695000D01*
X115881632Y-99578475D01*
X116088475Y-99371632D01*
X116111146Y-99337702D01*
X124916903Y-99337702D01*
X124988486Y-99581671D01*
X125243996Y-99702571D01*
X125518184Y-99771300D01*
X125800512Y-99785217D01*
X126080130Y-99743787D01*
X126346292Y-99648603D01*
X126471514Y-99581671D01*
X126543097Y-99337702D01*
X125730000Y-98524605D01*
X124916903Y-99337702D01*
X116111146Y-99337702D01*
X116250990Y-99128411D01*
X116362932Y-98858158D01*
X116420000Y-98571260D01*
X116420000Y-98415512D01*
X124289783Y-98415512D01*
X124331213Y-98695130D01*
X124426397Y-98961292D01*
X124493329Y-99086514D01*
X124737298Y-99158097D01*
X125550395Y-98345000D01*
X125909605Y-98345000D01*
X126722702Y-99158097D01*
X126966671Y-99086514D01*
X127087571Y-98831004D01*
X127156300Y-98556816D01*
X127170217Y-98274488D01*
X127128787Y-97994870D01*
X127033603Y-97728708D01*
X126966671Y-97603486D01*
X126722702Y-97531903D01*
X125909605Y-98345000D01*
X125550395Y-98345000D01*
X124737298Y-97531903D01*
X124493329Y-97603486D01*
X124372429Y-97858996D01*
X124303700Y-98133184D01*
X124289783Y-98415512D01*
X116420000Y-98415512D01*
X116420000Y-98278740D01*
X116362932Y-97991842D01*
X116250990Y-97721589D01*
X116088475Y-97478368D01*
X115962405Y-97352298D01*
X124916903Y-97352298D01*
X125730000Y-98165395D01*
X126543097Y-97352298D01*
X126471514Y-97108329D01*
X126216004Y-96987429D01*
X125941816Y-96918700D01*
X125659488Y-96904783D01*
X125379870Y-96946213D01*
X125113708Y-97041397D01*
X124988486Y-97108329D01*
X124916903Y-97352298D01*
X115962405Y-97352298D01*
X115881632Y-97271525D01*
X115638411Y-97109010D01*
X115368158Y-96997068D01*
X115081260Y-96940000D01*
X114788740Y-96940000D01*
X114501842Y-96997068D01*
X114231589Y-97109010D01*
X114030000Y-97243707D01*
X114030000Y-91849607D01*
X114081903Y-91797704D01*
X114153486Y-92041671D01*
X114408996Y-92162571D01*
X114683184Y-92231300D01*
X114965512Y-92245217D01*
X115245130Y-92203787D01*
X115511292Y-92108603D01*
X115636514Y-92041671D01*
X115708097Y-91797702D01*
X114895000Y-90984605D01*
X114880858Y-90998748D01*
X114701253Y-90819143D01*
X114715395Y-90805000D01*
X114701253Y-90790858D01*
X114880858Y-90611253D01*
X114895000Y-90625395D01*
X114909143Y-90611253D01*
X115088748Y-90790858D01*
X115074605Y-90805000D01*
X115887702Y-91618097D01*
X116131671Y-91546514D01*
X116252571Y-91291004D01*
X116321300Y-91016816D01*
X116335217Y-90734488D01*
X116293787Y-90454870D01*
X116198603Y-90188708D01*
X116169842Y-90134900D01*
X118636978Y-90134900D01*
X118674300Y-90138576D01*
X118711622Y-90134900D01*
X118711633Y-90134900D01*
X118823286Y-90123903D01*
X118966547Y-90080446D01*
X119098576Y-90009874D01*
X119214301Y-89914901D01*
X119238104Y-89885897D01*
X123999701Y-85124301D01*
X123999700Y-93169381D01*
X123991789Y-93249700D01*
X123999700Y-93330019D01*
X123999700Y-93330021D01*
X124023357Y-93570215D01*
X124116848Y-93878414D01*
X124268669Y-94162451D01*
X124472986Y-94411414D01*
X124535384Y-94462622D01*
X124630677Y-94557916D01*
X124817248Y-94711030D01*
X125101286Y-94862852D01*
X125409484Y-94956343D01*
X125730000Y-94987912D01*
X126050516Y-94956343D01*
X126358715Y-94862852D01*
X126642752Y-94711030D01*
X126891713Y-94506713D01*
X127096030Y-94257752D01*
X127247852Y-93973715D01*
X127341343Y-93665516D01*
X127372912Y-93345000D01*
X127341343Y-93024484D01*
X127269700Y-92788309D01*
X127269700Y-85210450D01*
X127493665Y-85255000D01*
X127776335Y-85255000D01*
X128053574Y-85199853D01*
X128314727Y-85091680D01*
X128549759Y-84934637D01*
X128749637Y-84734759D01*
X128906680Y-84499727D01*
X129014853Y-84238574D01*
X129070000Y-83961335D01*
X129070000Y-83678665D01*
X129033688Y-83496114D01*
X129114902Y-83414900D01*
X131337149Y-83414900D01*
X131288700Y-83608184D01*
G37*
G04 #@! TD.AperFunction*
G04 #@! TD*
M02*
