G04 #@! TF.GenerationSoftware,KiCad,Pcbnew,(5.1.9)-1*
G04 #@! TF.CreationDate,2021-12-30T22:55:07+09:00*
G04 #@! TF.ProjectId,FDSPlus_BX3,46445350-6c75-4735-9f42-58332e6b6963,rev?*
G04 #@! TF.SameCoordinates,Original*
G04 #@! TF.FileFunction,Legend,Top*
G04 #@! TF.FilePolarity,Positive*
%FSLAX46Y46*%
G04 Gerber Fmt 4.6, Leading zero omitted, Abs format (unit mm)*
G04 Created by KiCad (PCBNEW (5.1.9)-1) date 2021-12-30 22:55:07*
%MOMM*%
%LPD*%
G01*
G04 APERTURE LIST*
%ADD10C,0.150000*%
%ADD11C,0.120000*%
G04 APERTURE END LIST*
D10*
X104775000Y-93797380D02*
X104775000Y-92797380D01*
X142407142Y-95067380D02*
X142407142Y-94067380D01*
X142788095Y-94067380D01*
X142883333Y-94115000D01*
X142930952Y-94162619D01*
X142978571Y-94257857D01*
X142978571Y-94400714D01*
X142930952Y-94495952D01*
X142883333Y-94543571D01*
X142788095Y-94591190D01*
X142407142Y-94591190D01*
X143311904Y-94067380D02*
X143550000Y-95067380D01*
X143740476Y-94353095D01*
X143930952Y-95067380D01*
X144169047Y-94067380D01*
X145121428Y-95067380D02*
X144788095Y-94591190D01*
X144550000Y-95067380D02*
X144550000Y-94067380D01*
X144930952Y-94067380D01*
X145026190Y-94115000D01*
X145073809Y-94162619D01*
X145121428Y-94257857D01*
X145121428Y-94400714D01*
X145073809Y-94495952D01*
X145026190Y-94543571D01*
X144930952Y-94591190D01*
X144550000Y-94591190D01*
X145311904Y-95162619D02*
X146073809Y-95162619D01*
X146264285Y-95019761D02*
X146407142Y-95067380D01*
X146645238Y-95067380D01*
X146740476Y-95019761D01*
X146788095Y-94972142D01*
X146835714Y-94876904D01*
X146835714Y-94781666D01*
X146788095Y-94686428D01*
X146740476Y-94638809D01*
X146645238Y-94591190D01*
X146454761Y-94543571D01*
X146359523Y-94495952D01*
X146311904Y-94448333D01*
X146264285Y-94353095D01*
X146264285Y-94257857D01*
X146311904Y-94162619D01*
X146359523Y-94115000D01*
X146454761Y-94067380D01*
X146692857Y-94067380D01*
X146835714Y-94115000D01*
X147264285Y-94543571D02*
X147597619Y-94543571D01*
X147740476Y-95067380D02*
X147264285Y-95067380D01*
X147264285Y-94067380D01*
X147740476Y-94067380D01*
X148169047Y-95067380D02*
X148169047Y-94067380D01*
X148740476Y-95067380D01*
X148740476Y-94067380D01*
X149169047Y-95019761D02*
X149311904Y-95067380D01*
X149550000Y-95067380D01*
X149645238Y-95019761D01*
X149692857Y-94972142D01*
X149740476Y-94876904D01*
X149740476Y-94781666D01*
X149692857Y-94686428D01*
X149645238Y-94638809D01*
X149550000Y-94591190D01*
X149359523Y-94543571D01*
X149264285Y-94495952D01*
X149216666Y-94448333D01*
X149169047Y-94353095D01*
X149169047Y-94257857D01*
X149216666Y-94162619D01*
X149264285Y-94115000D01*
X149359523Y-94067380D01*
X149597619Y-94067380D01*
X149740476Y-94115000D01*
X138628809Y-83637380D02*
X138628809Y-82637380D01*
X138962142Y-83351666D01*
X139295476Y-82637380D01*
X139295476Y-83637380D01*
X139724047Y-83589761D02*
X139866904Y-83637380D01*
X140105000Y-83637380D01*
X140200238Y-83589761D01*
X140247857Y-83542142D01*
X140295476Y-83446904D01*
X140295476Y-83351666D01*
X140247857Y-83256428D01*
X140200238Y-83208809D01*
X140105000Y-83161190D01*
X139914523Y-83113571D01*
X139819285Y-83065952D01*
X139771666Y-83018333D01*
X139724047Y-82923095D01*
X139724047Y-82827857D01*
X139771666Y-82732619D01*
X139819285Y-82685000D01*
X139914523Y-82637380D01*
X140152619Y-82637380D01*
X140295476Y-82685000D01*
X140914523Y-82637380D02*
X141009761Y-82637380D01*
X141105000Y-82685000D01*
X141152619Y-82732619D01*
X141200238Y-82827857D01*
X141247857Y-83018333D01*
X141247857Y-83256428D01*
X141200238Y-83446904D01*
X141152619Y-83542142D01*
X141105000Y-83589761D01*
X141009761Y-83637380D01*
X140914523Y-83637380D01*
X140819285Y-83589761D01*
X140771666Y-83542142D01*
X140724047Y-83446904D01*
X140676428Y-83256428D01*
X140676428Y-83018333D01*
X140724047Y-82827857D01*
X140771666Y-82732619D01*
X140819285Y-82685000D01*
X140914523Y-82637380D01*
X143200238Y-83637380D02*
X143200238Y-82637380D01*
X143200238Y-83113571D02*
X143771666Y-83113571D01*
X143771666Y-83637380D02*
X143771666Y-82637380D01*
X144724047Y-83637380D02*
X144247857Y-83637380D01*
X144247857Y-82637380D01*
X166113333Y-90606428D02*
X166065714Y-90654047D01*
X165922857Y-90749285D01*
X165827619Y-90796904D01*
X165684761Y-90844523D01*
X165446666Y-90892142D01*
X165256190Y-90892142D01*
X165018095Y-90844523D01*
X164875238Y-90796904D01*
X164780000Y-90749285D01*
X164637142Y-90654047D01*
X164589523Y-90606428D01*
X165732380Y-90225476D02*
X164732380Y-90225476D01*
X165208571Y-90225476D02*
X165208571Y-89654047D01*
X165732380Y-89654047D02*
X164732380Y-89654047D01*
X165732380Y-88701666D02*
X165732380Y-89177857D01*
X164732380Y-89177857D01*
X166113333Y-88463571D02*
X166065714Y-88415952D01*
X165922857Y-88320714D01*
X165827619Y-88273095D01*
X165684761Y-88225476D01*
X165446666Y-88177857D01*
X165256190Y-88177857D01*
X165018095Y-88225476D01*
X164875238Y-88273095D01*
X164780000Y-88320714D01*
X164637142Y-88415952D01*
X164589523Y-88463571D01*
X137819285Y-77922380D02*
X137819285Y-76922380D01*
X138200238Y-76922380D01*
X138295476Y-76970000D01*
X138343095Y-77017619D01*
X138390714Y-77112857D01*
X138390714Y-77255714D01*
X138343095Y-77350952D01*
X138295476Y-77398571D01*
X138200238Y-77446190D01*
X137819285Y-77446190D01*
X139247857Y-77255714D02*
X139247857Y-77922380D01*
X139009761Y-76874761D02*
X138771666Y-77589047D01*
X139390714Y-77589047D01*
X140485952Y-77874761D02*
X140628809Y-77922380D01*
X140866904Y-77922380D01*
X140962142Y-77874761D01*
X141009761Y-77827142D01*
X141057380Y-77731904D01*
X141057380Y-77636666D01*
X141009761Y-77541428D01*
X140962142Y-77493809D01*
X140866904Y-77446190D01*
X140676428Y-77398571D01*
X140581190Y-77350952D01*
X140533571Y-77303333D01*
X140485952Y-77208095D01*
X140485952Y-77112857D01*
X140533571Y-77017619D01*
X140581190Y-76970000D01*
X140676428Y-76922380D01*
X140914523Y-76922380D01*
X141057380Y-76970000D01*
X141485952Y-77398571D02*
X141819285Y-77398571D01*
X141962142Y-77922380D02*
X141485952Y-77922380D01*
X141485952Y-76922380D01*
X141962142Y-76922380D01*
X142866904Y-77922380D02*
X142390714Y-77922380D01*
X142390714Y-76922380D01*
X143200238Y-77398571D02*
X143533571Y-77398571D01*
X143676428Y-77922380D02*
X143200238Y-77922380D01*
X143200238Y-76922380D01*
X143676428Y-76922380D01*
X144676428Y-77827142D02*
X144628809Y-77874761D01*
X144485952Y-77922380D01*
X144390714Y-77922380D01*
X144247857Y-77874761D01*
X144152619Y-77779523D01*
X144105000Y-77684285D01*
X144057380Y-77493809D01*
X144057380Y-77350952D01*
X144105000Y-77160476D01*
X144152619Y-77065238D01*
X144247857Y-76970000D01*
X144390714Y-76922380D01*
X144485952Y-76922380D01*
X144628809Y-76970000D01*
X144676428Y-77017619D01*
X144962142Y-76922380D02*
X145533571Y-76922380D01*
X145247857Y-77922380D02*
X145247857Y-76922380D01*
D11*
X110490000Y-118745000D02*
X110490000Y-113665000D01*
X109220000Y-95885000D02*
X118110000Y-95885000D01*
X110490000Y-113665000D02*
X109220000Y-113665000D01*
X109220000Y-113665000D02*
X109220000Y-95885000D01*
X109220000Y-118745000D02*
X110490000Y-118745000D01*
X109220000Y-118745000D02*
X109220000Y-113665000D01*
X109220000Y-136525000D02*
X109220000Y-118745000D01*
X118110000Y-95885000D02*
X118110000Y-136525000D01*
X118110000Y-136525000D02*
X109220000Y-136525000D01*
D10*
X106934047Y-93416428D02*
X107695952Y-93416428D01*
X101949285Y-93749761D02*
X102092142Y-93797380D01*
X102330238Y-93797380D01*
X102425476Y-93749761D01*
X102473095Y-93702142D01*
X102520714Y-93606904D01*
X102520714Y-93511666D01*
X102473095Y-93416428D01*
X102425476Y-93368809D01*
X102330238Y-93321190D01*
X102139761Y-93273571D01*
X102044523Y-93225952D01*
X101996904Y-93178333D01*
X101949285Y-93083095D01*
X101949285Y-92987857D01*
X101996904Y-92892619D01*
X102044523Y-92845000D01*
X102139761Y-92797380D01*
X102377857Y-92797380D01*
X102520714Y-92845000D01*
X100004523Y-93797380D02*
X99528333Y-93797380D01*
X99528333Y-92797380D01*
X96774047Y-93416428D02*
X97535952Y-93416428D01*
X97155000Y-93797380D02*
X97155000Y-93035476D01*
X94432380Y-88963095D02*
X93432380Y-88963095D01*
X94146666Y-88629761D01*
X93432380Y-88296428D01*
X94432380Y-88296428D01*
X93432380Y-87629761D02*
X93432380Y-87439285D01*
X93480000Y-87344047D01*
X93575238Y-87248809D01*
X93765714Y-87201190D01*
X94099047Y-87201190D01*
X94289523Y-87248809D01*
X94384761Y-87344047D01*
X94432380Y-87439285D01*
X94432380Y-87629761D01*
X94384761Y-87725000D01*
X94289523Y-87820238D01*
X94099047Y-87867857D01*
X93765714Y-87867857D01*
X93575238Y-87820238D01*
X93480000Y-87725000D01*
X93432380Y-87629761D01*
X94432380Y-86772619D02*
X93432380Y-86772619D01*
X93432380Y-86534523D01*
X93480000Y-86391666D01*
X93575238Y-86296428D01*
X93670476Y-86248809D01*
X93860952Y-86201190D01*
X94003809Y-86201190D01*
X94194285Y-86248809D01*
X94289523Y-86296428D01*
X94384761Y-86391666D01*
X94432380Y-86534523D01*
X94432380Y-86772619D01*
X93908571Y-85772619D02*
X93908571Y-85439285D01*
X94432380Y-85296428D02*
X94432380Y-85772619D01*
X93432380Y-85772619D01*
X93432380Y-85296428D01*
X94384761Y-84153571D02*
X94432380Y-84010714D01*
X94432380Y-83772619D01*
X94384761Y-83677380D01*
X94337142Y-83629761D01*
X94241904Y-83582142D01*
X94146666Y-83582142D01*
X94051428Y-83629761D01*
X94003809Y-83677380D01*
X93956190Y-83772619D01*
X93908571Y-83963095D01*
X93860952Y-84058333D01*
X93813333Y-84105952D01*
X93718095Y-84153571D01*
X93622857Y-84153571D01*
X93527619Y-84105952D01*
X93480000Y-84058333D01*
X93432380Y-83963095D01*
X93432380Y-83725000D01*
X93480000Y-83582142D01*
X93432380Y-83248809D02*
X94432380Y-83010714D01*
X93718095Y-82820238D01*
X94432380Y-82629761D01*
X93432380Y-82391666D01*
X140206666Y-119468571D02*
X139873333Y-119468571D01*
X139873333Y-119992380D02*
X139873333Y-118992380D01*
X140349523Y-118992380D01*
X140730476Y-119992380D02*
X140730476Y-118992380D01*
X140968571Y-118992380D01*
X141111428Y-119040000D01*
X141206666Y-119135238D01*
X141254285Y-119230476D01*
X141301904Y-119420952D01*
X141301904Y-119563809D01*
X141254285Y-119754285D01*
X141206666Y-119849523D01*
X141111428Y-119944761D01*
X140968571Y-119992380D01*
X140730476Y-119992380D01*
X141635238Y-118992380D02*
X142301904Y-119992380D01*
X142301904Y-118992380D02*
X141635238Y-119992380D01*
X134063809Y-118992380D02*
X134682857Y-118992380D01*
X134349523Y-119373333D01*
X134492380Y-119373333D01*
X134587619Y-119420952D01*
X134635238Y-119468571D01*
X134682857Y-119563809D01*
X134682857Y-119801904D01*
X134635238Y-119897142D01*
X134587619Y-119944761D01*
X134492380Y-119992380D01*
X134206666Y-119992380D01*
X134111428Y-119944761D01*
X134063809Y-119897142D01*
X135111428Y-119897142D02*
X135159047Y-119944761D01*
X135111428Y-119992380D01*
X135063809Y-119944761D01*
X135111428Y-119897142D01*
X135111428Y-119992380D01*
X136063809Y-118992380D02*
X135587619Y-118992380D01*
X135540000Y-119468571D01*
X135587619Y-119420952D01*
X135682857Y-119373333D01*
X135920952Y-119373333D01*
X136016190Y-119420952D01*
X136063809Y-119468571D01*
X136111428Y-119563809D01*
X136111428Y-119801904D01*
X136063809Y-119897142D01*
X136016190Y-119944761D01*
X135920952Y-119992380D01*
X135682857Y-119992380D01*
X135587619Y-119944761D01*
X135540000Y-119897142D01*
X136873333Y-119468571D02*
X136540000Y-119468571D01*
X136540000Y-119992380D02*
X136540000Y-118992380D01*
X137016190Y-118992380D01*
X137397142Y-119992380D02*
X137397142Y-118992380D01*
X137635238Y-118992380D01*
X137778095Y-119040000D01*
X137873333Y-119135238D01*
X137920952Y-119230476D01*
X137968571Y-119420952D01*
X137968571Y-119563809D01*
X137920952Y-119754285D01*
X137873333Y-119849523D01*
X137778095Y-119944761D01*
X137635238Y-119992380D01*
X137397142Y-119992380D01*
X129206666Y-119468571D02*
X128873333Y-119468571D01*
X128873333Y-119992380D02*
X128873333Y-118992380D01*
X129349523Y-118992380D01*
X129730476Y-119992380D02*
X129730476Y-118992380D01*
X129968571Y-118992380D01*
X130111428Y-119040000D01*
X130206666Y-119135238D01*
X130254285Y-119230476D01*
X130301904Y-119420952D01*
X130301904Y-119563809D01*
X130254285Y-119754285D01*
X130206666Y-119849523D01*
X130111428Y-119944761D01*
X129968571Y-119992380D01*
X129730476Y-119992380D01*
X130635238Y-118992380D02*
X131301904Y-119992380D01*
X131301904Y-118992380D02*
X130635238Y-119992380D01*
X123063809Y-118992380D02*
X123682857Y-118992380D01*
X123349523Y-119373333D01*
X123492380Y-119373333D01*
X123587619Y-119420952D01*
X123635238Y-119468571D01*
X123682857Y-119563809D01*
X123682857Y-119801904D01*
X123635238Y-119897142D01*
X123587619Y-119944761D01*
X123492380Y-119992380D01*
X123206666Y-119992380D01*
X123111428Y-119944761D01*
X123063809Y-119897142D01*
X124111428Y-119897142D02*
X124159047Y-119944761D01*
X124111428Y-119992380D01*
X124063809Y-119944761D01*
X124111428Y-119897142D01*
X124111428Y-119992380D01*
X125063809Y-118992380D02*
X124587619Y-118992380D01*
X124540000Y-119468571D01*
X124587619Y-119420952D01*
X124682857Y-119373333D01*
X124920952Y-119373333D01*
X125016190Y-119420952D01*
X125063809Y-119468571D01*
X125111428Y-119563809D01*
X125111428Y-119801904D01*
X125063809Y-119897142D01*
X125016190Y-119944761D01*
X124920952Y-119992380D01*
X124682857Y-119992380D01*
X124587619Y-119944761D01*
X124540000Y-119897142D01*
X125873333Y-119468571D02*
X125540000Y-119468571D01*
X125540000Y-119992380D02*
X125540000Y-118992380D01*
X126016190Y-118992380D01*
X126397142Y-119992380D02*
X126397142Y-118992380D01*
X126635238Y-118992380D01*
X126778095Y-119040000D01*
X126873333Y-119135238D01*
X126920952Y-119230476D01*
X126968571Y-119420952D01*
X126968571Y-119563809D01*
X126920952Y-119754285D01*
X126873333Y-119849523D01*
X126778095Y-119944761D01*
X126635238Y-119992380D01*
X126397142Y-119992380D01*
X137215714Y-121737380D02*
X137215714Y-120737380D01*
X137453809Y-120737380D01*
X137596666Y-120785000D01*
X137691904Y-120880238D01*
X137739523Y-120975476D01*
X137787142Y-121165952D01*
X137787142Y-121308809D01*
X137739523Y-121499285D01*
X137691904Y-121594523D01*
X137596666Y-121689761D01*
X137453809Y-121737380D01*
X137215714Y-121737380D01*
X138168095Y-121689761D02*
X138310952Y-121737380D01*
X138549047Y-121737380D01*
X138644285Y-121689761D01*
X138691904Y-121642142D01*
X138739523Y-121546904D01*
X138739523Y-121451666D01*
X138691904Y-121356428D01*
X138644285Y-121308809D01*
X138549047Y-121261190D01*
X138358571Y-121213571D01*
X138263333Y-121165952D01*
X138215714Y-121118333D01*
X138168095Y-121023095D01*
X138168095Y-120927857D01*
X138215714Y-120832619D01*
X138263333Y-120785000D01*
X138358571Y-120737380D01*
X138596666Y-120737380D01*
X138739523Y-120785000D01*
X139691904Y-121737380D02*
X139120476Y-121737380D01*
X139406190Y-121737380D02*
X139406190Y-120737380D01*
X139310952Y-120880238D01*
X139215714Y-120975476D01*
X139120476Y-121023095D01*
X125785714Y-121737380D02*
X125785714Y-120737380D01*
X126023809Y-120737380D01*
X126166666Y-120785000D01*
X126261904Y-120880238D01*
X126309523Y-120975476D01*
X126357142Y-121165952D01*
X126357142Y-121308809D01*
X126309523Y-121499285D01*
X126261904Y-121594523D01*
X126166666Y-121689761D01*
X126023809Y-121737380D01*
X125785714Y-121737380D01*
X126738095Y-121689761D02*
X126880952Y-121737380D01*
X127119047Y-121737380D01*
X127214285Y-121689761D01*
X127261904Y-121642142D01*
X127309523Y-121546904D01*
X127309523Y-121451666D01*
X127261904Y-121356428D01*
X127214285Y-121308809D01*
X127119047Y-121261190D01*
X126928571Y-121213571D01*
X126833333Y-121165952D01*
X126785714Y-121118333D01*
X126738095Y-121023095D01*
X126738095Y-120927857D01*
X126785714Y-120832619D01*
X126833333Y-120785000D01*
X126928571Y-120737380D01*
X127166666Y-120737380D01*
X127309523Y-120785000D01*
X127928571Y-120737380D02*
X128023809Y-120737380D01*
X128119047Y-120785000D01*
X128166666Y-120832619D01*
X128214285Y-120927857D01*
X128261904Y-121118333D01*
X128261904Y-121356428D01*
X128214285Y-121546904D01*
X128166666Y-121642142D01*
X128119047Y-121689761D01*
X128023809Y-121737380D01*
X127928571Y-121737380D01*
X127833333Y-121689761D01*
X127785714Y-121642142D01*
X127738095Y-121546904D01*
X127690476Y-121356428D01*
X127690476Y-121118333D01*
X127738095Y-120927857D01*
X127785714Y-120832619D01*
X127833333Y-120785000D01*
X127928571Y-120737380D01*
X163917380Y-117188809D02*
X163917380Y-117665000D01*
X164393571Y-117712619D01*
X164345952Y-117665000D01*
X164298333Y-117569761D01*
X164298333Y-117331666D01*
X164345952Y-117236428D01*
X164393571Y-117188809D01*
X164488809Y-117141190D01*
X164726904Y-117141190D01*
X164822142Y-117188809D01*
X164869761Y-117236428D01*
X164917380Y-117331666D01*
X164917380Y-117569761D01*
X164869761Y-117665000D01*
X164822142Y-117712619D01*
X164917380Y-115950714D02*
X164250714Y-115950714D01*
X163917380Y-115950714D02*
X163965000Y-115998333D01*
X164012619Y-115950714D01*
X163965000Y-115903095D01*
X163917380Y-115950714D01*
X164012619Y-115950714D01*
X164250714Y-115474523D02*
X164917380Y-115474523D01*
X164345952Y-115474523D02*
X164298333Y-115426904D01*
X164250714Y-115331666D01*
X164250714Y-115188809D01*
X164298333Y-115093571D01*
X164393571Y-115045952D01*
X164917380Y-115045952D01*
X164869761Y-114141190D02*
X164917380Y-114236428D01*
X164917380Y-114426904D01*
X164869761Y-114522142D01*
X164822142Y-114569761D01*
X164726904Y-114617380D01*
X164441190Y-114617380D01*
X164345952Y-114569761D01*
X164298333Y-114522142D01*
X164250714Y-114426904D01*
X164250714Y-114236428D01*
X164298333Y-114141190D01*
X164917380Y-113712619D02*
X163917380Y-113712619D01*
X164917380Y-113284047D02*
X164393571Y-113284047D01*
X164298333Y-113331666D01*
X164250714Y-113426904D01*
X164250714Y-113569761D01*
X164298333Y-113665000D01*
X164345952Y-113712619D01*
X164393571Y-111712619D02*
X164393571Y-112045952D01*
X164917380Y-112045952D02*
X163917380Y-112045952D01*
X163917380Y-111569761D01*
X164917380Y-111188809D02*
X163917380Y-111188809D01*
X163917380Y-110950714D01*
X163965000Y-110807857D01*
X164060238Y-110712619D01*
X164155476Y-110665000D01*
X164345952Y-110617380D01*
X164488809Y-110617380D01*
X164679285Y-110665000D01*
X164774523Y-110712619D01*
X164869761Y-110807857D01*
X164917380Y-110950714D01*
X164917380Y-111188809D01*
X164917380Y-110188809D02*
X163917380Y-110188809D01*
X163917380Y-109950714D01*
X163965000Y-109807857D01*
X164060238Y-109712619D01*
X164155476Y-109665000D01*
X164345952Y-109617380D01*
X164488809Y-109617380D01*
X164679285Y-109665000D01*
X164774523Y-109712619D01*
X164869761Y-109807857D01*
X164917380Y-109950714D01*
X164917380Y-110188809D01*
X147883571Y-115450714D02*
X147883571Y-115784047D01*
X148407380Y-115784047D02*
X147407380Y-115784047D01*
X147407380Y-115307857D01*
X148407380Y-114926904D02*
X147407380Y-114926904D01*
X147407380Y-114688809D01*
X147455000Y-114545952D01*
X147550238Y-114450714D01*
X147645476Y-114403095D01*
X147835952Y-114355476D01*
X147978809Y-114355476D01*
X148169285Y-114403095D01*
X148264523Y-114450714D01*
X148359761Y-114545952D01*
X148407380Y-114688809D01*
X148407380Y-114926904D01*
X147407380Y-114022142D02*
X148407380Y-113355476D01*
X147407380Y-113355476D02*
X148407380Y-114022142D01*
X147407380Y-112545952D02*
X147407380Y-112736428D01*
X147455000Y-112831666D01*
X147502619Y-112879285D01*
X147645476Y-112974523D01*
X147835952Y-113022142D01*
X148216904Y-113022142D01*
X148312142Y-112974523D01*
X148359761Y-112926904D01*
X148407380Y-112831666D01*
X148407380Y-112641190D01*
X148359761Y-112545952D01*
X148312142Y-112498333D01*
X148216904Y-112450714D01*
X147978809Y-112450714D01*
X147883571Y-112498333D01*
X147835952Y-112545952D01*
X147788333Y-112641190D01*
X147788333Y-112831666D01*
X147835952Y-112926904D01*
X147883571Y-112974523D01*
X147978809Y-113022142D01*
X147835952Y-111879285D02*
X147788333Y-111974523D01*
X147740714Y-112022142D01*
X147645476Y-112069761D01*
X147597857Y-112069761D01*
X147502619Y-112022142D01*
X147455000Y-111974523D01*
X147407380Y-111879285D01*
X147407380Y-111688809D01*
X147455000Y-111593571D01*
X147502619Y-111545952D01*
X147597857Y-111498333D01*
X147645476Y-111498333D01*
X147740714Y-111545952D01*
X147788333Y-111593571D01*
X147835952Y-111688809D01*
X147835952Y-111879285D01*
X147883571Y-111974523D01*
X147931190Y-112022142D01*
X148026428Y-112069761D01*
X148216904Y-112069761D01*
X148312142Y-112022142D01*
X148359761Y-111974523D01*
X148407380Y-111879285D01*
X148407380Y-111688809D01*
X148359761Y-111593571D01*
X148312142Y-111545952D01*
X148216904Y-111498333D01*
X148026428Y-111498333D01*
X147931190Y-111545952D01*
X147883571Y-111593571D01*
X147835952Y-111688809D01*
X106767380Y-120379523D02*
X106767380Y-119760476D01*
X107148333Y-120093809D01*
X107148333Y-119950952D01*
X107195952Y-119855714D01*
X107243571Y-119808095D01*
X107338809Y-119760476D01*
X107576904Y-119760476D01*
X107672142Y-119808095D01*
X107719761Y-119855714D01*
X107767380Y-119950952D01*
X107767380Y-120236666D01*
X107719761Y-120331904D01*
X107672142Y-120379523D01*
X107672142Y-119331904D02*
X107719761Y-119284285D01*
X107767380Y-119331904D01*
X107719761Y-119379523D01*
X107672142Y-119331904D01*
X107767380Y-119331904D01*
X106767380Y-118379523D02*
X106767380Y-118855714D01*
X107243571Y-118903333D01*
X107195952Y-118855714D01*
X107148333Y-118760476D01*
X107148333Y-118522380D01*
X107195952Y-118427142D01*
X107243571Y-118379523D01*
X107338809Y-118331904D01*
X107576904Y-118331904D01*
X107672142Y-118379523D01*
X107719761Y-118427142D01*
X107767380Y-118522380D01*
X107767380Y-118760476D01*
X107719761Y-118855714D01*
X107672142Y-118903333D01*
X107767380Y-117141428D02*
X107100714Y-117141428D01*
X106767380Y-117141428D02*
X106815000Y-117189047D01*
X106862619Y-117141428D01*
X106815000Y-117093809D01*
X106767380Y-117141428D01*
X106862619Y-117141428D01*
X107100714Y-116665238D02*
X107767380Y-116665238D01*
X107195952Y-116665238D02*
X107148333Y-116617619D01*
X107100714Y-116522380D01*
X107100714Y-116379523D01*
X107148333Y-116284285D01*
X107243571Y-116236666D01*
X107767380Y-116236666D01*
X107719761Y-115331904D02*
X107767380Y-115427142D01*
X107767380Y-115617619D01*
X107719761Y-115712857D01*
X107672142Y-115760476D01*
X107576904Y-115808095D01*
X107291190Y-115808095D01*
X107195952Y-115760476D01*
X107148333Y-115712857D01*
X107100714Y-115617619D01*
X107100714Y-115427142D01*
X107148333Y-115331904D01*
X107767380Y-114903333D02*
X106767380Y-114903333D01*
X107767380Y-114474761D02*
X107243571Y-114474761D01*
X107148333Y-114522380D01*
X107100714Y-114617619D01*
X107100714Y-114760476D01*
X107148333Y-114855714D01*
X107195952Y-114903333D01*
X107243571Y-112903333D02*
X107243571Y-113236666D01*
X107767380Y-113236666D02*
X106767380Y-113236666D01*
X106767380Y-112760476D01*
X107767380Y-112379523D02*
X106767380Y-112379523D01*
X106767380Y-112141428D01*
X106815000Y-111998571D01*
X106910238Y-111903333D01*
X107005476Y-111855714D01*
X107195952Y-111808095D01*
X107338809Y-111808095D01*
X107529285Y-111855714D01*
X107624523Y-111903333D01*
X107719761Y-111998571D01*
X107767380Y-112141428D01*
X107767380Y-112379523D01*
X107767380Y-111379523D02*
X106767380Y-111379523D01*
X106767380Y-111141428D01*
X106815000Y-110998571D01*
X106910238Y-110903333D01*
X107005476Y-110855714D01*
X107195952Y-110808095D01*
X107338809Y-110808095D01*
X107529285Y-110855714D01*
X107624523Y-110903333D01*
X107719761Y-110998571D01*
X107767380Y-111141428D01*
X107767380Y-111379523D01*
X93924380Y-120308142D02*
X92924380Y-120308142D01*
X93638666Y-119974809D01*
X92924380Y-119641476D01*
X93924380Y-119641476D01*
X93638666Y-119212904D02*
X93638666Y-118736714D01*
X93924380Y-119308142D02*
X92924380Y-118974809D01*
X93924380Y-118641476D01*
X93924380Y-118308142D02*
X92924380Y-118308142D01*
X93924380Y-117831952D02*
X92924380Y-117831952D01*
X93924380Y-117260523D01*
X92924380Y-117260523D01*
X93400571Y-115689095D02*
X93448190Y-115546238D01*
X93495809Y-115498619D01*
X93591047Y-115451000D01*
X93733904Y-115451000D01*
X93829142Y-115498619D01*
X93876761Y-115546238D01*
X93924380Y-115641476D01*
X93924380Y-116022428D01*
X92924380Y-116022428D01*
X92924380Y-115689095D01*
X92972000Y-115593857D01*
X93019619Y-115546238D01*
X93114857Y-115498619D01*
X93210095Y-115498619D01*
X93305333Y-115546238D01*
X93352952Y-115593857D01*
X93400571Y-115689095D01*
X93400571Y-116022428D01*
X92924380Y-114831952D02*
X92924380Y-114641476D01*
X92972000Y-114546238D01*
X93067238Y-114451000D01*
X93257714Y-114403380D01*
X93591047Y-114403380D01*
X93781523Y-114451000D01*
X93876761Y-114546238D01*
X93924380Y-114641476D01*
X93924380Y-114831952D01*
X93876761Y-114927190D01*
X93781523Y-115022428D01*
X93591047Y-115070047D01*
X93257714Y-115070047D01*
X93067238Y-115022428D01*
X92972000Y-114927190D01*
X92924380Y-114831952D01*
X93638666Y-114022428D02*
X93638666Y-113546238D01*
X93924380Y-114117666D02*
X92924380Y-113784333D01*
X93924380Y-113451000D01*
X93924380Y-112546238D02*
X93448190Y-112879571D01*
X93924380Y-113117666D02*
X92924380Y-113117666D01*
X92924380Y-112736714D01*
X92972000Y-112641476D01*
X93019619Y-112593857D01*
X93114857Y-112546238D01*
X93257714Y-112546238D01*
X93352952Y-112593857D01*
X93400571Y-112641476D01*
X93448190Y-112736714D01*
X93448190Y-113117666D01*
X93924380Y-112117666D02*
X92924380Y-112117666D01*
X92924380Y-111879571D01*
X92972000Y-111736714D01*
X93067238Y-111641476D01*
X93162476Y-111593857D01*
X93352952Y-111546238D01*
X93495809Y-111546238D01*
X93686285Y-111593857D01*
X93781523Y-111641476D01*
X93876761Y-111736714D01*
X93924380Y-111879571D01*
X93924380Y-112117666D01*
X132961428Y-95416666D02*
X133437619Y-95416666D01*
X132866190Y-95702380D02*
X133199523Y-94702380D01*
X133532857Y-95702380D01*
X133723333Y-94702380D02*
X134294761Y-94702380D01*
X134009047Y-95702380D02*
X134009047Y-94702380D01*
X134485238Y-95035714D02*
X134866190Y-95035714D01*
X134628095Y-94702380D02*
X134628095Y-95559523D01*
X134675714Y-95654761D01*
X134770952Y-95702380D01*
X134866190Y-95702380D01*
X135199523Y-95702380D02*
X135199523Y-95035714D01*
X135199523Y-94702380D02*
X135151904Y-94750000D01*
X135199523Y-94797619D01*
X135247142Y-94750000D01*
X135199523Y-94702380D01*
X135199523Y-94797619D01*
X135675714Y-95035714D02*
X135675714Y-95702380D01*
X135675714Y-95130952D02*
X135723333Y-95083333D01*
X135818571Y-95035714D01*
X135961428Y-95035714D01*
X136056666Y-95083333D01*
X136104285Y-95178571D01*
X136104285Y-95702380D01*
X136485238Y-95035714D02*
X136723333Y-95702380D01*
X136961428Y-95035714D02*
X136723333Y-95702380D01*
X136628095Y-95940476D01*
X136580476Y-95988095D01*
X136485238Y-96035714D01*
X137866190Y-95702380D02*
X137294761Y-95702380D01*
X137580476Y-95702380D02*
X137580476Y-94702380D01*
X137485238Y-94845238D01*
X137390000Y-94940476D01*
X137294761Y-94988095D01*
X138199523Y-94702380D02*
X138818571Y-94702380D01*
X138485238Y-95083333D01*
X138628095Y-95083333D01*
X138723333Y-95130952D01*
X138770952Y-95178571D01*
X138818571Y-95273809D01*
X138818571Y-95511904D01*
X138770952Y-95607142D01*
X138723333Y-95654761D01*
X138628095Y-95702380D01*
X138342380Y-95702380D01*
X138247142Y-95654761D01*
X138199523Y-95607142D01*
X127706904Y-130262380D02*
X128373571Y-130262380D01*
X127945000Y-131262380D01*
X129183095Y-130595714D02*
X129183095Y-131262380D01*
X128945000Y-130214761D02*
X128706904Y-130929047D01*
X129325952Y-130929047D01*
X129706904Y-131262380D02*
X129706904Y-130262380D01*
X129706904Y-130738571D02*
X130278333Y-130738571D01*
X130278333Y-131262380D02*
X130278333Y-130262380D01*
X131325952Y-131167142D02*
X131278333Y-131214761D01*
X131135476Y-131262380D01*
X131040238Y-131262380D01*
X130897380Y-131214761D01*
X130802142Y-131119523D01*
X130754523Y-131024285D01*
X130706904Y-130833809D01*
X130706904Y-130690952D01*
X130754523Y-130500476D01*
X130802142Y-130405238D01*
X130897380Y-130310000D01*
X131040238Y-130262380D01*
X131135476Y-130262380D01*
X131278333Y-130310000D01*
X131325952Y-130357619D01*
X132183095Y-130595714D02*
X132183095Y-131262380D01*
X131945000Y-130214761D02*
X131706904Y-130929047D01*
X132325952Y-130929047D01*
X132897380Y-130262380D02*
X132992619Y-130262380D01*
X133087857Y-130310000D01*
X133135476Y-130357619D01*
X133183095Y-130452857D01*
X133230714Y-130643333D01*
X133230714Y-130881428D01*
X133183095Y-131071904D01*
X133135476Y-131167142D01*
X133087857Y-131214761D01*
X132992619Y-131262380D01*
X132897380Y-131262380D01*
X132802142Y-131214761D01*
X132754523Y-131167142D01*
X132706904Y-131071904D01*
X132659285Y-130881428D01*
X132659285Y-130643333D01*
X132706904Y-130452857D01*
X132754523Y-130357619D01*
X132802142Y-130310000D01*
X132897380Y-130262380D01*
X134087857Y-130262380D02*
X133897380Y-130262380D01*
X133802142Y-130310000D01*
X133754523Y-130357619D01*
X133659285Y-130500476D01*
X133611666Y-130690952D01*
X133611666Y-131071904D01*
X133659285Y-131167142D01*
X133706904Y-131214761D01*
X133802142Y-131262380D01*
X133992619Y-131262380D01*
X134087857Y-131214761D01*
X134135476Y-131167142D01*
X134183095Y-131071904D01*
X134183095Y-130833809D01*
X134135476Y-130738571D01*
X134087857Y-130690952D01*
X133992619Y-130643333D01*
X133802142Y-130643333D01*
X133706904Y-130690952D01*
X133659285Y-130738571D01*
X133611666Y-130833809D01*
X135040238Y-130262380D02*
X134849761Y-130262380D01*
X134754523Y-130310000D01*
X134706904Y-130357619D01*
X134611666Y-130500476D01*
X134564047Y-130690952D01*
X134564047Y-131071904D01*
X134611666Y-131167142D01*
X134659285Y-131214761D01*
X134754523Y-131262380D01*
X134945000Y-131262380D01*
X135040238Y-131214761D01*
X135087857Y-131167142D01*
X135135476Y-131071904D01*
X135135476Y-130833809D01*
X135087857Y-130738571D01*
X135040238Y-130690952D01*
X134945000Y-130643333D01*
X134754523Y-130643333D01*
X134659285Y-130690952D01*
X134611666Y-130738571D01*
X134564047Y-130833809D01*
X128341904Y-107402380D02*
X129008571Y-107402380D01*
X128580000Y-108402380D01*
X129818095Y-107735714D02*
X129818095Y-108402380D01*
X129580000Y-107354761D02*
X129341904Y-108069047D01*
X129960952Y-108069047D01*
X130341904Y-108402380D02*
X130341904Y-107402380D01*
X130341904Y-107878571D02*
X130913333Y-107878571D01*
X130913333Y-108402380D02*
X130913333Y-107402380D01*
X131960952Y-108307142D02*
X131913333Y-108354761D01*
X131770476Y-108402380D01*
X131675238Y-108402380D01*
X131532380Y-108354761D01*
X131437142Y-108259523D01*
X131389523Y-108164285D01*
X131341904Y-107973809D01*
X131341904Y-107830952D01*
X131389523Y-107640476D01*
X131437142Y-107545238D01*
X131532380Y-107450000D01*
X131675238Y-107402380D01*
X131770476Y-107402380D01*
X131913333Y-107450000D01*
X131960952Y-107497619D01*
X132818095Y-107735714D02*
X132818095Y-108402380D01*
X132580000Y-107354761D02*
X132341904Y-108069047D01*
X132960952Y-108069047D01*
X133532380Y-107402380D02*
X133627619Y-107402380D01*
X133722857Y-107450000D01*
X133770476Y-107497619D01*
X133818095Y-107592857D01*
X133865714Y-107783333D01*
X133865714Y-108021428D01*
X133818095Y-108211904D01*
X133770476Y-108307142D01*
X133722857Y-108354761D01*
X133627619Y-108402380D01*
X133532380Y-108402380D01*
X133437142Y-108354761D01*
X133389523Y-108307142D01*
X133341904Y-108211904D01*
X133294285Y-108021428D01*
X133294285Y-107783333D01*
X133341904Y-107592857D01*
X133389523Y-107497619D01*
X133437142Y-107450000D01*
X133532380Y-107402380D01*
X134722857Y-107402380D02*
X134532380Y-107402380D01*
X134437142Y-107450000D01*
X134389523Y-107497619D01*
X134294285Y-107640476D01*
X134246666Y-107830952D01*
X134246666Y-108211904D01*
X134294285Y-108307142D01*
X134341904Y-108354761D01*
X134437142Y-108402380D01*
X134627619Y-108402380D01*
X134722857Y-108354761D01*
X134770476Y-108307142D01*
X134818095Y-108211904D01*
X134818095Y-107973809D01*
X134770476Y-107878571D01*
X134722857Y-107830952D01*
X134627619Y-107783333D01*
X134437142Y-107783333D01*
X134341904Y-107830952D01*
X134294285Y-107878571D01*
X134246666Y-107973809D01*
X135675238Y-107402380D02*
X135484761Y-107402380D01*
X135389523Y-107450000D01*
X135341904Y-107497619D01*
X135246666Y-107640476D01*
X135199047Y-107830952D01*
X135199047Y-108211904D01*
X135246666Y-108307142D01*
X135294285Y-108354761D01*
X135389523Y-108402380D01*
X135580000Y-108402380D01*
X135675238Y-108354761D01*
X135722857Y-108307142D01*
X135770476Y-108211904D01*
X135770476Y-107973809D01*
X135722857Y-107878571D01*
X135675238Y-107830952D01*
X135580000Y-107783333D01*
X135389523Y-107783333D01*
X135294285Y-107830952D01*
X135246666Y-107878571D01*
X135199047Y-107973809D01*
D11*
X95250000Y-118745000D02*
X95250000Y-113665000D01*
X96520000Y-113665000D02*
X95250000Y-113665000D01*
X96520000Y-118745000D02*
X96520000Y-113665000D01*
X95250000Y-118745000D02*
X96520000Y-118745000D01*
X95250000Y-136525000D02*
X95250000Y-118745000D01*
X104140000Y-136525000D02*
X95250000Y-136525000D01*
X104140000Y-95885000D02*
X104140000Y-136525000D01*
X95250000Y-95885000D02*
X104140000Y-95885000D01*
X95250000Y-113665000D02*
X95250000Y-95885000D01*
G04 #@! TO.C,C1*
X110795000Y-90155000D02*
X110795000Y-91455000D01*
X110195000Y-90805000D02*
X111395000Y-90805000D01*
X116206000Y-90451000D02*
X116206000Y-91159000D01*
X116166000Y-90246000D02*
X116166000Y-91364000D01*
X116126000Y-90098000D02*
X116126000Y-91512000D01*
X116086000Y-89976000D02*
X116086000Y-91634000D01*
X116046000Y-89871000D02*
X116046000Y-91739000D01*
X116006000Y-89777000D02*
X116006000Y-91833000D01*
X115966000Y-89693000D02*
X115966000Y-91917000D01*
X115926000Y-89616000D02*
X115926000Y-91994000D01*
X115886000Y-89544000D02*
X115886000Y-92066000D01*
X115846000Y-91785000D02*
X115846000Y-92132000D01*
X115846000Y-89478000D02*
X115846000Y-89825000D01*
X115806000Y-91785000D02*
X115806000Y-92195000D01*
X115806000Y-89415000D02*
X115806000Y-89825000D01*
X115766000Y-91785000D02*
X115766000Y-92253000D01*
X115766000Y-89357000D02*
X115766000Y-89825000D01*
X115726000Y-91785000D02*
X115726000Y-92309000D01*
X115726000Y-89301000D02*
X115726000Y-89825000D01*
X115686000Y-91785000D02*
X115686000Y-92361000D01*
X115686000Y-89249000D02*
X115686000Y-89825000D01*
X115646000Y-91785000D02*
X115646000Y-92411000D01*
X115646000Y-89199000D02*
X115646000Y-89825000D01*
X115606000Y-91785000D02*
X115606000Y-92459000D01*
X115606000Y-89151000D02*
X115606000Y-89825000D01*
X115566000Y-91785000D02*
X115566000Y-92504000D01*
X115566000Y-89106000D02*
X115566000Y-89825000D01*
X115526000Y-91785000D02*
X115526000Y-92547000D01*
X115526000Y-89063000D02*
X115526000Y-89825000D01*
X115486000Y-91785000D02*
X115486000Y-92588000D01*
X115486000Y-89022000D02*
X115486000Y-89825000D01*
X115446000Y-91785000D02*
X115446000Y-92628000D01*
X115446000Y-88982000D02*
X115446000Y-89825000D01*
X115406000Y-91785000D02*
X115406000Y-92666000D01*
X115406000Y-88944000D02*
X115406000Y-89825000D01*
X115366000Y-91785000D02*
X115366000Y-92702000D01*
X115366000Y-88908000D02*
X115366000Y-89825000D01*
X115326000Y-91785000D02*
X115326000Y-92737000D01*
X115326000Y-88873000D02*
X115326000Y-89825000D01*
X115286000Y-91785000D02*
X115286000Y-92770000D01*
X115286000Y-88840000D02*
X115286000Y-89825000D01*
X115246000Y-91785000D02*
X115246000Y-92802000D01*
X115246000Y-88808000D02*
X115246000Y-89825000D01*
X115206000Y-91785000D02*
X115206000Y-92833000D01*
X115206000Y-88777000D02*
X115206000Y-89825000D01*
X115166000Y-91785000D02*
X115166000Y-92863000D01*
X115166000Y-88747000D02*
X115166000Y-89825000D01*
X115126000Y-91785000D02*
X115126000Y-92891000D01*
X115126000Y-88719000D02*
X115126000Y-89825000D01*
X115086000Y-91785000D02*
X115086000Y-92918000D01*
X115086000Y-88692000D02*
X115086000Y-89825000D01*
X115046000Y-91785000D02*
X115046000Y-92945000D01*
X115046000Y-88665000D02*
X115046000Y-89825000D01*
X115006000Y-91785000D02*
X115006000Y-92970000D01*
X115006000Y-88640000D02*
X115006000Y-89825000D01*
X114966000Y-91785000D02*
X114966000Y-92994000D01*
X114966000Y-88616000D02*
X114966000Y-89825000D01*
X114926000Y-91785000D02*
X114926000Y-93017000D01*
X114926000Y-88593000D02*
X114926000Y-89825000D01*
X114886000Y-91785000D02*
X114886000Y-93039000D01*
X114886000Y-88571000D02*
X114886000Y-89825000D01*
X114846000Y-91785000D02*
X114846000Y-93061000D01*
X114846000Y-88549000D02*
X114846000Y-89825000D01*
X114806000Y-91785000D02*
X114806000Y-93081000D01*
X114806000Y-88529000D02*
X114806000Y-89825000D01*
X114766000Y-91785000D02*
X114766000Y-93101000D01*
X114766000Y-88509000D02*
X114766000Y-89825000D01*
X114726000Y-91785000D02*
X114726000Y-93120000D01*
X114726000Y-88490000D02*
X114726000Y-89825000D01*
X114686000Y-91785000D02*
X114686000Y-93138000D01*
X114686000Y-88472000D02*
X114686000Y-89825000D01*
X114646000Y-91785000D02*
X114646000Y-93155000D01*
X114646000Y-88455000D02*
X114646000Y-89825000D01*
X114606000Y-91785000D02*
X114606000Y-93171000D01*
X114606000Y-88439000D02*
X114606000Y-89825000D01*
X114566000Y-91785000D02*
X114566000Y-93187000D01*
X114566000Y-88423000D02*
X114566000Y-89825000D01*
X114526000Y-91785000D02*
X114526000Y-93201000D01*
X114526000Y-88409000D02*
X114526000Y-89825000D01*
X114486000Y-91785000D02*
X114486000Y-93215000D01*
X114486000Y-88395000D02*
X114486000Y-89825000D01*
X114446000Y-91785000D02*
X114446000Y-93229000D01*
X114446000Y-88381000D02*
X114446000Y-89825000D01*
X114406000Y-91785000D02*
X114406000Y-93241000D01*
X114406000Y-88369000D02*
X114406000Y-89825000D01*
X114366000Y-91785000D02*
X114366000Y-93253000D01*
X114366000Y-88357000D02*
X114366000Y-89825000D01*
X114325000Y-91785000D02*
X114325000Y-93265000D01*
X114325000Y-88345000D02*
X114325000Y-89825000D01*
X114285000Y-91785000D02*
X114285000Y-93275000D01*
X114285000Y-88335000D02*
X114285000Y-89825000D01*
X114245000Y-91785000D02*
X114245000Y-93285000D01*
X114245000Y-88325000D02*
X114245000Y-89825000D01*
X114205000Y-91785000D02*
X114205000Y-93294000D01*
X114205000Y-88316000D02*
X114205000Y-89825000D01*
X114165000Y-91785000D02*
X114165000Y-93303000D01*
X114165000Y-88307000D02*
X114165000Y-89825000D01*
X114125000Y-91785000D02*
X114125000Y-93311000D01*
X114125000Y-88299000D02*
X114125000Y-89825000D01*
X114085000Y-91785000D02*
X114085000Y-93318000D01*
X114085000Y-88292000D02*
X114085000Y-89825000D01*
X114045000Y-91785000D02*
X114045000Y-93324000D01*
X114045000Y-88286000D02*
X114045000Y-89825000D01*
X114005000Y-91785000D02*
X114005000Y-93330000D01*
X114005000Y-88280000D02*
X114005000Y-89825000D01*
X113965000Y-91785000D02*
X113965000Y-93336000D01*
X113965000Y-88274000D02*
X113965000Y-89825000D01*
X113925000Y-91785000D02*
X113925000Y-93340000D01*
X113925000Y-88270000D02*
X113925000Y-89825000D01*
X113885000Y-88266000D02*
X113885000Y-93344000D01*
X113845000Y-88262000D02*
X113845000Y-93348000D01*
X113805000Y-88259000D02*
X113805000Y-93351000D01*
X113765000Y-88257000D02*
X113765000Y-93353000D01*
X113725000Y-88256000D02*
X113725000Y-93354000D01*
X113685000Y-88255000D02*
X113685000Y-93355000D01*
X113645000Y-88255000D02*
X113645000Y-93355000D01*
X115950722Y-91984723D02*
G75*
G03*
X115950580Y-89625000I-2305722J1179723D01*
G01*
X115950722Y-91984723D02*
G75*
G02*
X111339420Y-91985000I-2305722J1179723D01*
G01*
X115950722Y-89625277D02*
G75*
G03*
X111339420Y-89625000I-2305722J-1179723D01*
G01*
G04 #@! TO.C,C2*
X143871000Y-128290000D02*
X144185000Y-128290000D01*
X141565000Y-128290000D02*
X141879000Y-128290000D01*
X143871000Y-133410000D02*
X144185000Y-133410000D01*
X141565000Y-133410000D02*
X141879000Y-133410000D01*
X144185000Y-133410000D02*
X144185000Y-128290000D01*
X141565000Y-133410000D02*
X141565000Y-128290000D01*
G04 #@! TO.C,C3*
X142200000Y-110550000D02*
X142200000Y-105430000D01*
X144820000Y-110550000D02*
X144820000Y-105430000D01*
X142200000Y-110550000D02*
X142514000Y-110550000D01*
X144506000Y-110550000D02*
X144820000Y-110550000D01*
X142200000Y-105430000D02*
X142514000Y-105430000D01*
X144506000Y-105430000D02*
X144820000Y-105430000D01*
G04 #@! TO.C,C4*
X124734000Y-98405000D02*
X124420000Y-98405000D01*
X127040000Y-98405000D02*
X126726000Y-98405000D01*
X124734000Y-93285000D02*
X124420000Y-93285000D01*
X127040000Y-93285000D02*
X126726000Y-93285000D01*
X124420000Y-93285000D02*
X124420000Y-98405000D01*
X127040000Y-93285000D02*
X127040000Y-98405000D01*
G04 #@! TO.C,J1*
X97095000Y-97095000D02*
X98425000Y-97095000D01*
X97095000Y-98425000D02*
X97095000Y-97095000D01*
X99695000Y-97095000D02*
X102295000Y-97095000D01*
X99695000Y-99695000D02*
X99695000Y-97095000D01*
X97095000Y-99695000D02*
X99695000Y-99695000D01*
X102295000Y-97095000D02*
X102295000Y-135315000D01*
X97095000Y-99695000D02*
X97095000Y-135315000D01*
X97095000Y-135315000D02*
X102295000Y-135315000D01*
D10*
G04 #@! TO.C,J3*
X153670000Y-92380000D02*
X153070000Y-91780000D01*
X154270000Y-91780000D02*
X153670000Y-92380000D01*
X153070000Y-91780000D02*
X154270000Y-91780000D01*
X159510000Y-91330000D02*
X159510000Y-91830000D01*
X159610000Y-91830000D02*
X159410000Y-91830000D01*
X159610000Y-91330000D02*
X159610000Y-91830000D01*
X159410000Y-91330000D02*
X159610000Y-91330000D01*
X159510000Y-136770000D02*
X159510000Y-137270000D01*
X159610000Y-137270000D02*
X159410000Y-137270000D01*
X159610000Y-136770000D02*
X159610000Y-137270000D01*
X159410000Y-136770000D02*
X159610000Y-136770000D01*
X159510000Y-114050000D02*
X159510000Y-114550000D01*
X159610000Y-114550000D02*
X159410000Y-114550000D01*
X159610000Y-114050000D02*
X159610000Y-114550000D01*
X159410000Y-114050000D02*
X159610000Y-114050000D01*
X151770000Y-116525000D02*
X150470000Y-116525000D01*
X151770000Y-138490000D02*
X151770000Y-116525000D01*
X158110000Y-138490000D02*
X151770000Y-138490000D01*
X158110000Y-90110000D02*
X158110000Y-138490000D01*
X151770000Y-90110000D02*
X158110000Y-90110000D01*
X151770000Y-112075000D02*
X151770000Y-90110000D01*
X150470000Y-112075000D02*
X151770000Y-112075000D01*
X150470000Y-139690000D02*
X150470000Y-88910000D01*
X159410000Y-139690000D02*
X150470000Y-139690000D01*
X159410000Y-88910000D02*
X159410000Y-139690000D01*
X150470000Y-88910000D02*
X159410000Y-88910000D01*
G04 #@! TO.C,J4*
X166980000Y-88910000D02*
X175920000Y-88910000D01*
X175920000Y-88910000D02*
X175920000Y-139690000D01*
X175920000Y-139690000D02*
X166980000Y-139690000D01*
X166980000Y-139690000D02*
X166980000Y-88910000D01*
X166980000Y-112075000D02*
X168280000Y-112075000D01*
X168280000Y-112075000D02*
X168280000Y-90110000D01*
X168280000Y-90110000D02*
X174620000Y-90110000D01*
X174620000Y-90110000D02*
X174620000Y-138490000D01*
X174620000Y-138490000D02*
X168280000Y-138490000D01*
X168280000Y-138490000D02*
X168280000Y-116525000D01*
X168280000Y-116525000D02*
X166980000Y-116525000D01*
X175920000Y-114050000D02*
X176120000Y-114050000D01*
X176120000Y-114050000D02*
X176120000Y-114550000D01*
X176120000Y-114550000D02*
X175920000Y-114550000D01*
X176020000Y-114050000D02*
X176020000Y-114550000D01*
X175920000Y-136770000D02*
X176120000Y-136770000D01*
X176120000Y-136770000D02*
X176120000Y-137270000D01*
X176120000Y-137270000D02*
X175920000Y-137270000D01*
X176020000Y-136770000D02*
X176020000Y-137270000D01*
X175920000Y-91330000D02*
X176120000Y-91330000D01*
X176120000Y-91330000D02*
X176120000Y-91830000D01*
X176120000Y-91830000D02*
X175920000Y-91830000D01*
X176020000Y-91330000D02*
X176020000Y-91830000D01*
X169580000Y-91780000D02*
X170780000Y-91780000D01*
X170780000Y-91780000D02*
X170180000Y-92380000D01*
X170180000Y-92380000D02*
X169580000Y-91780000D01*
D11*
G04 #@! TO.C,JP2*
X142300000Y-115510000D02*
X142300000Y-116840000D01*
X140970000Y-115510000D02*
X142300000Y-115510000D01*
X139700000Y-115510000D02*
X139700000Y-118170000D01*
X139700000Y-118170000D02*
X134560000Y-118170000D01*
X139700000Y-115510000D02*
X134560000Y-115510000D01*
X134560000Y-115510000D02*
X134560000Y-118170000D01*
G04 #@! TO.C,JP3*
X123130000Y-115510000D02*
X123130000Y-118170000D01*
X128270000Y-115510000D02*
X123130000Y-115510000D01*
X128270000Y-118170000D02*
X123130000Y-118170000D01*
X128270000Y-115510000D02*
X128270000Y-118170000D01*
X129540000Y-115510000D02*
X130870000Y-115510000D01*
X130870000Y-115510000D02*
X130870000Y-116840000D01*
G04 #@! TO.C,U2*
X140395000Y-129810000D02*
X140395000Y-128160000D01*
X140395000Y-128160000D02*
X122495000Y-128160000D01*
X122495000Y-128160000D02*
X122495000Y-133460000D01*
X122495000Y-133460000D02*
X140395000Y-133460000D01*
X140395000Y-133460000D02*
X140395000Y-131810000D01*
X140455000Y-125670000D02*
X122435000Y-125670000D01*
X122435000Y-125670000D02*
X122435000Y-135950000D01*
X122435000Y-135950000D02*
X140455000Y-135950000D01*
X140455000Y-135950000D02*
X140455000Y-125670000D01*
X140395000Y-131810000D02*
G75*
G02*
X140395000Y-129810000I0J1000000D01*
G01*
G04 #@! TO.C,U3*
X130055000Y-90110000D02*
X130055000Y-100390000D01*
X140455000Y-90110000D02*
X130055000Y-90110000D01*
X140455000Y-100390000D02*
X140455000Y-90110000D01*
X130055000Y-100390000D02*
X140455000Y-100390000D01*
X130115000Y-92600000D02*
X130115000Y-94250000D01*
X140395000Y-92600000D02*
X130115000Y-92600000D01*
X140395000Y-97900000D02*
X140395000Y-92600000D01*
X130115000Y-97900000D02*
X140395000Y-97900000D01*
X130115000Y-96250000D02*
X130115000Y-97900000D01*
X130115000Y-94250000D02*
G75*
G02*
X130115000Y-96250000I0J-1000000D01*
G01*
G04 #@! TO.C,U1*
X141030000Y-106950000D02*
X141030000Y-105300000D01*
X141030000Y-105300000D02*
X123130000Y-105300000D01*
X123130000Y-105300000D02*
X123130000Y-110600000D01*
X123130000Y-110600000D02*
X141030000Y-110600000D01*
X141030000Y-110600000D02*
X141030000Y-108950000D01*
X141090000Y-102810000D02*
X123070000Y-102810000D01*
X123070000Y-102810000D02*
X123070000Y-113090000D01*
X123070000Y-113090000D02*
X141090000Y-113090000D01*
X141090000Y-113090000D02*
X141090000Y-102810000D01*
X141030000Y-108950000D02*
G75*
G02*
X141030000Y-106950000I0J1000000D01*
G01*
G04 #@! TO.C,R1*
X126655000Y-83220000D02*
X126325000Y-83220000D01*
X126325000Y-83220000D02*
X126325000Y-76800000D01*
X126325000Y-76800000D02*
X126655000Y-76800000D01*
X128615000Y-83220000D02*
X128945000Y-83220000D01*
X128945000Y-83220000D02*
X128945000Y-76800000D01*
X128945000Y-76800000D02*
X128615000Y-76800000D01*
G04 #@! TO.C,R2*
X116165000Y-83220000D02*
X116495000Y-83220000D01*
X116165000Y-76800000D02*
X116165000Y-83220000D01*
X116495000Y-76800000D02*
X116165000Y-76800000D01*
X118785000Y-83220000D02*
X118455000Y-83220000D01*
X118785000Y-76800000D02*
X118785000Y-83220000D01*
X118455000Y-76800000D02*
X118785000Y-76800000D01*
G04 #@! TO.C,D5*
X123615000Y-78610000D02*
X121495000Y-78610000D01*
X122555000Y-82840000D02*
X122555000Y-82070000D01*
X122555000Y-77180000D02*
X122555000Y-77950000D01*
X123615000Y-82070000D02*
X123615000Y-77950000D01*
X121495000Y-82070000D02*
X123615000Y-82070000D01*
X121495000Y-77950000D02*
X121495000Y-82070000D01*
X123615000Y-77950000D02*
X121495000Y-77950000D01*
G04 #@! TO.C,D6*
X154175000Y-82125000D02*
X154175000Y-84245000D01*
X158405000Y-83185000D02*
X157635000Y-83185000D01*
X152745000Y-83185000D02*
X153515000Y-83185000D01*
X157635000Y-82125000D02*
X153515000Y-82125000D01*
X157635000Y-84245000D02*
X157635000Y-82125000D01*
X153515000Y-84245000D02*
X157635000Y-84245000D01*
X153515000Y-82125000D02*
X153515000Y-84245000D01*
G04 #@! TO.C,J2*
X111065000Y-97095000D02*
X112395000Y-97095000D01*
X111065000Y-98425000D02*
X111065000Y-97095000D01*
X113665000Y-97095000D02*
X116265000Y-97095000D01*
X113665000Y-99695000D02*
X113665000Y-97095000D01*
X111065000Y-99695000D02*
X113665000Y-99695000D01*
X116265000Y-97095000D02*
X116265000Y-135315000D01*
X111065000Y-99695000D02*
X111065000Y-135315000D01*
X111065000Y-135315000D02*
X116265000Y-135315000D01*
G04 #@! TO.C,JP4*
X139385000Y-79245000D02*
X139985000Y-79245000D01*
X138685000Y-81345000D02*
X138685000Y-79945000D01*
X139985000Y-82045000D02*
X139385000Y-82045000D01*
X140685000Y-79945000D02*
X140685000Y-81345000D01*
X140685000Y-81345000D02*
G75*
G02*
X139985000Y-82045000I-700000J0D01*
G01*
X139385000Y-82045000D02*
G75*
G02*
X138685000Y-81345000I0J700000D01*
G01*
X138685000Y-79945000D02*
G75*
G02*
X139385000Y-79245000I700000J0D01*
G01*
X139985000Y-79245000D02*
G75*
G02*
X140685000Y-79945000I0J-700000D01*
G01*
G04 #@! TO.C,JP6*
X144445000Y-82045000D02*
X143845000Y-82045000D01*
X145145000Y-79945000D02*
X145145000Y-81345000D01*
X143845000Y-79245000D02*
X144445000Y-79245000D01*
X143145000Y-81345000D02*
X143145000Y-79945000D01*
X143145000Y-79945000D02*
G75*
G02*
X143845000Y-79245000I700000J0D01*
G01*
X144445000Y-79245000D02*
G75*
G02*
X145145000Y-79945000I0J-700000D01*
G01*
X145145000Y-81345000D02*
G75*
G02*
X144445000Y-82045000I-700000J0D01*
G01*
X143845000Y-82045000D02*
G75*
G02*
X143145000Y-81345000I0J700000D01*
G01*
G04 #@! TO.C,JP7*
X161410000Y-88840000D02*
X162740000Y-88840000D01*
X161410000Y-90170000D02*
X161410000Y-88840000D01*
X161410000Y-91440000D02*
X164070000Y-91440000D01*
X164070000Y-91440000D02*
X164070000Y-94040000D01*
X161410000Y-91440000D02*
X161410000Y-94040000D01*
X161410000Y-94040000D02*
X164070000Y-94040000D01*
G04 #@! TO.C,J5*
X95825000Y-89365000D02*
X108645000Y-89365000D01*
X108645000Y-89365000D02*
X108645000Y-86705000D01*
X108645000Y-86705000D02*
X95825000Y-86705000D01*
X95825000Y-86705000D02*
X95825000Y-89365000D01*
X96775000Y-86705000D02*
X96775000Y-80705000D01*
X96775000Y-80705000D02*
X97535000Y-80705000D01*
X97535000Y-80705000D02*
X97535000Y-86705000D01*
X96835000Y-86705000D02*
X96835000Y-80705000D01*
X96955000Y-86705000D02*
X96955000Y-80705000D01*
X97075000Y-86705000D02*
X97075000Y-80705000D01*
X97195000Y-86705000D02*
X97195000Y-80705000D01*
X97315000Y-86705000D02*
X97315000Y-80705000D01*
X97435000Y-86705000D02*
X97435000Y-80705000D01*
X96775000Y-89695000D02*
X96775000Y-89365000D01*
X97535000Y-89695000D02*
X97535000Y-89365000D01*
X98425000Y-89365000D02*
X98425000Y-86705000D01*
X99315000Y-86705000D02*
X99315000Y-80705000D01*
X99315000Y-80705000D02*
X100075000Y-80705000D01*
X100075000Y-80705000D02*
X100075000Y-86705000D01*
X99315000Y-89762071D02*
X99315000Y-89365000D01*
X100075000Y-89762071D02*
X100075000Y-89365000D01*
X100965000Y-89365000D02*
X100965000Y-86705000D01*
X101855000Y-86705000D02*
X101855000Y-80705000D01*
X101855000Y-80705000D02*
X102615000Y-80705000D01*
X102615000Y-80705000D02*
X102615000Y-86705000D01*
X101855000Y-89762071D02*
X101855000Y-89365000D01*
X102615000Y-89762071D02*
X102615000Y-89365000D01*
X103505000Y-89365000D02*
X103505000Y-86705000D01*
X104395000Y-86705000D02*
X104395000Y-80705000D01*
X104395000Y-80705000D02*
X105155000Y-80705000D01*
X105155000Y-80705000D02*
X105155000Y-86705000D01*
X104395000Y-89762071D02*
X104395000Y-89365000D01*
X105155000Y-89762071D02*
X105155000Y-89365000D01*
X106045000Y-89365000D02*
X106045000Y-86705000D01*
X106935000Y-86705000D02*
X106935000Y-80705000D01*
X106935000Y-80705000D02*
X107695000Y-80705000D01*
X107695000Y-80705000D02*
X107695000Y-86705000D01*
X106935000Y-89762071D02*
X106935000Y-89365000D01*
X107695000Y-89762071D02*
X107695000Y-89365000D01*
X97155000Y-92075000D02*
X95885000Y-92075000D01*
X95885000Y-92075000D02*
X95885000Y-90805000D01*
G04 #@! TO.C,JP1*
X147385000Y-98155000D02*
X145985000Y-98155000D01*
X145285000Y-97455000D02*
X145285000Y-96855000D01*
X145985000Y-96155000D02*
X147385000Y-96155000D01*
X148085000Y-96855000D02*
X148085000Y-97455000D01*
X145985000Y-98155000D02*
G75*
G02*
X145285000Y-97455000I0J700000D01*
G01*
X145285000Y-96855000D02*
G75*
G02*
X145985000Y-96155000I700000J0D01*
G01*
X147385000Y-96155000D02*
G75*
G02*
X148085000Y-96855000I0J-700000D01*
G01*
X148085000Y-97455000D02*
G75*
G02*
X147385000Y-98155000I-700000J0D01*
G01*
G04 #@! TO.C,R3*
X131735000Y-83220000D02*
X131405000Y-83220000D01*
X131405000Y-83220000D02*
X131405000Y-76800000D01*
X131405000Y-76800000D02*
X131735000Y-76800000D01*
X133695000Y-83220000D02*
X134025000Y-83220000D01*
X134025000Y-83220000D02*
X134025000Y-76800000D01*
X134025000Y-76800000D02*
X133695000Y-76800000D01*
G04 #@! TO.C,C1*
D10*
X113478333Y-87352142D02*
X113430714Y-87399761D01*
X113287857Y-87447380D01*
X113192619Y-87447380D01*
X113049761Y-87399761D01*
X112954523Y-87304523D01*
X112906904Y-87209285D01*
X112859285Y-87018809D01*
X112859285Y-86875952D01*
X112906904Y-86685476D01*
X112954523Y-86590238D01*
X113049761Y-86495000D01*
X113192619Y-86447380D01*
X113287857Y-86447380D01*
X113430714Y-86495000D01*
X113478333Y-86542619D01*
X114430714Y-87447380D02*
X113859285Y-87447380D01*
X114145000Y-87447380D02*
X114145000Y-86447380D01*
X114049761Y-86590238D01*
X113954523Y-86685476D01*
X113859285Y-86733095D01*
G04 #@! TO.C,C2*
X145772142Y-131016666D02*
X145819761Y-131064285D01*
X145867380Y-131207142D01*
X145867380Y-131302380D01*
X145819761Y-131445238D01*
X145724523Y-131540476D01*
X145629285Y-131588095D01*
X145438809Y-131635714D01*
X145295952Y-131635714D01*
X145105476Y-131588095D01*
X145010238Y-131540476D01*
X144915000Y-131445238D01*
X144867380Y-131302380D01*
X144867380Y-131207142D01*
X144915000Y-131064285D01*
X144962619Y-131016666D01*
X144962619Y-130635714D02*
X144915000Y-130588095D01*
X144867380Y-130492857D01*
X144867380Y-130254761D01*
X144915000Y-130159523D01*
X144962619Y-130111904D01*
X145057857Y-130064285D01*
X145153095Y-130064285D01*
X145295952Y-130111904D01*
X145867380Y-130683333D01*
X145867380Y-130064285D01*
G04 #@! TO.C,C3*
X146407142Y-108156666D02*
X146454761Y-108204285D01*
X146502380Y-108347142D01*
X146502380Y-108442380D01*
X146454761Y-108585238D01*
X146359523Y-108680476D01*
X146264285Y-108728095D01*
X146073809Y-108775714D01*
X145930952Y-108775714D01*
X145740476Y-108728095D01*
X145645238Y-108680476D01*
X145550000Y-108585238D01*
X145502380Y-108442380D01*
X145502380Y-108347142D01*
X145550000Y-108204285D01*
X145597619Y-108156666D01*
X145502380Y-107823333D02*
X145502380Y-107204285D01*
X145883333Y-107537619D01*
X145883333Y-107394761D01*
X145930952Y-107299523D01*
X145978571Y-107251904D01*
X146073809Y-107204285D01*
X146311904Y-107204285D01*
X146407142Y-107251904D01*
X146454761Y-107299523D01*
X146502380Y-107394761D01*
X146502380Y-107680476D01*
X146454761Y-107775714D01*
X146407142Y-107823333D01*
G04 #@! TO.C,C4*
X123547142Y-96051666D02*
X123594761Y-96099285D01*
X123642380Y-96242142D01*
X123642380Y-96337380D01*
X123594761Y-96480238D01*
X123499523Y-96575476D01*
X123404285Y-96623095D01*
X123213809Y-96670714D01*
X123070952Y-96670714D01*
X122880476Y-96623095D01*
X122785238Y-96575476D01*
X122690000Y-96480238D01*
X122642380Y-96337380D01*
X122642380Y-96242142D01*
X122690000Y-96099285D01*
X122737619Y-96051666D01*
X122975714Y-95194523D02*
X123642380Y-95194523D01*
X122594761Y-95432619D02*
X123309047Y-95670714D01*
X123309047Y-95051666D01*
G04 #@! TO.C,J1*
X99361666Y-137247380D02*
X99361666Y-137961666D01*
X99314047Y-138104523D01*
X99218809Y-138199761D01*
X99075952Y-138247380D01*
X98980714Y-138247380D01*
X100361666Y-138247380D02*
X99790238Y-138247380D01*
X100075952Y-138247380D02*
X100075952Y-137247380D01*
X99980714Y-137390238D01*
X99885476Y-137485476D01*
X99790238Y-137533095D01*
G04 #@! TO.C,J3*
X154606666Y-140422380D02*
X154606666Y-141136666D01*
X154559047Y-141279523D01*
X154463809Y-141374761D01*
X154320952Y-141422380D01*
X154225714Y-141422380D01*
X154987619Y-140422380D02*
X155606666Y-140422380D01*
X155273333Y-140803333D01*
X155416190Y-140803333D01*
X155511428Y-140850952D01*
X155559047Y-140898571D01*
X155606666Y-140993809D01*
X155606666Y-141231904D01*
X155559047Y-141327142D01*
X155511428Y-141374761D01*
X155416190Y-141422380D01*
X155130476Y-141422380D01*
X155035238Y-141374761D01*
X154987619Y-141327142D01*
G04 #@! TO.C,J4*
X171116666Y-140422380D02*
X171116666Y-141136666D01*
X171069047Y-141279523D01*
X170973809Y-141374761D01*
X170830952Y-141422380D01*
X170735714Y-141422380D01*
X172021428Y-140755714D02*
X172021428Y-141422380D01*
X171783333Y-140374761D02*
X171545238Y-141089047D01*
X172164285Y-141089047D01*
G04 #@! TO.C,JP2*
X132802380Y-117673333D02*
X133516666Y-117673333D01*
X133659523Y-117720952D01*
X133754761Y-117816190D01*
X133802380Y-117959047D01*
X133802380Y-118054285D01*
X133802380Y-117197142D02*
X132802380Y-117197142D01*
X132802380Y-116816190D01*
X132850000Y-116720952D01*
X132897619Y-116673333D01*
X132992857Y-116625714D01*
X133135714Y-116625714D01*
X133230952Y-116673333D01*
X133278571Y-116720952D01*
X133326190Y-116816190D01*
X133326190Y-117197142D01*
X132897619Y-116244761D02*
X132850000Y-116197142D01*
X132802380Y-116101904D01*
X132802380Y-115863809D01*
X132850000Y-115768571D01*
X132897619Y-115720952D01*
X132992857Y-115673333D01*
X133088095Y-115673333D01*
X133230952Y-115720952D01*
X133802380Y-116292380D01*
X133802380Y-115673333D01*
G04 #@! TO.C,JP3*
X121372380Y-117673333D02*
X122086666Y-117673333D01*
X122229523Y-117720952D01*
X122324761Y-117816190D01*
X122372380Y-117959047D01*
X122372380Y-118054285D01*
X122372380Y-117197142D02*
X121372380Y-117197142D01*
X121372380Y-116816190D01*
X121420000Y-116720952D01*
X121467619Y-116673333D01*
X121562857Y-116625714D01*
X121705714Y-116625714D01*
X121800952Y-116673333D01*
X121848571Y-116720952D01*
X121896190Y-116816190D01*
X121896190Y-117197142D01*
X121372380Y-116292380D02*
X121372380Y-115673333D01*
X121753333Y-116006666D01*
X121753333Y-115863809D01*
X121800952Y-115768571D01*
X121848571Y-115720952D01*
X121943809Y-115673333D01*
X122181904Y-115673333D01*
X122277142Y-115720952D01*
X122324761Y-115768571D01*
X122372380Y-115863809D01*
X122372380Y-116149523D01*
X122324761Y-116244761D01*
X122277142Y-116292380D01*
G04 #@! TO.C,U2*
X120737380Y-131571904D02*
X121546904Y-131571904D01*
X121642142Y-131524285D01*
X121689761Y-131476666D01*
X121737380Y-131381428D01*
X121737380Y-131190952D01*
X121689761Y-131095714D01*
X121642142Y-131048095D01*
X121546904Y-131000476D01*
X120737380Y-131000476D01*
X120832619Y-130571904D02*
X120785000Y-130524285D01*
X120737380Y-130429047D01*
X120737380Y-130190952D01*
X120785000Y-130095714D01*
X120832619Y-130048095D01*
X120927857Y-130000476D01*
X121023095Y-130000476D01*
X121165952Y-130048095D01*
X121737380Y-130619523D01*
X121737380Y-130000476D01*
G04 #@! TO.C,U3*
X128567380Y-96011904D02*
X129376904Y-96011904D01*
X129472142Y-95964285D01*
X129519761Y-95916666D01*
X129567380Y-95821428D01*
X129567380Y-95630952D01*
X129519761Y-95535714D01*
X129472142Y-95488095D01*
X129376904Y-95440476D01*
X128567380Y-95440476D01*
X128567380Y-95059523D02*
X128567380Y-94440476D01*
X128948333Y-94773809D01*
X128948333Y-94630952D01*
X128995952Y-94535714D01*
X129043571Y-94488095D01*
X129138809Y-94440476D01*
X129376904Y-94440476D01*
X129472142Y-94488095D01*
X129519761Y-94535714D01*
X129567380Y-94630952D01*
X129567380Y-94916666D01*
X129519761Y-95011904D01*
X129472142Y-95059523D01*
G04 #@! TO.C,U1*
X121372380Y-108711904D02*
X122181904Y-108711904D01*
X122277142Y-108664285D01*
X122324761Y-108616666D01*
X122372380Y-108521428D01*
X122372380Y-108330952D01*
X122324761Y-108235714D01*
X122277142Y-108188095D01*
X122181904Y-108140476D01*
X121372380Y-108140476D01*
X122372380Y-107140476D02*
X122372380Y-107711904D01*
X122372380Y-107426190D02*
X121372380Y-107426190D01*
X121515238Y-107521428D01*
X121610476Y-107616666D01*
X121658095Y-107711904D01*
G04 #@! TO.C,R1*
X125547380Y-80176666D02*
X125071190Y-80510000D01*
X125547380Y-80748095D02*
X124547380Y-80748095D01*
X124547380Y-80367142D01*
X124595000Y-80271904D01*
X124642619Y-80224285D01*
X124737857Y-80176666D01*
X124880714Y-80176666D01*
X124975952Y-80224285D01*
X125023571Y-80271904D01*
X125071190Y-80367142D01*
X125071190Y-80748095D01*
X125547380Y-79224285D02*
X125547380Y-79795714D01*
X125547380Y-79510000D02*
X124547380Y-79510000D01*
X124690238Y-79605238D01*
X124785476Y-79700476D01*
X124833095Y-79795714D01*
G04 #@! TO.C,R2*
X115387380Y-80176666D02*
X114911190Y-80510000D01*
X115387380Y-80748095D02*
X114387380Y-80748095D01*
X114387380Y-80367142D01*
X114435000Y-80271904D01*
X114482619Y-80224285D01*
X114577857Y-80176666D01*
X114720714Y-80176666D01*
X114815952Y-80224285D01*
X114863571Y-80271904D01*
X114911190Y-80367142D01*
X114911190Y-80748095D01*
X114482619Y-79795714D02*
X114435000Y-79748095D01*
X114387380Y-79652857D01*
X114387380Y-79414761D01*
X114435000Y-79319523D01*
X114482619Y-79271904D01*
X114577857Y-79224285D01*
X114673095Y-79224285D01*
X114815952Y-79271904D01*
X115387380Y-79843333D01*
X115387380Y-79224285D01*
G04 #@! TO.C,D5*
X121102380Y-80748095D02*
X120102380Y-80748095D01*
X120102380Y-80510000D01*
X120150000Y-80367142D01*
X120245238Y-80271904D01*
X120340476Y-80224285D01*
X120530952Y-80176666D01*
X120673809Y-80176666D01*
X120864285Y-80224285D01*
X120959523Y-80271904D01*
X121054761Y-80367142D01*
X121102380Y-80510000D01*
X121102380Y-80748095D01*
X120102380Y-79271904D02*
X120102380Y-79748095D01*
X120578571Y-79795714D01*
X120530952Y-79748095D01*
X120483333Y-79652857D01*
X120483333Y-79414761D01*
X120530952Y-79319523D01*
X120578571Y-79271904D01*
X120673809Y-79224285D01*
X120911904Y-79224285D01*
X121007142Y-79271904D01*
X121054761Y-79319523D01*
X121102380Y-79414761D01*
X121102380Y-79652857D01*
X121054761Y-79748095D01*
X121007142Y-79795714D01*
G04 #@! TO.C,D6*
X154836904Y-85542380D02*
X154836904Y-84542380D01*
X155075000Y-84542380D01*
X155217857Y-84590000D01*
X155313095Y-84685238D01*
X155360714Y-84780476D01*
X155408333Y-84970952D01*
X155408333Y-85113809D01*
X155360714Y-85304285D01*
X155313095Y-85399523D01*
X155217857Y-85494761D01*
X155075000Y-85542380D01*
X154836904Y-85542380D01*
X156265476Y-84542380D02*
X156075000Y-84542380D01*
X155979761Y-84590000D01*
X155932142Y-84637619D01*
X155836904Y-84780476D01*
X155789285Y-84970952D01*
X155789285Y-85351904D01*
X155836904Y-85447142D01*
X155884523Y-85494761D01*
X155979761Y-85542380D01*
X156170238Y-85542380D01*
X156265476Y-85494761D01*
X156313095Y-85447142D01*
X156360714Y-85351904D01*
X156360714Y-85113809D01*
X156313095Y-85018571D01*
X156265476Y-84970952D01*
X156170238Y-84923333D01*
X155979761Y-84923333D01*
X155884523Y-84970952D01*
X155836904Y-85018571D01*
X155789285Y-85113809D01*
G04 #@! TO.C,J2*
X113331666Y-137247380D02*
X113331666Y-137961666D01*
X113284047Y-138104523D01*
X113188809Y-138199761D01*
X113045952Y-138247380D01*
X112950714Y-138247380D01*
X113760238Y-137342619D02*
X113807857Y-137295000D01*
X113903095Y-137247380D01*
X114141190Y-137247380D01*
X114236428Y-137295000D01*
X114284047Y-137342619D01*
X114331666Y-137437857D01*
X114331666Y-137533095D01*
X114284047Y-137675952D01*
X113712619Y-138247380D01*
X114331666Y-138247380D01*
G04 #@! TO.C,JP4*
X137247380Y-81478333D02*
X137961666Y-81478333D01*
X138104523Y-81525952D01*
X138199761Y-81621190D01*
X138247380Y-81764047D01*
X138247380Y-81859285D01*
X138247380Y-81002142D02*
X137247380Y-81002142D01*
X137247380Y-80621190D01*
X137295000Y-80525952D01*
X137342619Y-80478333D01*
X137437857Y-80430714D01*
X137580714Y-80430714D01*
X137675952Y-80478333D01*
X137723571Y-80525952D01*
X137771190Y-80621190D01*
X137771190Y-81002142D01*
X137580714Y-79573571D02*
X138247380Y-79573571D01*
X137199761Y-79811666D02*
X137914047Y-80049761D01*
X137914047Y-79430714D01*
G04 #@! TO.C,JP6*
X141692380Y-81478333D02*
X142406666Y-81478333D01*
X142549523Y-81525952D01*
X142644761Y-81621190D01*
X142692380Y-81764047D01*
X142692380Y-81859285D01*
X142692380Y-81002142D02*
X141692380Y-81002142D01*
X141692380Y-80621190D01*
X141740000Y-80525952D01*
X141787619Y-80478333D01*
X141882857Y-80430714D01*
X142025714Y-80430714D01*
X142120952Y-80478333D01*
X142168571Y-80525952D01*
X142216190Y-80621190D01*
X142216190Y-81002142D01*
X141692380Y-79573571D02*
X141692380Y-79764047D01*
X141740000Y-79859285D01*
X141787619Y-79906904D01*
X141930476Y-80002142D01*
X142120952Y-80049761D01*
X142501904Y-80049761D01*
X142597142Y-80002142D01*
X142644761Y-79954523D01*
X142692380Y-79859285D01*
X142692380Y-79668809D01*
X142644761Y-79573571D01*
X142597142Y-79525952D01*
X142501904Y-79478333D01*
X142263809Y-79478333D01*
X142168571Y-79525952D01*
X142120952Y-79573571D01*
X142073333Y-79668809D01*
X142073333Y-79859285D01*
X142120952Y-79954523D01*
X142168571Y-80002142D01*
X142263809Y-80049761D01*
G04 #@! TO.C,JP7*
X164732380Y-93543333D02*
X165446666Y-93543333D01*
X165589523Y-93590952D01*
X165684761Y-93686190D01*
X165732380Y-93829047D01*
X165732380Y-93924285D01*
X165732380Y-93067142D02*
X164732380Y-93067142D01*
X164732380Y-92686190D01*
X164780000Y-92590952D01*
X164827619Y-92543333D01*
X164922857Y-92495714D01*
X165065714Y-92495714D01*
X165160952Y-92543333D01*
X165208571Y-92590952D01*
X165256190Y-92686190D01*
X165256190Y-93067142D01*
X164732380Y-92162380D02*
X164732380Y-91495714D01*
X165732380Y-91924285D01*
G04 #@! TO.C,J5*
X109307380Y-88598333D02*
X110021666Y-88598333D01*
X110164523Y-88645952D01*
X110259761Y-88741190D01*
X110307380Y-88884047D01*
X110307380Y-88979285D01*
X109307380Y-87645952D02*
X109307380Y-88122142D01*
X109783571Y-88169761D01*
X109735952Y-88122142D01*
X109688333Y-88026904D01*
X109688333Y-87788809D01*
X109735952Y-87693571D01*
X109783571Y-87645952D01*
X109878809Y-87598333D01*
X110116904Y-87598333D01*
X110212142Y-87645952D01*
X110259761Y-87693571D01*
X110307380Y-87788809D01*
X110307380Y-88026904D01*
X110259761Y-88122142D01*
X110212142Y-88169761D01*
G04 #@! TO.C,JP1*
X145851666Y-98407380D02*
X145851666Y-99121666D01*
X145804047Y-99264523D01*
X145708809Y-99359761D01*
X145565952Y-99407380D01*
X145470714Y-99407380D01*
X146327857Y-99407380D02*
X146327857Y-98407380D01*
X146708809Y-98407380D01*
X146804047Y-98455000D01*
X146851666Y-98502619D01*
X146899285Y-98597857D01*
X146899285Y-98740714D01*
X146851666Y-98835952D01*
X146804047Y-98883571D01*
X146708809Y-98931190D01*
X146327857Y-98931190D01*
X147851666Y-99407380D02*
X147280238Y-99407380D01*
X147565952Y-99407380D02*
X147565952Y-98407380D01*
X147470714Y-98550238D01*
X147375476Y-98645476D01*
X147280238Y-98693095D01*
G04 #@! TO.C,R3*
X130857380Y-80176666D02*
X130381190Y-80510000D01*
X130857380Y-80748095D02*
X129857380Y-80748095D01*
X129857380Y-80367142D01*
X129905000Y-80271904D01*
X129952619Y-80224285D01*
X130047857Y-80176666D01*
X130190714Y-80176666D01*
X130285952Y-80224285D01*
X130333571Y-80271904D01*
X130381190Y-80367142D01*
X130381190Y-80748095D01*
X129857380Y-79843333D02*
X129857380Y-79224285D01*
X130238333Y-79557619D01*
X130238333Y-79414761D01*
X130285952Y-79319523D01*
X130333571Y-79271904D01*
X130428809Y-79224285D01*
X130666904Y-79224285D01*
X130762142Y-79271904D01*
X130809761Y-79319523D01*
X130857380Y-79414761D01*
X130857380Y-79700476D01*
X130809761Y-79795714D01*
X130762142Y-79843333D01*
G04 #@! TD*
M02*
