M48
; DRILL file {KiCad (5.1.9)-1} date 12/30/21 22:55:22
; FORMAT={-:-/ absolute / metric / decimal}
; #@! TF.CreationDate,2021-12-30T22:55:22+09:00
; #@! TF.GenerationSoftware,Kicad,Pcbnew,(5.1.9)-1
FMAT,2
METRIC
T1C0.400
T2C0.800
T3C1.000
%
G90
G05
T1
X129.655Y-88.726
X131.92Y-107.362
X133.315Y-102.407
X136.123Y-110.747
X139.7Y-114.367
X146.735Y-119.384
X148.051Y-113.919
T2
X112.395Y-90.805
X114.895Y-90.805
X117.475Y-76.2
X117.475Y-83.82
X122.555Y-76.2
X122.555Y-83.82
X123.825Y-127.0
X123.825Y-134.62
X124.46Y-104.14
X124.46Y-111.76
X125.73Y-93.345
X125.73Y-98.345
X126.365Y-127.0
X126.365Y-134.62
X127.0Y-104.14
X127.0Y-111.76
X127.635Y-76.2
X127.635Y-83.82
X128.905Y-127.0
X128.905Y-134.62
X129.54Y-104.14
X129.54Y-111.76
X131.445Y-91.44
X131.445Y-99.06
X131.445Y-127.0
X131.445Y-134.62
X132.08Y-104.14
X132.08Y-111.76
X132.715Y-76.2
X132.715Y-83.82
X133.985Y-91.44
X133.985Y-99.06
X133.985Y-127.0
X133.985Y-134.62
X134.62Y-104.14
X134.62Y-111.76
X136.525Y-91.44
X136.525Y-99.06
X136.525Y-127.0
X136.525Y-134.62
X137.16Y-104.14
X137.16Y-111.76
X139.065Y-91.44
X139.065Y-99.06
X139.065Y-127.0
X139.065Y-134.62
X139.7Y-104.14
X139.7Y-111.76
X142.875Y-128.35
X142.875Y-133.35
X143.51Y-105.49
X143.51Y-110.49
X151.765Y-83.185
X159.385Y-83.185
T3
X97.155Y-90.805
X98.425Y-98.425
X98.425Y-100.965
X98.425Y-103.505
X98.425Y-106.045
X98.425Y-108.585
X98.425Y-111.125
X98.425Y-113.665
X98.425Y-116.205
X98.425Y-118.745
X98.425Y-121.285
X98.425Y-123.825
X98.425Y-126.365
X98.425Y-128.905
X98.425Y-131.445
X98.425Y-133.985
X99.695Y-90.805
X100.965Y-98.425
X100.965Y-100.965
X100.965Y-103.505
X100.965Y-106.045
X100.965Y-108.585
X100.965Y-111.125
X100.965Y-113.665
X100.965Y-116.205
X100.965Y-118.745
X100.965Y-121.285
X100.965Y-123.825
X100.965Y-126.365
X100.965Y-128.905
X100.965Y-131.445
X100.965Y-133.985
X102.235Y-90.805
X104.775Y-90.805
X107.315Y-90.805
X112.395Y-98.425
X112.395Y-100.965
X112.395Y-103.505
X112.395Y-106.045
X112.395Y-108.585
X112.395Y-111.125
X112.395Y-113.665
X112.395Y-116.205
X112.395Y-118.745
X112.395Y-121.285
X112.395Y-123.825
X112.395Y-126.365
X112.395Y-128.905
X112.395Y-131.445
X112.395Y-133.985
X114.935Y-98.425
X114.935Y-100.965
X114.935Y-103.505
X114.935Y-106.045
X114.935Y-108.585
X114.935Y-111.125
X114.935Y-113.665
X114.935Y-116.205
X114.935Y-118.745
X114.935Y-121.285
X114.935Y-123.825
X114.935Y-126.365
X114.935Y-128.905
X114.935Y-131.445
X114.935Y-133.985
X124.46Y-116.84
X127.0Y-116.84
X129.54Y-116.84
X135.89Y-116.84
X138.43Y-116.84
X140.97Y-116.84
X153.67Y-93.98
X153.67Y-96.52
X153.67Y-99.06
X153.67Y-101.6
X153.67Y-104.14
X153.67Y-106.68
X153.67Y-109.22
X153.67Y-111.76
X153.67Y-114.3
X153.67Y-116.84
X153.67Y-119.38
X153.67Y-121.92
X153.67Y-124.46
X153.67Y-127.0
X153.67Y-129.54
X153.67Y-132.08
X153.67Y-134.62
X156.21Y-93.98
X156.21Y-96.52
X156.21Y-99.06
X156.21Y-101.6
X156.21Y-104.14
X156.21Y-106.68
X156.21Y-109.22
X156.21Y-111.76
X156.21Y-114.3
X156.21Y-116.84
X156.21Y-119.38
X156.21Y-121.92
X156.21Y-124.46
X156.21Y-127.0
X156.21Y-129.54
X156.21Y-132.08
X156.21Y-134.62
X162.74Y-90.17
X162.74Y-92.71
X170.18Y-93.98
X170.18Y-96.52
X170.18Y-99.06
X170.18Y-101.6
X170.18Y-104.14
X170.18Y-106.68
X170.18Y-109.22
X170.18Y-111.76
X170.18Y-114.3
X170.18Y-116.84
X170.18Y-119.38
X170.18Y-121.92
X170.18Y-124.46
X170.18Y-127.0
X170.18Y-129.54
X170.18Y-132.08
X170.18Y-134.62
X172.72Y-93.98
X172.72Y-96.52
X172.72Y-99.06
X172.72Y-101.6
X172.72Y-104.14
X172.72Y-106.68
X172.72Y-109.22
X172.72Y-111.76
X172.72Y-114.3
X172.72Y-116.84
X172.72Y-119.38
X172.72Y-121.92
X172.72Y-124.46
X172.72Y-127.0
X172.72Y-129.54
X172.72Y-132.08
X172.72Y-134.62
T0
M30
