G04 #@! TF.GenerationSoftware,KiCad,Pcbnew,(5.1.9)-1*
G04 #@! TF.CreationDate,2021-12-30T22:55:07+09:00*
G04 #@! TF.ProjectId,FDSPlus_BX3,46445350-6c75-4735-9f42-58332e6b6963,rev?*
G04 #@! TF.SameCoordinates,Original*
G04 #@! TF.FileFunction,Soldermask,Bot*
G04 #@! TF.FilePolarity,Negative*
%FSLAX46Y46*%
G04 Gerber Fmt 4.6, Leading zero omitted, Abs format (unit mm)*
G04 Created by KiCad (PCBNEW (5.1.9)-1) date 2021-12-30 22:55:07*
%MOMM*%
%LPD*%
G01*
G04 APERTURE LIST*
%ADD10C,1.600000*%
%ADD11R,1.600000X1.600000*%
%ADD12O,1.700000X1.700000*%
%ADD13R,1.700000X1.700000*%
%ADD14C,1.700000*%
%ADD15O,1.600000X1.600000*%
G04 APERTURE END LIST*
D10*
G04 #@! TO.C,C1*
X114895000Y-90805000D03*
D11*
X112395000Y-90805000D03*
G04 #@! TD*
D10*
G04 #@! TO.C,C2*
X142875000Y-128350000D03*
X142875000Y-133350000D03*
G04 #@! TD*
G04 #@! TO.C,C3*
X143510000Y-110490000D03*
X143510000Y-105490000D03*
G04 #@! TD*
G04 #@! TO.C,C4*
X125730000Y-98345000D03*
X125730000Y-93345000D03*
G04 #@! TD*
D12*
G04 #@! TO.C,J1*
X100965000Y-133985000D03*
X98425000Y-133985000D03*
X100965000Y-131445000D03*
X98425000Y-131445000D03*
X100965000Y-128905000D03*
X98425000Y-128905000D03*
X100965000Y-126365000D03*
X98425000Y-126365000D03*
X100965000Y-123825000D03*
X98425000Y-123825000D03*
X100965000Y-121285000D03*
X98425000Y-121285000D03*
X100965000Y-118745000D03*
X98425000Y-118745000D03*
X100965000Y-116205000D03*
X98425000Y-116205000D03*
X100965000Y-113665000D03*
X98425000Y-113665000D03*
X100965000Y-111125000D03*
X98425000Y-111125000D03*
X100965000Y-108585000D03*
X98425000Y-108585000D03*
X100965000Y-106045000D03*
X98425000Y-106045000D03*
X100965000Y-103505000D03*
X98425000Y-103505000D03*
X100965000Y-100965000D03*
X98425000Y-100965000D03*
X100965000Y-98425000D03*
D13*
X98425000Y-98425000D03*
G04 #@! TD*
D14*
G04 #@! TO.C,J3*
X156210000Y-134620000D03*
X153670000Y-134620000D03*
X156210000Y-132080000D03*
X153670000Y-132080000D03*
X156210000Y-129540000D03*
X153670000Y-129540000D03*
X156210000Y-127000000D03*
X153670000Y-127000000D03*
X156210000Y-124460000D03*
X153670000Y-124460000D03*
X156210000Y-121920000D03*
X153670000Y-121920000D03*
X156210000Y-119380000D03*
X153670000Y-119380000D03*
X156210000Y-116840000D03*
X153670000Y-116840000D03*
X156210000Y-114300000D03*
X153670000Y-114300000D03*
X156210000Y-111760000D03*
X153670000Y-111760000D03*
X156210000Y-109220000D03*
X153670000Y-109220000D03*
X156210000Y-106680000D03*
X153670000Y-106680000D03*
X156210000Y-104140000D03*
X153670000Y-104140000D03*
X156210000Y-101600000D03*
X153670000Y-101600000D03*
X156210000Y-99060000D03*
X153670000Y-99060000D03*
X156210000Y-96520000D03*
X153670000Y-96520000D03*
X156210000Y-93980000D03*
D13*
X153670000Y-93980000D03*
G04 #@! TD*
G04 #@! TO.C,J4*
X170180000Y-93980000D03*
D14*
X172720000Y-93980000D03*
X170180000Y-96520000D03*
X172720000Y-96520000D03*
X170180000Y-99060000D03*
X172720000Y-99060000D03*
X170180000Y-101600000D03*
X172720000Y-101600000D03*
X170180000Y-104140000D03*
X172720000Y-104140000D03*
X170180000Y-106680000D03*
X172720000Y-106680000D03*
X170180000Y-109220000D03*
X172720000Y-109220000D03*
X170180000Y-111760000D03*
X172720000Y-111760000D03*
X170180000Y-114300000D03*
X172720000Y-114300000D03*
X170180000Y-116840000D03*
X172720000Y-116840000D03*
X170180000Y-119380000D03*
X172720000Y-119380000D03*
X170180000Y-121920000D03*
X172720000Y-121920000D03*
X170180000Y-124460000D03*
X172720000Y-124460000D03*
X170180000Y-127000000D03*
X172720000Y-127000000D03*
X170180000Y-129540000D03*
X172720000Y-129540000D03*
X170180000Y-132080000D03*
X172720000Y-132080000D03*
X170180000Y-134620000D03*
X172720000Y-134620000D03*
G04 #@! TD*
D12*
G04 #@! TO.C,JP2*
X135890000Y-116840000D03*
X138430000Y-116840000D03*
D13*
X140970000Y-116840000D03*
G04 #@! TD*
G04 #@! TO.C,JP3*
X129540000Y-116840000D03*
D12*
X127000000Y-116840000D03*
X124460000Y-116840000D03*
G04 #@! TD*
D11*
G04 #@! TO.C,U2*
X139065000Y-127000000D03*
D15*
X123825000Y-134620000D03*
X136525000Y-127000000D03*
X126365000Y-134620000D03*
X133985000Y-127000000D03*
X128905000Y-134620000D03*
X131445000Y-127000000D03*
X131445000Y-134620000D03*
X128905000Y-127000000D03*
X133985000Y-134620000D03*
X126365000Y-127000000D03*
X136525000Y-134620000D03*
X123825000Y-127000000D03*
X139065000Y-134620000D03*
G04 #@! TD*
G04 #@! TO.C,U3*
X131445000Y-91440000D03*
X139065000Y-99060000D03*
X133985000Y-91440000D03*
X136525000Y-99060000D03*
X136525000Y-91440000D03*
X133985000Y-99060000D03*
X139065000Y-91440000D03*
D11*
X131445000Y-99060000D03*
G04 #@! TD*
D15*
G04 #@! TO.C,U1*
X139700000Y-111760000D03*
X124460000Y-104140000D03*
X137160000Y-111760000D03*
X127000000Y-104140000D03*
X134620000Y-111760000D03*
X129540000Y-104140000D03*
X132080000Y-111760000D03*
X132080000Y-104140000D03*
X129540000Y-111760000D03*
X134620000Y-104140000D03*
X127000000Y-111760000D03*
X137160000Y-104140000D03*
X124460000Y-111760000D03*
D11*
X139700000Y-104140000D03*
G04 #@! TD*
D15*
G04 #@! TO.C,R1*
X127635000Y-76200000D03*
D10*
X127635000Y-83820000D03*
G04 #@! TD*
G04 #@! TO.C,R2*
X117475000Y-76200000D03*
D15*
X117475000Y-83820000D03*
G04 #@! TD*
D11*
G04 #@! TO.C,D5*
X122555000Y-76200000D03*
D15*
X122555000Y-83820000D03*
G04 #@! TD*
G04 #@! TO.C,D6*
X159385000Y-83185000D03*
D11*
X151765000Y-83185000D03*
G04 #@! TD*
D12*
G04 #@! TO.C,J2*
X114935000Y-133985000D03*
X112395000Y-133985000D03*
X114935000Y-131445000D03*
X112395000Y-131445000D03*
X114935000Y-128905000D03*
X112395000Y-128905000D03*
X114935000Y-126365000D03*
X112395000Y-126365000D03*
X114935000Y-123825000D03*
X112395000Y-123825000D03*
X114935000Y-121285000D03*
X112395000Y-121285000D03*
X114935000Y-118745000D03*
X112395000Y-118745000D03*
X114935000Y-116205000D03*
X112395000Y-116205000D03*
X114935000Y-113665000D03*
X112395000Y-113665000D03*
X114935000Y-111125000D03*
X112395000Y-111125000D03*
X114935000Y-108585000D03*
X112395000Y-108585000D03*
X114935000Y-106045000D03*
X112395000Y-106045000D03*
X114935000Y-103505000D03*
X112395000Y-103505000D03*
X114935000Y-100965000D03*
X112395000Y-100965000D03*
X114935000Y-98425000D03*
D13*
X112395000Y-98425000D03*
G04 #@! TD*
D12*
G04 #@! TO.C,JP7*
X162740000Y-92710000D03*
D13*
X162740000Y-90170000D03*
G04 #@! TD*
D12*
G04 #@! TO.C,J5*
X107315000Y-90805000D03*
X104775000Y-90805000D03*
X102235000Y-90805000D03*
X99695000Y-90805000D03*
D13*
X97155000Y-90805000D03*
G04 #@! TD*
D15*
G04 #@! TO.C,R3*
X132715000Y-76200000D03*
D10*
X132715000Y-83820000D03*
G04 #@! TD*
M02*
